<svg width="25" height="25" viewBox="0 0 25 25" fill="none" xmlns="http://www.w3.org/2000/svg">
<path d="M1.2 15.9C1.2 15.9 -1.2 8.29997 5.6 3.29997C12.4 -1.70003 15 1.09997 15 1.09997C15 1.09997 17.2 2.79997 14.9 5.79997C13.9 7.19997 13 8.99997 14.5 10.1C14.5 10.1 15.4 10.7 18.5 9.49997C18.5 9.49997 22.4 8.09997 22.8 13.4C22.8 13.4 22.8 20.3 13.7 22.7C13.7 22.8 4.2 25.2 1.2 15.9Z" fill="#ECB985"/>
<path d="M7.49995 21.1C8.77021 21.1 9.79995 20.0703 9.79995 18.8C9.79995 17.5297 8.77021 16.5 7.49995 16.5C6.2297 16.5 5.19995 17.5297 5.19995 18.8C5.19995 20.0703 6.2297 21.1 7.49995 21.1Z" fill="#4EB748"/>
<path d="M4.29995 15.5C5.45975 15.5 6.39995 14.5598 6.39995 13.4C6.39995 12.2402 5.45975 11.3 4.29995 11.3C3.14015 11.3 2.19995 12.2402 2.19995 13.4C2.19995 14.5598 3.14015 15.5 4.29995 15.5Z" fill="#4571B7"/>
<path d="M6.79995 9.59996C7.95975 9.59996 8.89995 8.65976 8.89995 7.49996C8.89995 6.34017 7.95975 5.39996 6.79995 5.39996C5.64015 5.39996 4.69995 6.34017 4.69995 7.49996C4.69995 8.65976 5.64015 9.59996 6.79995 9.59996Z" fill="#FED110"/>
<path d="M11.8999 6C13.0045 6 13.8999 5.10457 13.8999 4C13.8999 2.89543 13.0045 2 11.8999 2C10.7953 2 9.8999 2.89543 9.8999 4C9.8999 5.10457 10.7953 6 11.8999 6Z" fill="#ED2324"/>
<path d="M13.8 21.3C14.9046 21.3 15.8 20.4046 15.8 19.3C15.8 18.1954 14.9046 17.3 13.8 17.3C12.6955 17.3 11.8 18.1954 11.8 19.3C11.8 20.4046 12.6955 21.3 13.8 21.3Z" fill="#9F51A0"/>
<path d="M21.5999 3.59998C21.6999 3.19998 21.9999 2.89998 22.2999 2.69998C22.1999 2.59998 22.0999 2.59998 21.8999 2.49998C20.8999 2.19998 19.7999 2.79998 19.4999 3.79998L18.7999 6.19998C18.4999 7.19998 19.0999 8.29998 20.0999 8.59998C21.0999 8.89998 22.1999 8.29998 22.4999 7.29998L22.9999 5.59998C22.8999 5.59998 22.7999 5.59998 22.5999 5.49998C21.8999 5.29998 21.3999 4.39998 21.5999 3.59998Z" fill="#D2D2D1"/>
<path d="M15.7999 24.2C19.6999 23.5 20.0999 12.6 20.0999 12.6L19.1999 12.3L18.2999 12C18.2999 12.1 12.7999 21.5 15.7999 24.2Z" fill="#C68141"/>
<path d="M19.6 12.7L18.5 12.4C18.2 12.3 18 12 18.1 11.6L19 8.79998C19.1 8.49998 19.4 8.29998 19.8 8.39998L20.9 8.69998C21.2 8.79998 21.4 9.09998 21.3 9.49998L20.5 12.3C20.3 12.6 20 12.8 19.6 12.7Z" fill="#B66943"/>
<mask id="mask0_176_446" style="mask-type:luminance" maskUnits="userSpaceOnUse" x="18" y="2" width="5" height="7">
<path d="M21.5999 3.59998C21.6999 3.19998 21.9999 2.89998 22.2999 2.69998C22.1999 2.59998 22.0999 2.59998 21.8999 2.49998C20.8999 2.19998 19.7999 2.79998 19.4999 3.79998L18.7999 6.19998C18.4999 7.19998 19.0999 8.29998 20.0999 8.59998C21.0999 8.89998 22.1999 8.29998 22.4999 7.29998L22.9999 5.59998C22.8999 5.59998 22.7999 5.59998 22.5999 5.49998C21.8999 5.29998 21.3999 4.39998 21.5999 3.59998Z" fill="white"/>
</mask>
<g mask="url(#mask0_176_446)">
<path d="M19.0999 2.89999C19.0999 3.49999 19.4999 4.29999 19.9999 4.39999C20.1999 4.39999 20.3999 4.29999 20.5999 4.29999C20.8999 4.39999 20.8999 4.59999 21.0999 4.79999C21.4999 5.09999 22.1999 4.79999 22.3999 4.69999C23.3999 4.29999 24.5999 2.79999 24.1999 1.69999C23.6999 0.399991 21.3999 0.0999906 20.0999 0.999991C19.5999 1.39999 18.9999 2.09999 19.0999 2.89999Z" fill="#ED2324"/>
</g>
</svg>
