<svg width="25" height="25" viewBox="0 0 25 25" fill="none" xmlns="http://www.w3.org/2000/svg">
<path d="M2.40005 16.7C2.40005 16.7 0.100048 9.55001 6.55005 4.75001C13 -0.0499945 15.5 2.75001 15.5 2.75001C15.5 2.75001 17.55 4.35001 15.45 7.25001C14.5 8.55001 13.65 10.3 15.1 11.35C15.1 11.35 15.95 11.9 18.85 10.85C18.85 10.85 22.55 9.55001 22.9 14.55C22.9 14.55 22.85 21.1 14.25 23.35C14.2 23.25 5.30005 25.5 2.40005 16.7Z" fill="#D3A163"/>
<path d="M8.4 21.6C9.58741 21.6 10.55 20.6374 10.55 19.45C10.55 18.2626 9.58741 17.3 8.4 17.3C7.21259 17.3 6.25 18.2626 6.25 19.45C6.25 20.6374 7.21259 21.6 8.4 21.6Z" fill="#4EB748"/>
<path d="M14.35 21.8C15.3993 21.8 16.25 20.9493 16.25 19.9C16.25 18.8507 15.3993 18 14.35 18C13.3006 18 12.45 18.8507 12.45 19.9C12.45 20.9493 13.3006 21.8 14.35 21.8Z" fill="#9F51A0"/>
<path d="M5.30005 16.25C6.40462 16.25 7.30005 15.3546 7.30005 14.25C7.30005 13.1454 6.40462 12.25 5.30005 12.25C4.19548 12.25 3.30005 13.1454 3.30005 14.25C3.30005 15.3546 4.19548 16.25 5.30005 16.25Z" fill="#4571B7"/>
<path d="M7.6499 10.7C8.75447 10.7 9.6499 9.80458 9.6499 8.70001C9.6499 7.59544 8.75447 6.70001 7.6499 6.70001C6.54533 6.70001 5.6499 7.59544 5.6499 8.70001C5.6499 9.80458 6.54533 10.7 7.6499 10.7Z" fill="#FED110"/>
<path d="M12.5001 7.25001C13.5494 7.25001 14.4001 6.39935 14.4001 5.35001C14.4001 4.30067 13.5494 3.45001 12.5001 3.45001C11.4508 3.45001 10.6001 4.30067 10.6001 5.35001C10.6001 6.39935 11.4508 7.25001 12.5001 7.25001Z" fill="#ED2324"/>
<path d="M21.75 5.04999C21.85 4.69999 22.1 4.39999 22.4 4.19999C22.3 4.14999 22.15 4.09999 22.05 4.04999C21.1 3.74999 20.05 4.34999 19.8 5.29999L19.15 7.54999C18.85 8.49999 19.45 9.54999 20.4 9.79999C21.35 10.1 22.4 9.49999 22.65 8.54999L23.1 6.89999C23 6.89999 22.85 6.89999 22.75 6.84999C21.95 6.64999 21.5 5.79999 21.75 5.04999Z" fill="#D2D2D1"/>
<path d="M16.2 24.5C19.9 23.9 20.3 13.55 20.3 13.55L19.45 13.3L18.6 13.05C18.55 13.05 13.4 22 16.2 24.5Z" fill="#895A24"/>
<path d="M19.8498 13.65L18.8498 13.35C18.5498 13.25 18.3498 12.95 18.4498 12.65L19.1998 9.99999C19.2998 9.69999 19.5998 9.49999 19.8998 9.59999L20.8998 9.89999C21.1998 9.99999 21.3998 10.3 21.2998 10.6L20.5498 13.25C20.4998 13.55 20.1498 13.7 19.8498 13.65Z" fill="#66422D"/>
<mask id="mask0_164_217" style="mask-type:luminance" maskUnits="userSpaceOnUse" x="19" y="3" width="5" height="7">
<path d="M21.75 5.04999C21.85 4.69999 22.1 4.39999 22.4 4.19999C22.3 4.14999 22.15 4.09999 22.05 4.04999C21.1 3.74999 20.05 4.34999 19.8 5.29999L19.15 7.54999C18.85 8.49999 19.45 9.54999 20.4 9.79999C21.35 10.1 22.4 9.49999 22.65 8.54999L23.1 6.89999C23 6.89999 22.85 6.89999 22.75 6.84999C21.95 6.64999 21.5 5.79999 21.75 5.04999Z" fill="white"/>
</mask>
<g mask="url(#mask0_164_217)">
<path d="M19.3501 4.39999C19.4001 4.99999 19.7501 5.74999 20.2001 5.79999C20.4001 5.79999 20.5501 5.64999 20.8001 5.74999C21.0501 5.84999 21.1001 6.04999 21.3001 6.19999C21.7001 6.49999 22.3501 6.19999 22.5501 6.09999C23.5501 5.69999 24.6001 4.29999 24.2501 3.29999C23.8001 2.09999 21.6001 1.74999 20.3501 2.59999C19.8501 2.89999 19.3001 3.59999 19.3501 4.39999Z" fill="#ED2324"/>
</g>
</svg>
