<svg width="45" height="48" viewBox="0 0 45 48" fill="none" xmlns="http://www.w3.org/2000/svg">
<path d="M21.3 33C20.3 32.7 19.2 32.8 18.2 33.2C16.2 34.2 15.4 36.6 16.4 38.6C17.1 40 18.5 40.8 20 40.8C20.6 40.8 21.2 40.7 21.8 40.4C22.8 39.9 23.5 39.1 23.8 38.1C24.1 37.1 24 36 23.6 35C23.1 34 22.3 33.3 21.3 33ZM22 37.4C21.8 37.9 21.5 38.3 21 38.6C20.5 38.8 20 38.9 19.4 38.7C18.9 38.5 18.5 38.2 18.2 37.7C17.7 36.7 18.1 35.5 19.1 35C19.4 34.9 19.7 34.8 20 34.8C20.2 34.8 20.4 34.8 20.6 34.9C21.1 35.1 21.5 35.4 21.8 35.9C22.1 36.3 22.1 36.9 22 37.4Z" fill="#231F20"/>
<path d="M14.3 27.5C13.2 25.3 10.5 24.5 8.39996 25.6C7.39996 26.1 6.59996 27 6.19996 28.2C5.79996 29.3 5.89996 30.5 6.49996 31.6C6.99996 32.6 7.89996 33.4 9.09996 33.8C9.49996 33.9 9.99996 34 10.5 34C11.2 34 11.9 33.8 12.5 33.5C13.5 33 14.3 32.1 14.7 30.9C14.9 29.8 14.9 28.6 14.3 27.5ZM11.5 31.7C10.3 32.3 8.79996 31.8 8.19996 30.6C7.59996 29.4 8.09996 27.9 9.29996 27.3C9.69996 27.1 9.99996 27 10.4 27C11.3 27 12.1 27.5 12.6 28.3C13.2 29.6 12.7 31.1 11.5 31.7Z" fill="#231F20"/>
<path d="M15.7 14.9C15.2 13.9 14.3 13.1 13.1 12.7C12 12.3 10.8 12.4 9.70001 13C8.60001 13.6 7.90001 14.4 7.50001 15.6C7.10001 16.7 7.20001 17.9 7.80001 19C8.30001 20 9.20001 20.8 10.4 21.2C10.8 21.3 11.3 21.4 11.8 21.4C12.5 21.4 13.2 21.2 13.8 20.9C14.8 20.4 15.6 19.5 16 18.3C16.4 17.1 16.3 15.9 15.7 14.9ZM12.9 19C11.7 19.6 10.2 19.1 9.60001 17.9C9.00001 16.7 9.50001 15.2 10.7 14.6C11.1 14.4 11.4 14.3 11.8 14.3C12.7 14.3 13.5 14.8 14 15.6C14.6 17 14.1 18.4 12.9 19Z" fill="#231F20"/>
<path d="M24.4 7.5C23.4 5.6 21 4.8 19.1 5.8C18.2 6.3 17.5 7.1 17.1 8.1C16.8 9.1 16.9 10.2 17.3 11.1C17.8 12 18.6 12.7 19.6 13.1C20 13.2 20.4 13.3 20.8 13.3C21.4 13.3 22 13.2 22.6 12.9C24.6 11.9 25.4 9.5 24.4 7.5ZM21.8 11.1C20.8 11.6 19.7 11.2 19.2 10.2C19 9.7 18.9 9.2 19.1 8.7C19.3 8.2 19.6 7.8 20.1 7.6C20.4 7.5 20.7 7.4 21 7.4C21.7 7.4 22.4 7.8 22.8 8.5C23.1 9.4 22.7 10.6 21.8 11.1Z" fill="#231F20"/>
<path d="M41.4 16.9C42.5 16.3 43.4 15.3 43.8 14L44.7 10.7C44.8 10.4 44.7 10.1 44.6 9.8C44.4 9.6 44.1 9.4 43.8 9.4C43.6 9.4 43.5 9.4 43.3 9.3C42.8 9.2 42.4 8.8 42.1 8.4C41.9 8 41.9 7.5 42 7C42.2 6.4 42.6 6.1 42.9 5.9C43.2 5.7 43.4 5.4 43.4 5C43.4 4.6 43.2 4.3 42.9 4.2C42.6 4 42.3 3.9 42 3.8C40.8 3.5 39.5 3.6 38.5 4.2C37.4 4.8 36.6 5.8 36.3 7L35 11.5C34.6 12.8 34.9 14.1 35.5 15.2C35.5 15.3 35.4 15.3 35.4 15.4L34.6 18.2C30.1 19.8 28.5 19.3 28.2 19.2C27.6 18.7 27.2 18.2 27.1 17.6C26.9 16.3 27.6 14.6 29.2 12.5C33.6 6.4 29.8 2.7 29.2 2.2C28.6 1.6 22.9 -3.5 9.89998 6.2C-3.40002 16.2 1.19998 31.2 1.19998 31.4C5.19998 43.7 15 45.8 21 45.8C24 45.8 26.1 45.3 26.2 45.3C26.7 45.2 27.2 45 27.6 44.9C27.9 45.8 28.4 46.6 29.1 47.2C29.3 47.4 29.5 47.5 29.8 47.5C29.9 47.5 29.9 47.5 30 47.5C32.8 47 34.7 44.3 36.1 41C44.2 35.1 44.4 26.9 44.4 26.7C44.1 23.1 43 20.6 41 19.2L41.5 17.5C41.4 17.1 41.4 17 41.4 16.9ZM36 19.8L36.6 17.7L36.8 16.8L38 17.1L39.2 17.4L39.1 18L38.5 19.9L37.6 23.2L36.4 22.9L35.2 22.6L36 19.8ZM27.1 42.8C26.6 42.9 26.1 43.1 25.6 43.2C24.9 43.4 8.49998 47.3 2.99998 30.7C2.89998 30.5 -1.20002 16.8 11 7.7C22.9 -1.2 27.6 3.5 27.7 3.5L27.8 3.6C28.1 3.9 31 6.4 27.5 11.3C25.6 13.9 24.8 16.1 25.1 17.9C25.3 19.1 25.9 20.1 27.1 20.9C27.4 21.1 29.1 21.9 33.8 20.5L33.1 22.9C33 23.1 33.1 23.3 33.2 23.6C31.4 26.6 26.4 36.4 27.1 42.8ZM34.2 39.5C33.8 40.7 33.3 41.7 32.7 42.6C31.9 43.9 31 44.8 29.9 45.1C29.6 44.8 29.5 44.4 29.3 44C29.1 43.4 28.9 42.8 28.9 42C28.6 36.9 32.5 28.5 34.8 24.4L35.8 24.7L36.8 25C36.6 28.7 35.9 34.9 34.2 39.5ZM42.2 26.5C42.2 26.8 42 32.4 37 37.3C38.3 32.6 38.7 27.5 38.8 25.3C39 25.2 39.1 25 39.2 24.8L40.3 21.1C41.4 22.1 42.1 24 42.2 26.5ZM38.6 15.3C37.2 14.9 36.4 13.4 36.8 12L38 7.5C38.2 6.8 38.6 6.2 39.3 5.9C39.7 5.7 40 5.6 40.4 5.6C40.2 5.9 40.1 6.2 40 6.4C39.7 7.4 39.8 8.5 40.3 9.4C40.8 10.2 41.5 10.9 42.4 11.2L41.8 13.4C41.5 14.9 40 15.7 38.6 15.3Z" fill="#231F20"/>
</svg>
