<svg width="24" height="24" viewBox="0 0 24 24" fill="none" xmlns="http://www.w3.org/2000/svg">
<g clip-path="url(#clip0_109_10)">
<path d="M12.7 17.5C12.1 16.4 10.8 16 9.69998 16.5C9.19998 16.8 8.79998 17.2 8.59998 17.8C8.39998 18.4 8.49998 19 8.69998 19.5C8.99998 20 9.39998 20.4 9.99998 20.6C10.2 20.7 10.5 20.7 10.7 20.7C11 20.7 11.4 20.6 11.7 20.5C12.8 19.9 13.3 18.6 12.7 17.5ZM11.1 19.2C10.9 19.3 10.7 19.3 10.5 19.2C10.3 19.1 10.1 19 9.99998 18.8C9.89998 18.6 9.89998 18.4 9.99998 18.2C10.1 18 10.2 17.8 10.4 17.7C10.5 17.6 10.6 17.6 10.8 17.6C11.1 17.6 11.4 17.8 11.5 18C11.7 18.6 11.5 19 11.1 19.2Z" fill="#3D3D3D"/>
<path d="M8.10008 13.8C7.50008 12.6 6.00008 12.1 4.90008 12.7C4.30008 13 3.90008 13.5 3.70008 14.1C3.50008 14.7 3.60008 15.4 3.80008 15.9C4.00008 16.4 4.60008 16.9 5.20008 17.1C5.40008 17.2 5.70008 17.2 5.90008 17.2C6.30008 17.2 6.60008 17.1 7.00008 16.9C8.20008 16.4 8.70008 15 8.10008 13.8ZM6.40008 15.8C6.20008 15.9 5.90008 15.9 5.60008 15.9C5.30008 15.8 5.10008 15.6 5.00008 15.4C4.90008 15.2 4.90008 14.9 4.90008 14.6C5.00008 14.3 5.20008 14.1 5.40008 14C5.50008 13.9 5.70008 13.9 5.90008 13.9C6.30008 13.9 6.60008 14.1 6.80008 14.4C7.10008 14.9 6.90008 15.5 6.40008 15.8Z" fill="#3D3D3D"/>
<path d="M8.80009 7.5C8.20009 6.3 6.70009 5.8 5.50009 6.4C4.40009 7 3.90009 8.5 4.50009 9.7C4.80009 10.3 5.30009 10.7 5.90009 10.9C6.10009 10.9 6.40009 11 6.60009 11C7.00009 11 7.30009 10.9 7.70009 10.7C8.90009 10.1 9.40009 8.7 8.80009 7.5ZM7.60009 8.9C7.50009 9.1 7.30009 9.3 7.10009 9.5C6.60009 9.7 6.00009 9.5 5.70009 9C5.50009 8.5 5.70009 7.9 6.20009 7.7C6.30009 7.6 6.50009 7.6 6.70009 7.6C7.10009 7.6 7.40009 7.8 7.60009 8.1C7.70009 8.4 7.70009 8.6 7.60009 8.9Z" fill="#3D3D3D"/>
<path d="M10.5 6.9C10.7 6.9 10.9 7 11.2 7C11.5 7 11.9 6.9 12.2 6.8C12.7 6.5 13.1 6.1 13.3 5.5C13.5 4.9 13.4 4.4 13.2 3.8C12.7 2.7 11.3 2.3 10.3 2.8C9.19999 3.3 8.79999 4.7 9.29999 5.7C9.49999 6.3 9.89999 6.7 10.5 6.9ZM10.8 4.1C10.9 4 11 4 11.2 4C11.5 4 11.8 4.2 11.9 4.4C12 4.6 12 4.8 11.9 5C11.8 5.2 11.7 5.4 11.5 5.5C11.3 5.6 11.1 5.6 10.9 5.5C10.7 5.4 10.5 5.3 10.4 5.1C10.3 4.8 10.4 4.3 10.8 4.1Z" fill="#3D3D3D"/>
<path d="M21.6 8.7C22.2 8.4 22.6 7.9 22.8 7.2L23.3 5.6C23.4 5.4 23.3 5.2 23.2 5C23.1 4.8 22.9 4.7 22.7 4.7C22.6 4.7 22.6 4.7 22.5 4.7C22.3 4.6 22.1 4.5 22 4.3C21.9 4.1 21.9 3.9 21.9 3.7C22 3.5 22.1 3.3 22.2 3.3C22.4 3.2 22.5 2.9 22.5 2.7C22.5 2.5 22.4 2.2 22.1 2.1C21.9 2 21.8 1.9 21.6 1.9C21 1.7 20.3 1.8 19.7 2.1C19.1 2.4 18.7 3 18.5 3.6L18 5.8C17.8 6.5 17.9 7.2 18.2 7.7L17.8 9C15.8 9.7 15 9.5 14.9 9.5C14.7 9.3 14.5 9.1 14.5 8.8C14.4 8.4 14.6 7.7 15.5 6.4C17.8 3.3 15.9 1.3 15.5 0.999999C15.1 0.599999 12.2 -1.9 5.6 3C-1.2 8.1 1.2 15.7 1.2 15.8C3.3 22.1 8.2 23.1 11.3 23.1C12.8 23.1 13.9 22.8 13.9 22.8C14.1 22.8 14.3 22.7 14.4 22.6C14.6 23 14.8 23.4 15.1 23.6C15.2 23.7 15.4 23.8 15.6 23.8H15.7C17.2 23.6 18.2 22.2 18.8 20.5C22.9 17.5 23 13.3 23 13.3C22.9 11.5 22.3 10.2 21.4 9.5L21.6 8.7ZM19.3 6.2L19.9 4C20 3.7 20.2 3.5 20.4 3.3C20.4 3.3 20.5 3.3 20.5 3.2V3.3C20.3 3.9 20.4 4.4 20.7 5C20.9 5.4 21.3 5.7 21.7 5.9L21.4 6.8C21.2 7.4 20.6 7.7 20 7.6C19.5 7.4 19.1 6.8 19.3 6.2ZM14.1 21.4C13.9 21.5 13.7 21.5 13.5 21.6C13.2 21.7 5.1 23.6 2.4 15.5C2.3 15.2 0.400002 8.7 6.3 4.2C12.1 -0.100001 14.3 2.1 14.4 2.1L14.5 2.2C14.6 2.2 16 3.4 14.3 5.7C13.3 7.1 12.9 8.2 13.1 9.2C13.2 9.9 13.6 10.4 14.2 10.8C14.4 10.9 15.3 11.3 17.4 10.7L17.2 11.6C17.2 11.7 17.2 11.9 17.2 12C16.2 13.5 13.8 18.1 14.1 21.4ZM17.7 19.7C17.4 20.7 16.9 21.5 16.5 22C16.3 22.2 16.1 22.4 15.9 22.5C15.9 22.4 15.8 22.4 15.8 22.3C15.6 21.9 15.5 21.5 15.5 20.9C15.5 18.6 17 15.1 18.3 12.6L19 12.8C18.8 15 18.4 17.7 17.7 19.7ZM18.6 11.3L18.9 10.3L19.3 8.9L20.1 9.1L19.8 10.3L19.4 11.5L18.6 11.3ZM21.6 13.4C21.6 13.6 21.4 15.9 19.6 18C20.1 15.9 20.3 13.8 20.3 12.8C20.4 12.7 20.5 12.6 20.5 12.5L21 11C21.3 11.6 21.6 12.4 21.6 13.4Z" fill="#3D3D3D"/>
</g>
<defs>
<clipPath id="clip0_109_10">
<rect width="24" height="24" fill="white"/>
</clipPath>
</defs>
</svg>
