<svg width="24" height="24" viewBox="0 0 24 24" fill="none" xmlns="http://www.w3.org/2000/svg">
<path d="M21.1999 5.00002H15.6999V3.10002C15.6999 1.90002 14.6999 0.900024 13.4999 0.900024H10.5999C9.3999 0.900024 8.3999 1.90002 8.3999 3.10002V4.90002H2.7999C2.2999 5.00002 1.8999 5.30002 1.8999 5.80002C1.8999 6.30002 2.2999 6.70002 2.7999 6.70002H4.5999V19.8C4.5999 21.6 5.8999 23.1 7.3999 23.1H16.6999C18.1999 23.1 19.4999 21.6 19.4999 19.8V6.70002H21.2999C21.7999 6.70002 22.1999 6.30002 22.1999 5.80002C22.1999 5.30002 21.6999 5.00002 21.1999 5.00002ZM10.0999 4.90002V3.10002C10.0999 2.80002 10.2999 2.60002 10.5999 2.60002H13.4999C13.7999 2.60002 13.9999 2.80002 13.9999 3.10002V4.90002H10.0999ZM17.6999 19.8C17.6999 20.7 17.1999 21.4 16.5999 21.4H7.3999C6.7999 21.4 6.2999 20.7 6.2999 19.8V6.70002H17.7999V19.8H17.6999Z" fill="#8B8B8B"/>
<path d="M9.9 18.8C10.4 18.8 10.8 18.4 10.8 17.9V10C10.8 9.50004 10.4 9.10004 9.9 9.10004C9.4 9.10004 9 9.50004 9 10V18C9.1 18.4 9.5 18.8 9.9 18.8Z" fill="#8B8B8B"/>
<path d="M14.1998 18.8C14.6998 18.8 15.0998 18.4 15.0998 17.9V10C15.0998 9.50004 14.6998 9.10004 14.1998 9.10004C13.6998 9.10004 13.2998 9.50004 13.2998 10V18C13.2998 18.4 13.6998 18.8 14.1998 18.8Z" fill="#8B8B8B"/>
</svg>
