<svg width="24" height="24" viewBox="0 0 24 24" fill="none" xmlns="http://www.w3.org/2000/svg">
<path d="M11.9999 1.89999C6.3999 1.89999 1.8999 6.39999 1.8999 12C1.8999 17.6 6.3999 22.1 11.9999 22.1C17.5999 22.1 22.0999 17.6 22.0999 12C22.0999 6.39999 17.5999 1.89999 11.9999 1.89999ZM17.0999 14.4C17.7999 15.1 17.7999 16.1 17.0999 16.8C16.7999 17.1 16.2999 17.3 15.8999 17.3C15.4999 17.3 14.9999 17.1 14.6999 16.8L11.9999 14.2L9.2999 16.9C8.9999 17.2 8.4999 17.4 8.0999 17.4C7.6999 17.4 7.1999 17.2 6.8999 16.9C6.1999 16.2 6.1999 15.1 6.8999 14.5L9.5999 11.9L6.8999 9.19999C6.1999 8.49999 6.1999 7.49999 6.8999 6.79999C7.5999 6.09999 8.5999 6.09999 9.2999 6.79999L11.9999 9.39999L14.6999 6.69999C15.3999 5.99999 16.4999 5.99999 17.0999 6.69999C17.7999 7.39999 17.7999 8.49999 17.0999 9.09999L14.3999 11.7L17.0999 14.4Z" fill="#8B8B8B"/>
</svg>
