<svg width="45" height="48" viewBox="0 0 45 48" fill="none" xmlns="http://www.w3.org/2000/svg">
<path d="M12.9 23.4V27.5C12.9 28 12.5 28.5 11.9 28.5H8.20002C7.70002 28.5 7.20002 28.1 7.20002 27.5V23.4C7.20002 22.9 7.60002 22.4 8.20002 22.4H11.9C12.5 22.4 12.9 22.8 12.9 23.4ZM20.9 22.4H17.2C16.7 22.4 16.2 22.8 16.2 23.4V27.5C16.2 28 16.6 28.5 17.2 28.5H20.9C21.4 28.5 21.9 28.1 21.9 27.5V23.4C21.9 22.8 21.5 22.4 20.9 22.4ZM11.9 13.6H8.20002C7.70002 13.6 7.20002 14 7.20002 14.6V18.7C7.20002 19.2 7.60002 19.7 8.20002 19.7H11.9C12.4 19.7 12.9 19.3 12.9 18.7V14.6C12.9 14.1 12.5 13.6 11.9 13.6ZM20.9 13.6H17.2C16.7 13.6 16.2 14 16.2 14.6V18.7C16.2 19.2 16.6 19.7 17.2 19.7H20.9C21.4 19.7 21.9 19.3 21.9 18.7V14.6C21.9 14.1 21.5 13.6 20.9 13.6ZM44.4 26.2V44C44.4 45.8 42.9 47.3 41 47.3H29.6C28.8 47.3 28.2 47 27.6 46.6C27 47 26.4 47.3 25.6 47.3H4.30002C2.50002 47.3 0.900024 45.8 0.900024 44V12.6C0.900024 10.9 2.10002 9.2 3.70002 8.7L25.2 1.1C26.1 0.8 27 0.9 27.8 1.4C28.5 1.9 28.9 2.7 28.9 3.7V17.9C29.2 17.9 29.6 17.9 29.9 18.1L41.6 22.3C43.2 22.8 44.4 24.5 44.4 26.2ZM17.8 36.8C17.8 35.2 16.5 33.9 14.9 33.9C13.3 33.9 12 35.2 12 36.8V44.6H17.7V36.8H17.8ZM26.2 3.7C26.2 3.6 26.2 3.6 26.2 3.7L4.60002 11.3C4.10002 11.5 3.60002 12.2 3.60002 12.7V44C3.60002 44.4 3.90002 44.7 4.20002 44.7H9.30002V36.9C9.30002 33.8 11.8 31.3 14.9 31.3C18 31.3 20.5 33.8 20.5 36.9V44.7H25.6C26 44.7 26.2 44.4 26.2 44V20.7V3.7ZM41.7 26.2C41.7 25.7 41.2 25 40.7 24.8L29 20.6H28.9C28.9 20.6 28.9 20.6 28.9 20.7V44C28.9 44.4 29.2 44.7 29.5 44.7H41C41.4 44.7 41.6 44.4 41.6 44V26.2H41.7Z" fill="url(#paint0_linear_58_398)"/>
<defs>
<linearGradient id="paint0_linear_58_398" x1="22.6799" y1="0.8932" x2="22.6799" y2="47.354" gradientUnits="userSpaceOnUse">
<stop offset="0.1187" stop-color="#005EAD"/>
<stop offset="1" stop-color="#92278F"/>
</linearGradient>
</defs>
</svg>
