<svg width="24" height="24" viewBox="0 0 24 24" fill="none" xmlns="http://www.w3.org/2000/svg">
<path d="M7.1001 11.6V13.6C7.1001 13.9 6.9001 14.1 6.6001 14.1H4.8001C4.5001 14.1 4.3001 13.9 4.3001 13.6V11.6C4.3001 11.3 4.5001 11.1 4.8001 11.1H6.6001C6.9001 11.1 7.1001 11.4 7.1001 11.6ZM11.1001 11.1H9.3001C9.0001 11.1 8.8001 11.3 8.8001 11.6V13.6C8.8001 13.9 9.0001 14.1 9.3001 14.1H11.1001C11.4001 14.1 11.6001 13.9 11.6001 13.6V11.6C11.6001 11.4 11.4001 11.1 11.1001 11.1ZM6.6001 6.80001H4.8001C4.5001 6.80001 4.3001 7.00001 4.3001 7.30001V9.30001C4.3001 9.60001 4.5001 9.80001 4.8001 9.80001H6.6001C6.9001 9.80001 7.1001 9.60001 7.1001 9.30001V7.30001C7.1001 7.00001 6.9001 6.80001 6.6001 6.80001ZM11.1001 6.80001H9.3001C9.0001 6.80001 8.8001 7.00001 8.8001 7.30001V9.30001C8.8001 9.60001 9.0001 9.80001 9.3001 9.80001H11.1001C11.4001 9.80001 11.6001 9.60001 11.6001 9.30001V7.30001C11.6001 7.00001 11.4001 6.80001 11.1001 6.80001ZM22.8001 13V21.9C22.8001 22.8 22.1001 23.6 21.1001 23.6H15.4001C15.0001 23.6 14.7001 23.5 14.4001 23.3C14.1001 23.5 13.8001 23.6 13.4001 23.6H2.8001C1.9001 23.6 1.1001 22.9 1.1001 21.9V6.30001C1.1001 5.50001 1.7001 4.60001 2.5001 4.30001L13.2001 0.500008C13.7001 0.300008 14.1001 0.400008 14.5001 0.600008C14.9001 0.900008 15.1001 1.30001 15.1001 1.80001V8.90001C15.3001 8.90001 15.4001 8.90001 15.6001 9.00001L21.5001 11.1C22.2001 11.3 22.8001 12.2 22.8001 13ZM9.6001 18.3C9.6001 17.5 9.0001 16.9 8.2001 16.9C7.4001 16.9 6.8001 17.5 6.8001 18.3V22.2H9.7001V18.3H9.6001ZM13.8001 1.80001L3.0001 5.60001C2.7001 5.70001 2.5001 6.00001 2.5001 6.30001V21.9C2.5001 22.1 2.6001 22.2 2.8001 22.2H5.3001V18.3C5.3001 16.8 6.5001 15.5 8.1001 15.5C9.7001 15.5 10.9001 16.7 10.9001 18.3V22.2H13.4001C13.6001 22.2 13.7001 22.1 13.7001 21.9V10.3V1.80001H13.8001ZM21.5001 13C21.5001 12.7 21.3001 12.4 21.0001 12.3L15.1001 10.2V21.8C15.1001 22 15.2001 22.1 15.4001 22.1H21.1001C21.3001 22.1 21.4001 22 21.4001 21.8V13H21.5001Z" fill="url(#paint0_linear_96_6)"/>
<defs>
<linearGradient id="paint0_linear_96_6" x1="12.0001" y1="0.420608" x2="12.0001" y2="23.5794" gradientUnits="userSpaceOnUse">
<stop offset="0.1187" stop-color="#005EAD"/>
<stop offset="1" stop-color="#92278F"/>
</linearGradient>
</defs>
</svg>
