<svg width="25" height="25" viewBox="0 0 25 25" fill="none" xmlns="http://www.w3.org/2000/svg">
<path d="M10.0323 4.48652C10.3951 3.561 10.064 2.5656 9.29278 2.26322C8.52151 1.96085 7.60213 2.466 7.23928 3.39152C6.87642 4.31704 7.20751 5.31245 7.97878 5.61482C8.75004 5.9172 9.66942 5.41204 10.0323 4.48652Z" fill="#FCD7CC"/>
<path d="M9.79989 5.09997L14.2999 1.39997C14.8999 0.899975 15.7999 0.999975 16.2999 1.59997C16.7999 2.19997 16.6999 3.09997 16.0999 3.59997L10.5999 7.79997L10.7999 8.99997C10.7999 8.99997 12.3999 8.39997 13.1999 9.19997L21.7999 4.69997C22.4999 4.29997 23.2999 4.59998 23.6999 5.29997C24.0999 5.99997 23.7999 6.79997 23.0999 7.19997L11.4999 14.1L11.0999 23C11.0999 23.8 10.4999 24.4 9.69989 24.4C8.89989 24.4 8.29989 23.8 8.29989 23L8.39989 12L7.19989 10.1C4.99989 9.99997 5.49989 7.09997 5.49989 7.09997L1.59989 2.89997C0.999888 2.29997 1.09989 1.39997 1.69989 0.899975C2.29989 0.399975 3.19989 0.399975 3.69989 0.999975L7.59989 5.39997" fill="#FCD7CC"/>
<mask id="mask0_176_479" style="mask-type:luminance" maskUnits="userSpaceOnUse" x="1" y="0" width="23" height="25">
<path d="M9.79989 5.09997L14.2999 1.39997C14.8999 0.899975 15.7999 0.999975 16.2999 1.59997C16.7999 2.19997 16.6999 3.09997 16.0999 3.59997L10.5999 7.79997L10.7999 8.99997C10.7999 8.99997 12.3999 8.39997 13.1999 9.19997L21.7999 4.69997C22.4999 4.29997 23.2999 4.59998 23.6999 5.29997C24.0999 5.99997 23.7999 6.79997 23.0999 7.19997L11.4999 14.1L11.0999 23C11.0999 23.8 10.4999 24.4 9.69989 24.4C8.89989 24.4 8.29989 23.8 8.29989 23L8.39989 12L7.19989 10.1C4.99989 9.99997 5.49989 7.09997 5.49989 7.09997L1.59989 2.89997C0.999888 2.29997 1.09989 1.39997 1.69989 0.899975C2.29989 0.399975 3.19989 0.399975 3.69989 0.999975L7.59989 5.39997" fill="white"/>
</mask>
<g mask="url(#mask0_176_479)">
<path d="M5.39995 7.29999C5.39995 7.29999 9.79995 7.39999 10.8 7.69999L12 9.59999L7.89995 12.4C7.89995 12.4 4.69995 8.99999 4.69995 8.89999C4.69995 8.79999 5.39995 7.29999 5.39995 7.29999Z" fill="#F187B7"/>
</g>
<path d="M10.4 2.1C10.4 1.8 10.1 1.5 9.79995 1.5C9.49995 1.5 9.19995 1.8 9.19995 2.1C9.19995 2.2 9.19995 2.2 9.19995 2.2C9.09995 2.2 9.09995 2.2 8.99995 2.1C8.99995 2.1 8.59995 2 8.09995 2.1C8.09995 2.2 7.99995 2.3 7.89995 2.4C7.89995 2.4 7.79995 2.4 7.79995 2.5C7.19995 2.9 7.19995 3.5 7.19995 3.5C7.99995 3.5 8.59995 2.9 8.59995 2.9C8.59995 2.9 8.79995 3.9 10.1 4.2C10.1 4.2 10.4 3.3 9.79995 2.6C10.2 2.6 10.4 2.3 10.4 2.1Z" fill="#705D5A"/>
<path d="M7.89995 11.3C7.89995 11.3 9.49995 10.4 10.8 8.79996L17.9 5.39996C17.9 5.39996 20.1 7.79996 17.9 9.99996C17.9 9.99996 18.2 12.7 16 13.4C16 13.4 14.4 16.1 11.4 16.2C11.4 16.2 9.79995 18 7.19995 17.8L7.89995 11.3Z" fill="#F187B7"/>
</svg>
