<svg width="24" height="24" viewBox="0 0 24 24" fill="none" xmlns="http://www.w3.org/2000/svg">
<g clip-path="url(#clip0_109_2)">
<path d="M23.1 4.5C22.8 4 22.4 3.7 21.9 3.5C21.4 3.3 20.7999 3.4 20.4 3.6L17.7999 5C17.6999 4.9 17.6 4.8 17.6 4.7C17.4 4.5 17.0999 4.4 16.7999 4.5L11.8 6.9L15.8 3.8C16.2 3.5 16.5 3 16.5 2.4C16.6 1.9 16.4 1.3 16 0.900002C15.3 1.54972e-06 14 -0.0999984 13.2 0.600002L10.5 2.8C10.4 2.1 9.89995 1.5 9.29995 1.2C8.19995 1.1 6.89995 1.7 6.39995 3L4.19995 0.600002C3.79995 0.200002 3.29995 -0.0999985 2.79995 -0.0999985C2.29995 -0.0999985 1.69995 0.100002 1.29995 0.400002C0.899951 0.800002 0.699951 1.3 0.699951 1.8C0.699951 2.3 0.899951 2.9 1.19995 3.3L4.69995 7.2C4.59995 7.8 4.69995 8.9 5.29995 9.6C5.59995 10 5.99995 10.3 6.59995 10.4L6.99995 11L6.39995 16.9C6.39995 17.3 6.59995 17.6 6.99995 17.7C7.09995 17.7 7.29995 17.7 7.39995 17.7V21.9C7.39995 22.4 7.59995 22.9 7.99995 23.3C8.39995 23.7 8.89995 23.9 9.39995 23.9C10.5 23.9 11.4 23 11.4 21.9L11.6 16.1C13.9 15.7 15.3 14 15.7 13.4C17.3 12.7 17.7 11.1 17.7 10L22.2 7.3C22.7 7 23 6.6 23.2 6.1C23.4 5.5 23.4 5 23.1 4.5ZM7.69995 3.5C7.89995 3.1 8.19995 2.8 8.59995 2.8C8.69995 2.8 8.69995 2.8 8.79995 2.8C9.09995 3 9.29995 3.5 9.09995 4C8.89995 4.5 8.39995 4.8 7.99995 4.7C7.79995 4.6 7.69995 4.4 7.69995 4.3C7.59995 4 7.59995 3.8 7.69995 3.5ZM6.39995 8.7C5.99995 8.2 6.09995 7.3 6.09995 7C6.09995 6.8 6.09995 6.6 5.89995 6.4L2.19995 2.3C2.09995 2.2 2.09995 2.1 2.09995 1.9C2.09995 1.7 2.19995 1.6 2.29995 1.5C2.39995 1.4 2.59995 1.3 2.69995 1.3C2.89995 1.3 2.99995 1.4 3.09995 1.5L6.79995 5.6C6.89995 5.7 6.99995 5.8 7.09995 5.8C7.19995 5.9 7.29995 6 7.49995 6C7.69995 6.1 7.99995 6.1 8.19995 6.1C8.79995 6.1 9.29995 5.9 9.69995 5.4C9.69995 5.4 9.79995 5.4 9.79995 5.3L14.1 1.8C14.4 1.7 14.8 1.7 15 2C15.1 2.1 15.2 2.3 15.1 2.4C15.1 2.6 15 2.7 14.9 2.8L9.79995 6.7C9.49995 6.9 9.39995 7.2 9.49995 7.4L9.59995 8.2C8.99995 8.9 8.29995 9.4 7.89995 9.8L7.59995 9.3C7.49995 9.1 7.29995 9 6.99995 9C6.59995 9 6.39995 8.8 6.39995 8.7ZM9.99995 21.8C9.99995 22.1 9.69995 22.4 9.39995 22.4C9.19995 22.4 9.09995 22.3 8.99995 22.2C8.89995 22.1 8.79995 21.9 8.79995 21.8V17.5C9.29995 17.4 9.79995 17.2 10.2 16.9L9.99995 21.8ZM16.6 9C16.4 9.2 16.3 9.4 16.3 9.6C16.3 9.6 16.4 10.2 16.2 10.9C16 11.4 15.7 11.9 15 12.1C14.8 12.2 14.7 12.3 14.6 12.4C14.6 12.4 13.6 14.2 11.6 14.6C11.4 14.7 11.1 14.7 10.8 14.7C10.6 14.7 10.4 14.8 10.3 14.9C10.3 14.9 10.2 15 10.1 15.1C9.99995 15.3 9.49995 15.7 8.79995 16C8.49995 16.1 8.19995 16.2 7.79995 16.2L8.29995 11.2C8.39995 11.1 8.49995 11 8.59995 11C9.09995 10.6 9.99995 10 10.8 9.1L16.7999 6.2C16.9 6.4 17.1 6.7 17.2 7C17.4 7.5 17.3 8.2 16.6 9ZM21.9 5.6C21.9 5.8 21.7 5.9 21.6 6L18.7 7.7C18.7 7.2 18.7 6.7 18.5 6.3L21 4.9C21.1 4.8 21.2999 4.8 21.5 4.9C21.7 4.9 21.7999 5.1 21.9 5.2C21.9 5.3 21.9 5.5 21.9 5.6Z" fill="#3D3D3D"/>
</g>
<defs>
<clipPath id="clip0_109_2">
<rect width="24" height="24" fill="white"/>
</clipPath>
</defs>
</svg>
