<svg width="46" height="48" viewBox="0 0 46 48" fill="none" xmlns="http://www.w3.org/2000/svg">
<path d="M45 9.3C44.1 7.5 41.8 6.8 40.1 7.8L34.6 10.7C34.4 10.4 34.1 10.1 33.9 9.8C33.6 9.5 33.1 9.4 32.8 9.6L20.4 15.5L20.3 15.1L30.3 7.5C31.9 6.2 32.1 3.9 30.8 2.4C29.5 0.8 27.2 0.6 25.7 1.9L19.5 7C19.4 5.4 18.6 3.9 17.1 3.4C16.1 3 15 3.1 14 3.6C13 4.1 12.3 5 11.8 6.1C11.7 6.4 11.6 6.6 11.6 6.9L6.60004 1.4C6.00004 0.6 5.10003 0.2 4.10003 0.0999997C3.10003 -3.05474e-07 2.20003 0.4 1.50003 1C3.48091e-05 2.4 -0.0999651 4.8 1.20003 6.3L8.40003 14.3C8.30003 15.3 8.20004 17.6 9.50004 19.1C10.1 19.9 11 20.4 12.1 20.6L13 22L11.8 34.1C11.7 34.6 12.1 35.1 12.7 35.2C13.1 35.2 13.4 35.3 13.8 35.3C13.9 35.3 13.9 35.3 14 35.3L13.9 44.2C13.9 45.2 14.3 46.1 15 46.8C15.7 47.5 16.6 47.9 17.6 47.9C18.6 47.9 19.5 47.5 20.2 46.8C20.9 46.1 21.3 45.2 21.3 44.3L21.8 32.2C26.7 31.6 29.5 27.9 30.3 26.7C33.5 25.4 34.3 22 34.3 19.9L43.6 14.4C45.3 13.3 46 11.1 45 9.3ZM13.7 6.8C14 6.2 14.4 5.6 14.9 5.3C15.2 5.1 15.5 5.1 15.8 5.1C16 5.1 16.2 5.1 16.4 5.2C17.4 5.6 17.8 6.9 17.3 8.2C16.8 9.5 15.6 10.2 14.6 9.8C13.6 9.5 13.2 8.1 13.7 6.8ZM13.5 19C13.3 18.7 13 18.5 12.7 18.5C11.9 18.5 11.4 18.2 11 17.7C10.2 16.6 10.3 14.7 10.4 14C10.5 13.7 10.4 13.4 10.2 13.2L2.70003 4.9C2.10003 4.2 2.10003 3.2 2.80003 2.6C3.10003 2.3 3.60003 2.1 4.00003 2.1C4.40003 2.1 4.90003 2.3 5.20003 2.6L12.7 10.9C12.8 11 13 11.1 13.1 11.2C13.3 11.4 13.6 11.5 13.9 11.6C14.3 11.8 14.7 11.8 15.2 11.8C16.2 11.8 17.3 11.4 18.1 10.6C18.2 10.6 18.3 10.5 18.4 10.5L27.1 3.3C27.8 2.7 28.9 2.8 29.5 3.5C30.1 4.2 30 5.3 29.3 5.8L18.8 13.7C18.5 13.9 18.4 14.3 18.4 14.7L18.7 16.5C17.2 18.2 15.5 19.5 14.5 20.1L13.5 19ZM19.2 44.2C19.2 44.6 19 45.1 18.7 45.4C18.4 45.7 18 45.9 17.5 45.9C17.1 45.9 16.6 45.7 16.3 45.4C16 45.1 15.8 44.7 15.8 44.2L15.9 35C17.5 34.7 18.7 34 19.6 33.4L19.2 44.2ZM32.5 18.4C32.5 18.5 32.5 18.5 32.5 18.4C32.2 18.7 32.1 19 32.1 19.3C32.1 19.4 32.2 20.1 32 21C31.8 22.4 31.2 24.2 29.1 24.9C28.9 25 28.7 25.1 28.5 25.3C28.5 25.3 26.1 29.4 21.6 30.1C21.3 30.2 20.9 30.2 20.5 30.2C20.2 30.2 20 30.3 19.8 30.5C19.8 30.5 19.7 30.6 19.6 30.7C19.1 31.2 17.8 32.3 15.8 32.9C15.2 33.1 14.5 33.2 13.8 33.2C13.8 33.2 13.8 33.2 13.7 33.2L13.8 32.5L14.8 22.2C14.9 22.1 15.1 22 15.2 21.9C16.3 21.2 18.2 19.8 19.9 17.7C19.9 17.7 19.9 17.7 20 17.6L23.7 15.8L29.3 13.1L32.7 11.5C33 11.9 33.3 12.4 33.6 13.1C34.3 14.8 34.3 16.6 32.5 18.4ZM43.4 11.5C43.3 11.9 43 12.3 42.5 12.5L35.9 16.4C36.2 15 36 13.6 35.5 12.4L41 9.5C41.8 9.1 42.8 9.4 43.3 10.2C43.5 10.6 43.5 11.1 43.4 11.5Z" fill="#010101"/>
</svg>
