<svg width="25" height="25" viewBox="0 0 25 25" fill="none" xmlns="http://www.w3.org/2000/svg">
<g clip-path="url(#clip0_164_201)">
<path d="M9.96616 4.13262C10.3492 3.15568 9.99274 2.10225 9.17006 1.77972C8.34737 1.45719 7.36997 1.98768 6.98696 2.96462C6.60395 3.94156 6.96037 4.99499 7.78306 5.31752C8.60574 5.64005 9.58315 5.10956 9.96616 4.13262Z" fill="#FCD7CC"/>
<path d="M9.60007 4.79999L14.3501 0.899989C14.9501 0.399989 15.9001 0.449989 16.4001 1.09999C16.9001 1.69999 16.8501 2.64999 16.2001 3.14999L10.4501 7.49999L10.7001 8.74999C10.7001 8.74999 12.3501 8.14999 13.2001 8.89999L22.2001 4.14999C22.9001 3.74999 23.8001 4.04999 24.1501 4.74999C24.5501 5.44999 24.2501 6.34999 23.5501 6.69999L11.4501 13.9L11.0501 23.6C11.0501 24.4 10.4001 25.05 9.60007 25.05C8.80007 25.05 8.15007 24.4 8.15007 23.6L8.20007 12.15L6.95007 10.15C4.60007 10.05 5.20007 7.04999 5.20007 7.04999L1.05007 2.44999C0.500075 1.84999 0.550075 0.949989 1.15007 0.399989C1.75007 -0.150011 2.65007 -0.100011 3.20007 0.499989L7.30008 5.04999" fill="#FCD7CC"/>
<path d="M7.65 11.3C7.65 11.3 9.3 10.4 10.7 8.75001L18.1 5.20001C18.1 5.20001 20.45 7.70001 18.1 9.95001C18.1 9.95001 18.4 12.8 16.15 13.55C16.15 13.55 14.5 16.4 11.35 16.5C11.35 16.5 9.7 18.45 7 18.15L7.65 11.3Z" fill="#F187B7"/>
<mask id="mask0_164_201" style="mask-type:luminance" maskUnits="userSpaceOnUse" x="0" y="0" width="25" height="26">
<path d="M9.60007 4.79999L14.3501 0.899989C14.9501 0.399989 15.9001 0.449989 16.4001 1.09999C16.9001 1.69999 16.8501 2.64999 16.2001 3.14999L10.4501 7.49999L10.7001 8.74999C10.7001 8.74999 12.3501 8.14999 13.2001 8.89999L22.2001 4.14999C22.9001 3.74999 23.8001 4.04999 24.1501 4.74999C24.5501 5.44999 24.2501 6.34999 23.5501 6.69999L11.4501 13.9L11.0501 23.6C11.0501 24.4 10.4001 25.05 9.60007 25.05C8.80007 25.05 8.15007 24.4 8.15007 23.6L8.20007 12.15L6.95007 10.15C4.60007 10.05 5.20007 7.04999 5.20007 7.04999L1.05007 2.44999C0.500075 1.84999 0.550075 0.949989 1.15007 0.399989C1.75007 -0.150011 2.65007 -0.100011 3.20007 0.499989L7.30008 5.04999" fill="white"/>
</mask>
<g mask="url(#mask0_164_201)">
<path d="M5.05015 7.04999C5.05015 7.04999 9.65015 7.14999 10.7501 7.49999L12.0001 9.49999L7.70015 12.45C7.70015 12.45 4.40015 8.89999 4.40015 8.79999C4.40015 8.69999 5.05015 7.04999 5.05015 7.04999Z" fill="#F187B7"/>
</g>
<path d="M10.2999 1.6C10.2999 1.3 9.9999 1 9.6999 1C9.3499 1 9.0999 1.25 9.0999 1.6C9.0999 1.65 9.0999 1.7 9.1499 1.75C9.0999 1.75 9.0499 1.7 8.9999 1.7C8.9999 1.7 8.5499 1.55 8.0499 1.75C7.9499 1.8 7.8499 1.85 7.6999 1.95C7.6499 1.95 7.6499 2 7.5999 2C7.5999 2 7.5499 2 7.5499 2.05C6.9499 2.5 6.8999 3.1 6.8999 3.1C7.7999 3.15 8.4499 2.5 8.4499 2.5C8.4499 2.55 8.6499 3.5 10.0499 3.8C10.0499 3.8 10.3499 2.85 9.7499 2.2C10.0499 2.15 10.2999 1.9 10.2999 1.6Z" fill="#705D5A"/>
</g>
<defs>
<clipPath id="clip0_164_201">
<rect width="25" height="25" fill="white"/>
</clipPath>
</defs>
</svg>
