<?xml version="1.0" encoding="utf-8"?>
<!-- Generator: Adobe Illustrator 28.0.0, SVG Export Plug-In . SVG Version: 6.00 Build 0)  -->
<svg version="1.1" id="Layer_1" xmlns="http://www.w3.org/2000/svg" xmlns:xlink="http://www.w3.org/1999/xlink" x="0px" y="0px"
	 viewBox="0 0 168 168" style="enable-background:new 0 0 168 168;" xml:space="preserve">
<style type="text/css">
	.st0{fill:#5D63AD;}
	.st1{clip-path:url(#SVGID_00000011749608509238143310000009326711645144293513_);}
	.st2{clip-path:url(#SVGID_00000152222962700529299780000010679159693745774756_);}
	.st3{fill:#FBAD2D;}
	.st4{fill:#666766;}
	.st5{fill:#F04C23;}
	.st6{fill:#FCD5C8;}
	.st7{fill:#151515;}
	.st8{fill:none;}
	.st9{fill:#3D3D3D;}
	.st10{fill:none;stroke:#EF4040;stroke-width:2.8;stroke-linecap:round;stroke-linejoin:round;stroke-miterlimit:10;}
	.st11{fill:#3E3E3E;}
	.st12{clip-path:url(#SVGID_00000031195251749014582950000001749597439374772892_);}
	.st13{clip-path:url(#SVGID_00000045579542211476079600000016379919103177141693_);}
	.st14{fill:#020202;}
	.st15{clip-path:url(#SVGID_00000008849291122028730110000003854284172910782345_);}
	.st16{fill:#231F20;}
	.st17{fill:none;stroke:#231F20;stroke-width:2.8;stroke-miterlimit:10;}
	.st18{fill:none;stroke:#231F20;stroke-width:2.8;stroke-linejoin:round;stroke-miterlimit:10;}
	.st19{fill:none;stroke:#010101;stroke-width:2.8;stroke-miterlimit:10;}
	.st20{fill:none;stroke:#010101;stroke-width:5.6693;stroke-linecap:round;stroke-miterlimit:10;}
	.st21{fill:none;stroke:#010101;stroke-width:5.6;stroke-linecap:round;stroke-miterlimit:10;}
	.st22{fill:none;stroke:#010101;stroke-width:2.8;stroke-linecap:round;stroke-miterlimit:10;}
	.st23{fill:none;stroke:#010101;stroke-width:2.8;stroke-linejoin:round;stroke-miterlimit:10;}
	.st24{fill:#010101;}
	.st25{fill:none;stroke:#010101;stroke-width:3.5;stroke-linecap:round;stroke-linejoin:round;stroke-miterlimit:10;}
	.st26{fill:none;stroke:#010101;stroke-width:3.5;stroke-miterlimit:10;}
	.st27{fill:#C0787C;}
	.st28{fill:none;stroke:#000000;stroke-width:3.5;stroke-linecap:round;stroke-miterlimit:10;}
	.st29{fill:none;stroke:#010101;stroke-width:3.5;stroke-miterlimit:9.9994;}
	.st30{fill:none;stroke:#010101;stroke-width:3.5;stroke-linejoin:round;stroke-miterlimit:10;}
	.st31{fill:none;stroke:#010101;stroke-width:3.5;stroke-linecap:round;stroke-miterlimit:10;}
	.st32{fill:none;stroke:#000000;stroke-width:3.5;stroke-miterlimit:10;}
	.st33{fill:#EE2726;}
	.st34{fill:#FFFFFF;stroke:#000000;stroke-width:3.5;stroke-linecap:round;stroke-linejoin:round;stroke-miterlimit:10;}
	.st35{fill:none;stroke:#000000;stroke-width:3.5;stroke-linejoin:round;stroke-miterlimit:10;}
	.st36{fill:#7C7C7C;}
	.st37{fill:none;stroke:#3D3D3D;stroke-width:3.5;stroke-linejoin:round;stroke-miterlimit:10;}
	.st38{fill:#FFFFFF;}
	.st39{fill:#705D5A;}
	.st40{fill:#A4DAD8;}
	.st41{fill:#FCD7CC;}
	.st42{clip-path:url(#SVGID_00000109731764938955031830000012118792811281097910_);fill:#F187B7;}
	.st43{fill:#E8A7CB;}
	.st44{fill:#ECB985;}
	.st45{fill:#4EB748;}
	.st46{fill:#4571B7;}
	.st47{fill:#FED110;}
	.st48{fill:#ED2324;}
	.st49{fill:none;stroke:#010101;stroke-width:4;stroke-linecap:round;stroke-linejoin:round;stroke-miterlimit:10;}
	.st50{fill:#F187B7;}
	.st51{fill:none;stroke:#010101;stroke-width:2;stroke-linecap:round;stroke-linejoin:round;stroke-miterlimit:10;}
	.st52{fill:#EAA0C6;}
	.st53{fill:none;stroke:#010101;stroke-width:3;stroke-linecap:round;stroke-linejoin:round;stroke-miterlimit:10;}
	.st54{fill:#7CC580;}
	.st55{fill:none;stroke:#010101;stroke-width:2.8346;stroke-miterlimit:10;}
	.st56{fill:none;stroke:#010101;stroke-width:2.8346;stroke-linejoin:round;stroke-miterlimit:10;}
	.st57{fill:#4F67B0;}
	.st58{fill:#E98E24;}
	.st59{fill:#FFE0A1;}
	.st60{fill:#E2B86F;}
	.st61{fill:#BE873D;stroke:#BE873D;stroke-width:0.5;stroke-miterlimit:10;}
	.st62{fill:none;stroke:#545554;stroke-width:2;stroke-linecap:round;stroke-miterlimit:10;}
	.st63{fill:none;stroke:#4F67B0;stroke-width:3.5;stroke-linejoin:round;stroke-miterlimit:10;}
	.st64{fill:none;stroke:#4F67B0;stroke-width:3.5;stroke-linecap:round;stroke-linejoin:round;stroke-miterlimit:10;}
	.st65{clip-path:url(#SVGID_00000049205968014472490540000017437479679563071889_);}
	.st66{clip-path:url(#SVGID_00000179624528745430898650000000773831643694479751_);}
	.st67{clip-path:url(#SVGID_00000021079295700642767770000008079115940664428948_);}
	.st68{clip-path:url(#SVGID_00000070107897083374556130000008713764719257664135_);}
	.st69{fill:#9F51A0;}
	.st70{fill:#D2D2D1;}
	.st71{fill:#C68141;}
	.st72{fill:#B66943;}
	.st73{clip-path:url(#SVGID_00000118383397942736202430000007645330744380539265_);fill:#ED2324;}
	.st74{clip-path:url(#SVGID_00000131331157151849472070000001335067302126726558_);}
	.st75{fill:#63C2EE;}
	.st76{fill:#A5DDEF;}
	.st77{fill:none;stroke:#E4F5FD;stroke-width:2;stroke-miterlimit:10;}
	.st78{fill:#71C1D3;}
	.st79{fill:#BEE2D1;}
	.st80{clip-path:url(#SVGID_00000012449262103236639780000000285204037596669316_);}
	.st81{fill:none;stroke:#A5D3BC;stroke-miterlimit:10;}
	.st82{clip-path:url(#SVGID_00000034808299909938686560000009070097270054853798_);}
	.st83{fill:#D1E9F2;}
	.st84{fill:#E4F5FD;}
	.st85{fill:#536367;}
	.st86{fill:none;stroke:#098EB2;stroke-miterlimit:10;}
	.st87{fill:#82D4F6;}
	.st88{fill:#088EB2;}
	.st89{fill:#098EB2;}
	.st90{fill:#83D4F5;stroke:#098EB2;stroke-miterlimit:10;}
	.st91{clip-path:url(#SVGID_00000052816055727001001260000008224339377015491005_);}
	.st92{fill:none;stroke:#088EB2;stroke-miterlimit:10;}
	.st93{clip-path:url(#SVGID_00000022547390435300625190000017162484193302629508_);}
	.st94{fill:#83D4F5;stroke:#088EB2;stroke-miterlimit:10;}
	.st95{fill:#BEC1E2;}
	.st96{fill:#EFF0F8;}
	.st97{clip-path:url(#SVGID_00000020389233452509495280000005012298779307762100_);}
	.st98{clip-path:url(#SVGID_00000164481903739757598790000013141898869010968762_);}
	.st99{clip-path:url(#SVGID_00000008860294836340946840000008779043318767406001_);}
	.st100{clip-path:url(#SVGID_00000154408700185275712040000006892454723988730497_);}
	.st101{clip-path:url(#SVGID_00000183224086984926132170000000216063168985541564_);}
	.st102{clip-path:url(#SVGID_00000156562222573863857420000013487236682234741406_);}
	.st103{clip-path:url(#SVGID_00000093144766455428909360000018376864200394807941_);}
	.st104{clip-path:url(#SVGID_00000007430285179897840660000002029225039265003186_);}
	.st105{clip-path:url(#SVGID_00000052818328006247488280000010980441967915382186_);}
	.st106{clip-path:url(#SVGID_00000013885969700524123620000013586953858089890437_);}
	.st107{clip-path:url(#SVGID_00000120539377777544318090000010863975897394875050_);}
	.st108{clip-path:url(#SVGID_00000112630856798790165680000004581420675561141639_);}
	.st109{clip-path:url(#SVGID_00000055670187604589261250000006545376516049372038_);}
	.st110{clip-path:url(#SVGID_00000135677403131263815610000015800796092287101361_);}
	.st111{clip-path:url(#SVGID_00000031899174007230584440000012797310152432967826_);}
</style>
<path d="M64.9-17.8c0-4.2-2.6-7.6-6-8c-0.4-0.5-0.9-0.9-1.5-1.1v-2.6c0-9.6-7.8-17.3-17.3-17.3s-17.3,7.8-17.3,17.3v2.8
	c-0.5,0.2-0.9,0.6-1.2,1c-3.3,0.4-6,3.8-6,8c0,4.2,2.6,7.6,6,8c0.8,0.9,1.9,1.4,3.1,1.4c2.3,0,4.2-1.9,4.2-4.2V-23
	c0-1.7-1-3.2-2.5-3.8v-2.7c0-7.6,6.2-13.8,13.8-13.8s13.8,6.2,13.8,13.8v2.8c-1.3,0.7-2.3,2.1-2.3,3.7v10.5c0,1.7,1,3.1,2.4,3.8v0.5
	c0,1-0.8,1.9-1.9,1.9h-5.6c-0.7-1.8-2.5-3-4.5-3h-3.7c-2.7,0-4.9,2.2-4.9,4.9s2.2,4.9,4.9,4.9h3.7c2.2,0,4-1.4,4.6-3.3h5.5
	c3,0,5.4-2.4,5.4-5.4v-0.5c0.5-0.2,1-0.6,1.4-1C62.3-10.2,64.9-13.6,64.9-17.8z M20.4-21.5v7.5c-0.8-0.8-1.4-2.2-1.4-3.7
	S19.6-20.7,20.4-21.5z M25.3-12.5c0,0.4-0.3,0.7-0.7,0.7s-0.7-0.3-0.7-0.7V-23c0-0.4,0.3-0.7,0.7-0.7s0.7,0.3,0.7,0.7V-12.5z
	 M42.1-3h-3.7c-0.8,0-1.4-0.6-1.4-1.4s0.6-1.4,1.4-1.4h3.7c0.8,0,1.4,0.6,1.4,1.4S42.8-3,42.1-3z M55.1-23c0-0.4,0.3-0.7,0.7-0.7
	s0.7,0.3,0.7,0.7v10.5c0,0.4-0.3,0.7-0.7,0.7s-0.7-0.3-0.7-0.7V-23z M60-14v-7.5c0.8,0.8,1.4,2.2,1.4,3.7S60.8-14.8,60-14z"/>
<g>
	<circle class="st0" cx="87" cy="84" r="80"/>
	<g>
		
			<image style="overflow:visible;" width="689" height="580" xlink:href="67835037.png"  transform="matrix(0.24 0 0 0.24 1.1211 17.6899)">
		</image>
	</g>
	<path class="st96" d="M131.8,57.5l-5.1-5.1c-2.4-2.4-6.3-2.4-8.8,0L78.5,91.8L55.7,69c-2-2-5.2-2-7.2,0l-6.6,6.6c-2,2-2,5.2,0,7.2
		L74.9,116c2,2,5.2,2,7.2,0l6.6-6.6c0.1-0.1,0.2-0.3,0.3-0.4l42.7-42.7C134.3,63.8,134.3,59.9,131.8,57.5z"/>
	<g>
		<defs>
			<circle id="SVGID_00000075164840834412240140000015923825102973418392_" cx="87" cy="84" r="80"/>
		</defs>
		<clipPath id="SVGID_00000092414843685486310740000002431085424470672039_">
			<use xlink:href="#SVGID_00000075164840834412240140000015923825102973418392_"  style="overflow:visible;"/>
		</clipPath>
		<g style="clip-path:url(#SVGID_00000092414843685486310740000002431085424470672039_);">
			
				<image style="overflow:visible;" width="1326" height="1222" xlink:href="67835035.png"  transform="matrix(0.24 0 0 0.24 -69.1989 -53.8301)">
			</image>
		</g>
	</g>
</g>
</svg>
