<svg width="25" height="25" viewBox="0 0 25 25" fill="none" xmlns="http://www.w3.org/2000/svg">
<path d="M3.4001 15.3C4.9465 15.3 6.2001 14.0464 6.2001 12.5C6.2001 10.9536 4.9465 9.70001 3.4001 9.70001C1.8537 9.70001 0.600098 10.9536 0.600098 12.5C0.600098 14.0464 1.8537 15.3 3.4001 15.3Z" fill="#EAA0C6"/>
<path d="M12.5002 15.3C14.0466 15.3 15.3002 14.0464 15.3002 12.5C15.3002 10.9536 14.0466 9.70001 12.5002 9.70001C10.9538 9.70001 9.7002 10.9536 9.7002 12.5C9.7002 14.0464 10.9538 15.3 12.5002 15.3Z" fill="#7CC580"/>
<path d="M21.6 15.3C23.1464 15.3 24.4 14.0464 24.4 12.5C24.4 10.9536 23.1464 9.70001 21.6 9.70001C20.0537 9.70001 18.8 10.9536 18.8 12.5C18.8 14.0464 20.0537 15.3 21.6 15.3Z" fill="#FED110"/>
</svg>
