<svg width="25" height="25" viewBox="0 0 25 25" fill="none" xmlns="http://www.w3.org/2000/svg">
<path d="M3.5 15.25C5.01878 15.25 6.25 14.0188 6.25 12.5C6.25 10.9812 5.01878 9.75 3.5 9.75C1.98122 9.75 0.75 10.9812 0.75 12.5C0.75 14.0188 1.98122 15.25 3.5 15.25Z" fill="#EAA0C6"/>
<path d="M12.5 15.25C14.0188 15.25 15.25 14.0188 15.25 12.5C15.25 10.9812 14.0188 9.75 12.5 9.75C10.9812 9.75 9.75 10.9812 9.75 12.5C9.75 14.0188 10.9812 15.25 12.5 15.25Z" fill="#7CC580"/>
<path d="M21.5 15.25C23.0188 15.25 24.25 14.0188 24.25 12.5C24.25 10.9812 23.0188 9.75 21.5 9.75C19.9812 9.75 18.75 10.9812 18.75 12.5C18.75 14.0188 19.9812 15.25 21.5 15.25Z" fill="#FED110"/>
</svg>
