<svg width="24" height="24" viewBox="0 0 24 24" fill="none" xmlns="http://www.w3.org/2000/svg">
<path d="M4.2999 13.9C5.34924 13.9 6.1999 13.0493 6.1999 12C6.1999 10.9507 5.34924 10.1 4.2999 10.1C3.25056 10.1 2.3999 10.9507 2.3999 12C2.3999 13.0493 3.25056 13.9 4.2999 13.9Z" fill="#231F20"/>
<path d="M11.9999 13.9C13.0492 13.9 13.8999 13.0493 13.8999 12C13.8999 10.9507 13.0492 10.1 11.9999 10.1C10.9505 10.1 10.0999 10.9507 10.0999 12C10.0999 13.0493 10.9505 13.9 11.9999 13.9Z" fill="#231F20"/>
<path d="M19.6998 13.9C20.7491 13.9 21.5998 13.0493 21.5998 12C21.5998 10.9507 20.7491 10.1 19.6998 10.1C18.6505 10.1 17.7998 10.9507 17.7998 12C17.7998 13.0493 18.6505 13.9 19.6998 13.9Z" fill="#231F20"/>
</svg>
