<svg width="40" height="9" viewBox="0 0 40 9" fill="none" xmlns="http://www.w3.org/2000/svg">
<path d="M4.20002 8.2C6.29871 8.2 8.00002 6.49868 8.00002 4.4C8.00002 2.30132 6.29871 0.599998 4.20002 0.599998C2.10134 0.599998 0.400024 2.30132 0.400024 4.4C0.400024 6.49868 2.10134 8.2 4.20002 8.2Z" fill="#231F20"/>
<path d="M19.7 8.2C21.7987 8.2 23.5 6.49868 23.5 4.4C23.5 2.30132 21.7987 0.599998 19.7 0.599998C17.6013 0.599998 15.9 2.30132 15.9 4.4C15.9 6.49868 17.6013 8.2 19.7 8.2Z" fill="#231F20"/>
<path d="M35.3 8.2C37.3987 8.2 39.1 6.49868 39.1 4.4C39.1 2.30132 37.3987 0.599998 35.3 0.599998C33.2013 0.599998 31.5 2.30132 31.5 4.4C31.5 6.49868 33.2013 8.2 35.3 8.2Z" fill="#231F20"/>
</svg>
