<svg width="24" height="24" viewBox="0 0 24 24" fill="none" xmlns="http://www.w3.org/2000/svg">
<g clip-path="url(#clip0_96_10)">
<path d="M20.9 7.40001H3.1C2.2 7.40001 1.7 7.10001 1.6 6.60001C1.5 6.10001 1.8 5.60001 2.6 5.20001L10 1.30001C11.2 0.700006 13 0.700006 14.2 1.30001L21.6 5.20001C22.4 5.60001 22.7 6.10001 22.6 6.60001C22.3 7.10001 21.8 7.40001 20.9 7.40001ZM3.8 6.00001H20.2L13.5 2.40001C12.7 2.00001 11.4 2.00001 10.6 2.40001L3.8 6.00001ZM22.1 18.4C22.1 18 21.8 17.7 21.4 17.7H2.5C2.1 17.7 1.8 18 1.8 18.4C1.8 18.8 2.1 19.1 2.5 19.1H21.4C21.8 19.1 22.1 18.8 22.1 18.4ZM22.1 22.5C22.1 22.1 21.8 21.8 21.4 21.8H2.5C2.1 21.8 1.8 22.1 1.8 22.5C1.8 22.9 2.1 23.2 2.5 23.2H21.4C21.8 23.2 22.1 22.9 22.1 22.5ZM24 20.5C24 20.1 23.7 19.8 23.3 19.8H0.7C0.3 19.8 0 20.1 0 20.5C0 20.9 0.3 21.2 0.7 21.2H23.4C23.7 21.1 24 20.8 24 20.5ZM19.9 8.50001H4.1C3.4 8.50001 2.8 9.10001 2.8 9.90001V15.2C2.8 16 3.4 16.6 4.1 16.6H5.4V12.2C5.4 11.4 6 10.7 6.7 10.7C7.4 10.7 8 11.3 8 12.2V16.6H10.5V12.2C10.5 11.4 11.1 10.7 11.8 10.7C12.5 10.7 13.1 11.3 13.1 12.2V16.6H15.6V12.2C15.6 11.4 16.2 10.7 16.9 10.7C17.6 10.7 18.2 11.3 18.2 12.2V16.6H19.5C20.2 16.6 20.8 16 20.8 15.2V9.90001C21.2 9.10001 20.6 8.50001 19.9 8.50001Z" fill="url(#paint0_linear_96_10)"/>
</g>
<defs>
<linearGradient id="paint0_linear_96_10" x1="12" y1="0.831206" x2="12" y2="23.1688" gradientUnits="userSpaceOnUse">
<stop offset="0.1187" stop-color="#005EAD"/>
<stop offset="1" stop-color="#92278F"/>
</linearGradient>
<clipPath id="clip0_96_10">
<rect width="24" height="24" fill="white"/>
</clipPath>
</defs>
</svg>
