<svg width="50" height="45" viewBox="0 0 50 45" fill="none" xmlns="http://www.w3.org/2000/svg">
<path d="M42.9 13.1H7.10002C5.30002 13.1 4.30002 12.6 4.00002 11.5C3.70002 10.5 4.40002 9.5 6.00002 8.7L20.8 0.9C23.1 -0.3 26.8 -0.3 29.1 0.9L44 8.7C45.6 9.5 46.3 10.5 46 11.5C45.7 12.6 44.7 13.1 42.9 13.1ZM8.60002 10.5H41.5L27.9 3.3C26.4 2.5 23.6 2.5 22.1 3.3L8.60002 10.5ZM45.3 35.3C45.3 34.6 44.7 34 43.9 34H6.00002C5.30002 34 4.60002 34.6 4.60002 35.3C4.60002 36 5.20002 36.6 6.00002 36.6H44C44.7 36.6 45.3 36 45.3 35.3ZM45.3 43.5C45.3 42.8 44.7 42.2 43.9 42.2H6.00002C5.30002 42.2 4.60002 42.8 4.60002 43.5C4.60002 44.2 5.20002 44.8 6.00002 44.8H44C44.7 44.8 45.3 44.2 45.3 43.5ZM49.1 39.4C49.1 38.7 48.5 38.1 47.7 38.1H2.30002C1.60002 38.1 0.900024 38.7 0.900024 39.4C0.900024 40.1 1.50002 40.7 2.30002 40.7H47.8C48.5 40.7 49.1 40.1 49.1 39.4ZM40.8 15.4H9.20002C7.70002 15.4 6.50002 16.7 6.50002 18.3V29C6.50002 30.6 7.70002 31.9 9.20002 31.9H11.8V23C11.8 21.4 13 20.1 14.5 20.1C16 20.1 17.2 21.4 17.2 23V31.8H22.3V23C22.3 21.4 23.5 20.1 25 20.1C26.5 20.1 27.7 21.4 27.7 23V31.8H32.8V23C32.8 21.4 34 20.1 35.5 20.1C37 20.1 38.2 21.4 38.2 23V31.8H40.8C42.3 31.8 43.5 30.5 43.5 28.9V18.2C43.5 16.7 42.3 15.4 40.8 15.4Z" fill="url(#paint0_linear_58_402)"/>
<defs>
<linearGradient id="paint0_linear_58_402" x1="25" y1="-0.0019" x2="25" y2="44.811" gradientUnits="userSpaceOnUse">
<stop offset="0.1187" stop-color="#005EAD"/>
<stop offset="1" stop-color="#92278F"/>
</linearGradient>
</defs>
</svg>
