<svg width="25" height="25" viewBox="0 0 25 25" fill="none" xmlns="http://www.w3.org/2000/svg">
<path d="M22.7001 20.2H2.3001C1.7001 20.2 1.1001 19.7 1.1001 19V10.8C1.1001 10.2 1.6001 9.59998 2.3001 9.59998H22.6001C23.2001 9.59998 23.8001 10.1 23.8001 10.8V19C23.8001 19.7 23.3001 20.2 22.7001 20.2Z" fill="#63C2EE"/>
<path d="M22.6002 21H2.4002C1.7002 21 1.2002 20.5 1.2002 19.8V11C1.2002 10.3 1.7002 9.79999 2.4002 9.79999H22.6002C23.3002 9.79999 23.8002 10.3 23.8002 11V19.9C23.8002 20.5 23.3002 21 22.6002 21Z" fill="#A5DDEF"/>
<path d="M16.0002 13.7H9.2002V14.7H16.0002V13.7Z" fill="#E4F5FD"/>
<path d="M18.7002 15H17.5002C17.3002 15 17.2002 14.8 17.2002 14.7V12.8C17.2002 12.6 17.4002 12.5 17.5002 12.5H18.7002C18.9002 12.5 19.0002 12.7 19.0002 12.8V14.7C19.0002 14.8 18.8002 15 18.7002 15Z" fill="#71C1D3"/>
<path d="M21.7002 15H20.5002C20.3002 15 20.2002 14.8 20.2002 14.7V12.8C20.2002 12.6 20.4002 12.5 20.5002 12.5H21.7002C21.9002 12.5 22.0002 12.7 22.0002 12.8V14.7C22.1002 14.8 21.9002 15 21.7002 15Z" fill="#71C1D3"/>
<path d="M18.7002 19H17.5002C17.3002 19 17.2002 18.8 17.2002 18.7V16.8C17.2002 16.6 17.4002 16.5 17.5002 16.5H18.7002C18.9002 16.5 19.0002 16.7 19.0002 16.8V18.7C19.0002 18.8 18.8002 19 18.7002 19Z" fill="#71C1D3"/>
<path d="M21.7002 19H20.5002C20.3002 19 20.2002 18.8 20.2002 18.7V16.8C20.2002 16.6 20.4002 16.5 20.5002 16.5H21.7002C21.9002 16.5 22.0002 16.7 22.0002 16.8V18.7C22.1002 18.8 21.9002 19 21.7002 19Z" fill="#71C1D3"/>
<path d="M4.6 15H3.4C3.2 15 3 14.8 3 14.6V12.7C3 12.5 3.2 12.4 3.3 12.4H4.5C4.7 12.4 4.8 12.6 4.8 12.7V14.6C4.9 14.8 4.8 15 4.6 15Z" fill="#71C1D3"/>
<path d="M7.6001 15H6.4001C6.2001 15 6.1001 14.8 6.1001 14.7V12.8C6.1001 12.6 6.3001 12.5 6.4001 12.5H7.6001C7.8001 12.5 7.9001 12.7 7.9001 12.8V14.7C8.0001 14.8 7.8001 15 7.6001 15Z" fill="#71C1D3"/>
<path d="M4.6 19H3.4C3.2 19 3 18.8 3 18.6V16.7C3 16.5 3.2 16.4 3.3 16.4H4.5C4.7 16.4 4.8 16.6 4.8 16.7V18.6C4.9 18.8 4.8 19 4.6 19Z" fill="#71C1D3"/>
<path d="M7.6001 19H6.4001C6.2001 19 6.1001 18.8 6.1001 18.7V16.8C6.1001 16.6 6.3001 16.5 6.4001 16.5H7.6001C7.8001 16.5 7.9001 16.7 7.9001 16.8V18.7C8.0001 18.8 7.8001 19 7.6001 19Z" fill="#71C1D3"/>
<path d="M18.9002 8.59999C18.9002 5.39999 16.1002 2.79999 12.5002 2.79999C8.9002 2.79999 6.2002 5.39999 6.2002 8.59999H18.9002Z" fill="#BEE2D1"/>
<mask id="mask0_176_388" style="mask-type:luminance" maskUnits="userSpaceOnUse" x="6" y="2" width="13" height="7">
<path d="M6.1001 8.59999C6.1001 5.39999 8.9001 2.79999 12.5001 2.79999C16.1001 2.79999 18.9001 5.39999 18.9001 8.59999" fill="white"/>
</mask>
<g mask="url(#mask0_176_388)">
<path d="M8.5 8.59998H8C8 5.09998 11 2.09998 14.6 2.09998V2.59998C11.3 2.59998 8.5 5.29998 8.5 8.59998Z" fill="#A5D3BC"/>
<path d="M16.9999 8.59998H16.4999C16.4999 5.29998 13.6999 2.59998 10.3999 2.59998V2.09998C13.9999 2.09998 16.9999 5.09998 16.9999 8.59998Z" fill="#A5D3BC"/>
<path d="M12.8 1.29999H12.3V8.79999H12.8V1.29999Z" fill="#A5D3BC"/>
</g>
<mask id="mask1_176_388" style="mask-type:luminance" maskUnits="userSpaceOnUse" x="1" y="9" width="23" height="13">
<path d="M22.6002 21.1H2.4002C1.7002 21.1 1.2002 20.6 1.2002 19.9V10.9C1.2002 10.2 1.7002 9.70001 2.4002 9.70001H22.6002C23.3002 9.70001 23.8002 10.2 23.8002 10.9V19.9C23.8002 20.6 23.3002 21.1 22.6002 21.1Z" fill="white"/>
</mask>
<g mask="url(#mask1_176_388)">
<path d="M2.4002 9.60004H1.2002V21.8H2.4002V9.60004Z" fill="#D1E9F2"/>
<path d="M9.8001 9.60004H8.6001V21.8H9.8001V9.60004Z" fill="#D1E9F2"/>
<path d="M23.8001 9.60004H22.6001V21.8H23.8001V9.60004Z" fill="#D1E9F2"/>
<path d="M16.6001 9.60004H15.4001V21.8H16.6001V9.60004Z" fill="#D1E9F2"/>
</g>
<path d="M24.0001 11H1.0001C0.800098 11 0.600098 10.8 0.600098 10.6V9.99998C0.600098 9.79998 0.800098 9.59998 1.0001 9.59998H24.0001C24.2001 9.59998 24.4001 9.79998 24.4001 9.99998V10.6C24.5001 10.8 24.3001 11 24.0001 11Z" fill="#E4F5FD"/>
<path d="M13.9002 16.2H11.2002C10.9002 16.2 10.7002 16.4 10.7002 16.7V21.2C10.7002 21.5 10.9002 21.7 11.2002 21.7H13.9002C14.2002 21.7 14.4002 21.5 14.4002 21.2V16.7C14.4002 16.4 14.2002 16.2 13.9002 16.2Z" fill="#536367"/>
<path d="M19.3002 8.79999H5.7002C5.4002 8.79999 5.2002 8.59999 5.2002 8.29999V7.79999C5.2002 7.49999 5.4002 7.29999 5.7002 7.29999H19.4002C19.7002 7.29999 19.9002 7.49999 19.9002 7.79999V8.29999C19.8002 8.59999 19.6002 8.79999 19.3002 8.79999Z" fill="#E4F5FD"/>
<path d="M24.1001 21H0.900098C0.700098 21 0.600098 20.8 0.600098 20.7V20.5C0.600098 20.3 0.800098 20.2 0.900098 20.2H24.1001C24.3001 20.2 24.4001 20.4 24.4001 20.5V20.7C24.5001 20.9 24.3001 21 24.1001 21Z" fill="#E4F5FD"/>
<path d="M24.1001 21.8H0.900098C0.700098 21.8 0.600098 21.6 0.600098 21.5V21.3C0.600098 21.1 0.800098 21 0.900098 21H24.1001C24.3001 21 24.4001 21.2 24.4001 21.3V21.5C24.5001 21.7 24.3001 21.8 24.1001 21.8Z" fill="#E4F5FD"/>
<path d="M9.80005 22.2H8.60005C8.40005 22.2 8.30005 22 8.30005 21.9V20C8.30005 19.8 8.50005 19.7 8.60005 19.7H9.80005C10 19.7 10.1 19.9 10.1 20V21.9C10.1 22.1 10 22.2 9.80005 22.2Z" fill="#D1E9F2"/>
<path d="M16.6001 22.2H15.4001C15.2001 22.2 15.1001 22 15.1001 21.9V20C15.1001 19.8 15.3001 19.7 15.4001 19.7H16.6001C16.8001 19.7 16.9001 19.9 16.9001 20V21.9C17.0001 22.1 16.8001 22.2 16.6001 22.2Z" fill="#D1E9F2"/>
</svg>
