<svg width="24" height="24" viewBox="0 0 24 24" fill="none" xmlns="http://www.w3.org/2000/svg">
<path d="M12 22.4C11.7 22.4 11.4 22.3 11.2 22L2.90005 13.2C2.70005 13 2.40005 12.7 2.20005 12.5C1.70005 11.9 1.30005 11.2 1.00005 10.4C0.900049 9.7 0.800049 9 0.800049 8.2C0.800049 4.5 3.60005 1.5 7.10005 1.5C9.10005 1.5 10.9 2.5 12.1 4.1C13.3 2.5 15.1 1.5 17.1 1.5C20.6 1.5 23.4 4.5 23.4 8.2C23.4 9 23.3 9.7 23 10.4C22.7 11.3 22.2 12.1 21.6 12.8L13 22C12.6 22.3 12.3 22.4 12 22.4ZM7.00005 3.3C4.50005 3.3 2.40005 5.5 2.40005 8.3C2.40005 8.9 2.50005 9.4 2.70005 10C2.90005 10.6 3.20005 11.1 3.60005 11.6C3.80005 11.8 3.90005 12 4.10005 12.1L12 20.5L20.1 11.8C20.6 11.3 21.0001 10.7 21.2001 10C21.4001 9.5 21.5 8.9 21.5 8.3C21.5 5.6 19.4 3.3 16.9 3.3C15.1 3.3 13.5 4.4 12.7 6.2C12.6 6.5 12.3 6.7 11.9 6.7C11.6 6.7 11.2 6.5 11.1 6.2C10.5 4.4 8.80005 3.3 7.00005 3.3Z" fill="#FF5959"/>
</svg>
