<svg width="24" height="24" viewBox="0 0 24 24" fill="none" xmlns="http://www.w3.org/2000/svg">
<path d="M12.039 20.7143C11.8052 20.7143 11.5714 20.5974 11.3766 20.4416L4.75325 13.3896C4.55844 13.1948 4.36364 13.039 4.20779 12.8052C3.81818 12.2987 3.50649 11.7143 3.27273 11.0909C3.07792 10.5455 3 9.92208 3 9.33766C3 6.37662 5.25974 4 8.02597 4C9.58442 4 11.026 4.77922 12 6.06494C12.9351 4.77922 14.3766 4 15.974 4C18.7403 4 21 6.37662 21 9.33766C21 9.96104 20.8831 10.5455 20.6883 11.1299C20.4545 11.8312 20.0649 12.4935 19.5584 13.039C19.5584 13.039 19.5584 13.0779 19.5195 13.0779L12.7013 20.4416C12.5455 20.6364 12.2727 20.7143 12.039 20.7143ZM8.06493 5.4026C6.03896 5.4026 4.4026 7.19481 4.4026 9.37662C4.4026 9.84416 4.48052 10.2727 4.5974 10.7013C4.79221 11.1688 5.02597 11.5974 5.33766 11.987C5.45455 12.1429 5.61039 12.2987 5.76623 12.4156L5.80519 12.4545L12.039 19.1169L18.5455 12.1818C18.5455 12.1818 18.5455 12.1818 18.5844 12.1429C18.974 11.7143 19.2857 11.2078 19.4416 10.7013C19.5974 10.2727 19.6753 9.8052 19.6753 9.33766C19.6753 7.15584 18.039 5.36364 16.013 5.36364C14.5714 5.36364 13.2857 6.25974 12.6623 7.7013C12.5455 7.93507 12.3117 8.12987 12.039 8.12987C11.7662 8.12987 11.5325 7.97403 11.4156 7.7013C10.8312 6.2987 9.50649 5.4026 8.06493 5.4026Z" fill="#ED2024"/>
</svg>
