<svg width="24" height="24" viewBox="0 0 24 24" fill="none" xmlns="http://www.w3.org/2000/svg">
<path d="M17 1.59998C15 1.59998 13.2 2.59998 12 4.19998C10.8 2.59998 8.99995 1.59998 6.99995 1.59998C3.49995 1.59998 0.699951 4.59998 0.699951 8.29998C0.699951 9.09998 0.799951 9.79998 1.09995 10.5C1.39995 11.3 1.69995 12 2.29995 12.6C2.49995 12.9 2.69995 13.1 2.99995 13.3L11.3 22.1C11.5 22.3 11.8 22.5 12.1 22.5C12.4 22.5 12.7 22.4 12.9 22.1L21.5 12.9C22.1 12.2 22.6 11.4 22.9 10.5C23.1 9.79998 23.2999 8.99998 23.2999 8.29998C23.1999 4.59998 20.4 1.59998 17 1.59998Z" fill="#FF5959"/>
</svg>
