<svg width="24" height="24" viewBox="0 0 24 24" fill="none" xmlns="http://www.w3.org/2000/svg">
<path d="M15.946 4C14.3909 4 12.9525 4.77754 11.9806 6.06048C11.0475 4.77754 9.60907 4 8.01512 4C5.25486 4 3 6.37149 3 9.32613C3 9.90929 3.07775 10.5313 3.27214 11.0756C3.5054 11.6976 3.81641 12.2808 4.20518 12.7862C4.36069 12.9806 4.55508 13.1749 4.74946 13.3693L11.3585 20.406C11.514 20.6004 11.7473 20.6782 12.0194 20.6782C12.2527 20.6782 12.486 20.5616 12.6803 20.406L19.5227 13.0972C19.5227 13.0972 19.5227 13.0583 19.5616 13.0583C20.067 12.514 20.4557 11.8531 20.689 11.1533C20.8834 10.5702 21 9.98704 21 9.36501C20.9611 6.37149 18.7063 4 15.946 4Z" fill="#ED2024"/>
</svg>
