<svg width="24" height="24" viewBox="0 0 24 24" fill="none" xmlns="http://www.w3.org/2000/svg">
<g clip-path="url(#clip0_109_19)">
<path d="M10.4999 4.9C7.79988 5.7 6.19988 8.5 6.89988 11.1C7.49988 13.3 9.59988 14.7 11.7999 14.7C12.2999 14.7 12.7999 14.6 13.1999 14.5C15.8999 13.7 17.4999 10.9 16.7999 8.3C15.9999 5.7 13.1999 4.1 10.4999 4.9ZM12.7999 13.1C10.8999 13.6 8.89988 12.6 8.39988 10.7C8.29988 10.3 8.29988 10 8.49988 9.6C8.69988 9.3 8.99988 9.1 9.39988 9C10.0999 8.8 10.8999 9.2 11.0999 10C11.4999 11.3 12.6999 12.2 13.9999 12.2C14.1999 12.2 14.2999 12.2 14.4999 12.2C13.9999 12.5 13.3999 12.9 12.7999 13.1ZM14.2999 10.5C13.5999 10.7 12.7999 10.3 12.5999 9.5C12.1999 8 10.6999 7.2 9.19988 7.4C9.59988 6.9 10.1999 6.6 10.7999 6.4C11.0999 6.3 11.4999 6.3 11.7999 6.3C13.2999 6.3 14.6999 7.3 15.1999 8.8C15.4999 9.5 14.9999 10.3 14.2999 10.5Z" fill="#3D3D3D"/>
<path d="M19.9999 13.4C20.8999 11.5 20.9999 9.4 20.3999 7.3C19.8999 5.5 18.7999 3.9 17.4999 2.8C17.4999 2.7 17.5999 2.7 17.5999 2.6L17.6999 2.4C18.0999 1.6 17.8999 0.7 17.0999 0.2C16.2999 -0.2 15.3999 0 14.8999 0.8L14.7999 1C14.7999 1.1 14.6999 1.1 14.6999 1.2C12.9999 0.6 11.1999 0.5 9.29995 1C7.09995 1.8 5.19995 3.3 3.99995 5.4C2.79995 7.5 2.59995 9.9 3.19995 12.2C3.69995 14 4.69995 15.5 6.19995 16.7L6.09995 16.8L3.69995 21C3.29995 21.8 3.49995 22.7 4.29995 23.2C4.49995 23.3 4.79995 23.4 5.09995 23.4C5.69995 23.4 6.19995 23.1 6.49995 22.6L8.79995 18.4C8.79995 18.4 8.79995 18.3 8.89995 18.3C9.79995 18.6 10.7999 18.8 11.7999 18.8C12.5999 18.8 13.3999 18.7 14.1999 18.5H14.2999L12.1999 21.7C11.6999 22.4 11.8999 23.4 12.5999 23.9C12.8999 24.1 13.1999 24.2 13.4999 24.2C13.9999 24.2 14.4999 24 14.7999 23.5L17.2999 19.7C17.3999 19.6 17.3999 19.4 17.4999 19.3C17.5999 19.3 17.6999 19.3 17.7999 19.3C18.7999 19.3 19.8999 18.8 20.4999 17.9C21.4999 16.3 21.1999 14.4 19.9999 13.4ZM15.1999 14.1C14.6999 14.8 14.5999 15.7 14.6999 16.5C14.3999 16.6 14.0999 16.7 13.7999 16.8C11.9999 17.3 9.99995 17.1 8.29995 16.2L8.19995 16.1C8.19995 16.1 8.09995 16.1 8.09995 16C6.39995 15 5.19995 13.5 4.69995 11.6C3.59995 7.7 5.89995 3.6 9.79995 2.5C10.4999 2.3 11.0999 2.2 11.7999 2.2C14.9999 2.2 17.9999 4.3 18.8999 7.6C19.3999 9.3 19.1999 11 18.5999 12.6C17.2999 12.4 15.9999 12.9 15.1999 14.1ZM19.2999 16.8C18.7999 17.6 17.7999 17.8 16.9999 17.3L16.8999 17.2C16.3999 16.8 16.1999 16.3 16.2999 15.7C16.2999 15.5 16.3999 15.2 16.5999 15C16.8999 14.6 17.2999 14.4 17.7999 14.3C17.8999 14.3 17.9999 14.3 17.9999 14.3C18.2999 14.3 18.5999 14.4 18.8999 14.6C18.9999 14.7 19.1999 14.8 19.2999 14.9C19.5999 15.4 19.6999 16.2 19.2999 16.8Z" fill="#3D3D3D"/>
</g>
<defs>
<clipPath id="clip0_109_19">
<rect width="24" height="24" fill="white"/>
</clipPath>
</defs>
</svg>
