<svg width="42" height="50" viewBox="0 0 42 50" fill="none" xmlns="http://www.w3.org/2000/svg">
<path d="M24.1999 11.8C21.7999 10.5 18.8999 10.2 16.1999 10.9C13.4999 11.7 11.1999 13.4 9.89994 15.8C8.49994 18.2 8.19994 21 8.89994 23.7C9.69994 26.3 11.3999 28.5 13.8999 29.9C15.4999 30.7 17.1999 31.2 18.8999 31.2C19.8999 31.2 20.8999 31.1 21.7999 30.8C24.4999 30 26.7999 28.3 28.0999 25.9C29.4999 23.5 29.7999 20.7 29.0999 18C28.4999 15.3 26.6999 13.2 24.1999 11.8ZM26.4999 24.9C25.3999 26.9 23.4999 28.3 21.2999 28.9C19.0999 29.5 16.7999 29.3 14.7999 28.2C12.7999 27.1 11.3999 25.4 10.7999 23.2C10.1999 21.2 11.3999 19.1 13.3999 18.5C15.3999 17.9 17.4999 19.1 18.0999 21.1C18.7999 23.6 21.0999 25.3 23.6999 25.3C24.1999 25.3 24.6999 25.2 25.2999 25.1C25.7999 25 26.2999 24.7 26.7999 24.5C26.5999 24.6 26.5999 24.7 26.4999 24.9ZM24.6999 23.2C22.6999 23.8 20.5999 22.6 19.9999 20.6C19.0999 17.5 15.8999 15.8 12.8999 16.6C12.3999 16.8 11.8999 17 11.3999 17.3C11.4999 17.2 11.4999 17 11.5999 16.9C12.6999 14.9 14.5999 13.5 16.7999 12.9C17.5999 12.7 18.3999 12.6 19.1999 12.6C20.5999 12.6 21.9999 12.9 23.2999 13.6C25.2999 14.7 26.6999 16.4 27.2999 18.6C27.8999 20.5 26.6999 22.6 24.6999 23.2Z" fill="#010101"/>
<path d="M41.7 29.5C41.4 27.8 40.4 26.4 39 25.5C38.5 25.2 38 25 37.5 24.8C38.1 21.9 38.1 18.8 37.2 15.7C36 11.4 33.3 7.8 29.9 5.4C30.2 5.2 30.5 5 30.6 4.6L30.9 4.1C31.5 3.1 31.1 1.8 30.1 1.2C29.1 0.6 27.8 1 27.2 2L26.9 2.5C26.7 2.8 26.6 3.2 26.6 3.5C22.7 1.8 18.3 1.4 13.9 2.6C8.99999 4 4.99999 7.2 2.59999 11.6C0.0999892 16.1 -0.500011 21.1 0.899989 26C2.09999 30.2 4.59999 33.8 8.19999 36.3C8.09999 36.4 7.89999 36.6 7.79999 36.8L2.59999 46C1.99999 47 2.39999 48.3 3.39999 48.9C3.69999 49.1 4.09999 49.2 4.39999 49.2C5.09999 49.2 5.89999 48.8 6.29999 48.1L11.5 38.9C11.6 38.7 11.7 38.5 11.7 38.3C14 39.3 16.5 39.8 19 39.8C20.7 39.8 22.5 39.6 24.2 39.1C25.8 38.6 27.3 38 28.7 37.1L23.5 44.9C22.8 45.9 23.1 47.2 24.1 47.8C24.5 48 24.9 48.2 25.3 48.2C26 48.2 26.7 47.9 27.1 47.3L33.4 37.8C33.6 37.6 33.7 37.3 33.7 37C34.3 37.2 34.8 37.2 35.4 37.2C35.8 37.2 36.2 37.2 36.7 37.1C38.4 36.8 39.8 35.8 40.7 34.4C41.7 32.9 42 31.2 41.7 29.5ZM29.9 33.8C28.1 35.3 26 36.4 23.7 37.1C14.7 39.6 5.39999 34.4 2.89999 25.4C1.69999 21.1 2.19999 16.5 4.39999 12.6C6.59999 8.7 10.2 5.8 14.5 4.6C16 4.2 17.5 4 19.1 4C26.5 4 33.3 8.9 35.4 16.3C36.2 19.1 36.2 21.9 35.6 24.5C33.5 24.5 31.5 25.5 30.2 27.3C28.8 29.3 28.8 31.8 29.9 33.8ZM39.1 33.2C38.5 34.2 37.5 34.8 36.3 35.1C35.2 35.3 34 35.1 33 34.5C32.8 34.4 32.7 34.2 32.5 34.1C32 33.6 31.6 33.1 31.3 32.4C30.8 31.1 30.9 29.6 31.7 28.4C32.4 27.3 33.6 26.6 34.8 26.5C35 26.5 35.1 26.5 35.3 26.5C35.8 26.5 36.3 26.6 36.8 26.8C37.1 26.9 37.4 27.1 37.7 27.2C38.7 27.8 39.3 28.8 39.6 30C40 31.1 39.7 32.2 39.1 33.2Z" fill="#010101"/>
</svg>
