<svg width="24" height="24" viewBox="0 0 24 24" fill="none" xmlns="http://www.w3.org/2000/svg">
<path d="M12.0001 0.0999985C6.5001 0.0999985 2.6001 4 2.6001 9.3C2.6001 17.4 11.1001 23.6 11.5001 23.8C11.7001 23.9 11.9001 24 12.0001 24C12.1001 24 12.4001 23.9 12.5001 23.8C12.9001 23.5 21.4001 17.4 21.4001 9.3C21.4001 3.9 17.5001 0.0999985 12.0001 0.0999985ZM12.0001 21.8C10.2001 20.4 4.4001 15.3 4.4001 9.2C4.4001 5 7.6001 1.9 12.0001 1.9C16.4001 1.9 19.6001 5 19.6001 9.2C19.6001 15.3 13.8001 20.4 12.0001 21.8Z" fill="#010101"/>
<path d="M12 5.4C10.1 5.4 8.5 7 8.5 8.9C8.5 10.8 10.1 12.4 12 12.4C13.9 12.4 15.5 10.8 15.5 8.9C15.5 7 13.9 5.4 12 5.4ZM12 10.6C11.1 10.6 10.3 9.9 10.3 8.9C10.3 8 11 7.2 12 7.2C13 7.2 13.7 7.9 13.7 8.9C13.7 9.8 12.9 10.6 12 10.6Z" fill="#010101"/>
</svg>
