<svg width="24" height="24" viewBox="0 0 24 24" fill="none" xmlns="http://www.w3.org/2000/svg">
<path d="M2.80005 5.5C3.35233 5.5 3.80005 5.05228 3.80005 4.5C3.80005 3.94772 3.35233 3.5 2.80005 3.5C2.24776 3.5 1.80005 3.94772 1.80005 4.5C1.80005 5.05228 2.24776 5.5 2.80005 5.5Z" fill="#3D3D3D"/>
<path d="M6.60005 5.39998H21.3C21.8 5.39998 22.2001 4.99998 22.2001 4.49998C22.2001 3.99998 21.8 3.59998 21.3 3.59998H6.60005C6.20005 3.59998 5.80005 3.99998 5.80005 4.49998C5.80005 4.99998 6.20005 5.39998 6.60005 5.39998Z" fill="#3D3D3D"/>
<path d="M2.80005 20.5C3.35233 20.5 3.80005 20.0523 3.80005 19.5C3.80005 18.9477 3.35233 18.5 2.80005 18.5C2.24776 18.5 1.80005 18.9477 1.80005 19.5C1.80005 20.0523 2.24776 20.5 2.80005 20.5Z" fill="#3D3D3D"/>
<path d="M21.3 18.6H6.59995C6.09995 18.6 5.69995 19 5.69995 19.5C5.69995 20 6.09995 20.4 6.59995 20.4H21.3C21.7999 20.4 22.2 20 22.2 19.5C22.2 19 21.7999 18.6 21.3 18.6Z" fill="#3D3D3D"/>
<path d="M2.80005 11C2.30005 11 1.80005 11.4 1.80005 12C1.80005 12.5 2.20005 13 2.80005 13C3.30005 13 3.80005 12.6 3.80005 12C3.80005 11.5 3.40005 11 2.80005 11Z" fill="#3D3D3D"/>
<path d="M21.3 11.1H6.59995C6.09995 11.1 5.69995 11.5 5.69995 12C5.69995 12.5 6.09995 12.9 6.59995 12.9H21.3C21.7999 12.9 22.2 12.5 22.2 12C22.2 11.5 21.7999 11.1 21.3 11.1Z" fill="#3D3D3D"/>
</svg>
