<svg width="25" height="25" viewBox="0 0 25 25" fill="none" xmlns="http://www.w3.org/2000/svg">
<path d="M10.0001 4.79999C9.90012 4.79999 9.70012 4.69998 9.70012 4.59998C9.60012 4.39998 9.70012 4.19998 9.90012 4.09998L10.2001 3.99998C10.4001 3.89998 10.6001 3.99998 10.7001 4.19998C10.8001 4.39998 10.7001 4.59998 10.5001 4.69998L10.1001 4.89999C10.1001 4.79998 10.1001 4.79999 10.0001 4.79999Z" fill="#EAA0C6"/>
<path d="M11.4001 5.3C11.3001 5.3 11.1001 5.2 11.1001 5.1L10.9001 4.7C10.8001 4.5 10.9001 4.3 11.1001 4.2C11.3001 4.1 11.5001 4.2 11.6001 4.4L11.8001 4.8C11.9001 5 11.8001 5.2 11.6001 5.3C11.5001 5.3 11.4001 5.3 11.4001 5.3Z" fill="#EAA0C6"/>
<path d="M11.5001 4.1C11.4001 4.1 11.2001 4 11.2001 3.9C11.1001 3.7 11.2001 3.5 11.4001 3.4L11.8001 3.2C12.0001 3.1 12.2001 3.2 12.3001 3.4C12.4001 3.6 12.3001 3.8 12.1001 3.9L11.7001 4.1C11.6001 4.1 11.6001 4.1 11.5001 4.1Z" fill="#EAA0C6"/>
<path d="M10.7001 3.8C10.6001 3.8 10.4001 3.7 10.4001 3.6L10.2001 3.2C10.1001 3 10.2001 2.8 10.4001 2.7C10.6001 2.6 10.8001 2.7 10.9001 2.9L11.0001 3.3C11.1001 3.5 11.0001 3.7 10.8001 3.8H10.7001Z" fill="#EAA0C6"/>
<path d="M13.1 17.9C13 17.9 13 17.9 13.1 17.9C12.9 17.9 12.7 17.7 12.7 17.5V17.1C12.7 16.9 12.9 16.8 13.1 16.8C13.3 16.8 13.4 17.0001 13.4 17.2001V17.6C13.4 17.8001 13.2 17.9 13.1 17.9Z" fill="#EAA0C6"/>
<path d="M14.2 17H13.8C13.6 17 13.5 16.8 13.5 16.6C13.5 16.4 13.7 16.3 13.9 16.3H14.3C14.5 16.3 14.6 16.5001 14.6 16.7001C14.5 16.8001 14.4 17 14.2 17Z" fill="#EAA0C6"/>
<path d="M13.2 16.2C13 16.2 12.8 16 12.8 15.8V15.4C12.8 15.2 13 15 13.2 15.1C13.4 15.1 13.5 15.3 13.5 15.5V15.9C13.6 16.1 13.4 16.2 13.2 16.2Z" fill="#EAA0C6"/>
<path d="M12.5 16.8H12.1C11.9 16.8 11.8 16.6 11.8 16.4C11.8 16.2 12 16 12.2 16H12.6C12.8 16 12.9 16.2 12.9 16.4C12.9 16.7 12.7 16.8 12.5 16.8Z" fill="#EAA0C6"/>
<path d="M22.1002 10.7001H22.0002C21.8002 10.6001 21.7002 10.4001 21.8002 10.2001L21.9002 9.90006C22.0002 9.70006 22.2002 9.60006 22.4002 9.70006C22.6002 9.80006 22.7002 10.0001 22.6002 10.2001L22.5002 10.5001C22.4002 10.6001 22.2002 10.7001 22.1002 10.7001Z" fill="#EAA0C6"/>
<path d="M23.3 10.1H23.2L22.8 10C22.6 9.90003 22.5 9.70003 22.6 9.50003C22.7 9.30003 22.9 9.20003 23.1 9.30003L23.4 9.40003C23.6 9.50003 23.7 9.70003 23.6 9.90003C23.6 10 23.4 10.1 23.3 10.1Z" fill="#EAA0C6"/>
<path d="M22.5001 9.30003H22.4001C22.2001 9.20003 22.1001 9.00003 22.2001 8.80003L22.3001 8.50003C22.4001 8.30003 22.6001 8.20003 22.8001 8.30003C23.0001 8.30003 23.1001 8.50003 23.0001 8.70003L22.9001 9.00003C22.8001 9.20003 22.7001 9.30003 22.5001 9.30003Z" fill="#EAA0C6"/>
<path d="M21.8001 9.60003H21.7001L21.4001 9.50003C21.2001 9.40003 21.1001 9.20003 21.2001 9.00003C21.3001 8.80003 21.5001 8.70003 21.7001 8.80003L22.0001 8.90003C22.2001 9.00003 22.3001 9.20003 22.2001 9.40003C22.1001 9.50003 22.0001 9.60003 21.8001 9.60003Z" fill="#EAA0C6"/>
<path d="M6.70012 11.9L6.10012 9.70001C7.30012 8.90001 8.20012 6.30001 8.20012 4.70001C8.30012 3.10001 6.80012 0.800007 6.80012 0.800007C6.80012 0.800007 5.90012 0.100007 5.30012 1.00001C3.10012 4.40001 4.80012 8.00001 4.80012 8.00001C4.80012 8.00001 3.70012 8.90001 2.20012 11C0.700117 13.1 1.20012 14.9 1.20012 14.9C1.80012 17.4 3.20012 18.1 3.20012 18.1C5.20012 19.7 7.30012 18.9 7.30012 18.9C7.40012 18.9 7.50012 18.8 7.60012 18.8L8.30012 21.2C8.30012 21.3 8.70012 22.5 7.90012 23.2C7.60012 23.4 6.70012 24 5.50012 23.7C5.50012 23.7 7.40012 23 6.50012 21.3C6.50012 21.3 5.40012 20.1 4.10012 21.1C2.80012 22.1 4.00012 23.5 4.00012 23.5C4.00012 23.5 4.40012 24.1 5.40012 24.4C6.00012 24.6 6.50012 24.6 7.10012 24.4C7.60012 24.2 8.00012 24 8.40012 23.7C9.70012 22.7 9.10012 20.9 9.10012 20.9L8.40012 18.4C9.60012 17.7 10.7001 16.5 10.5001 15C10.2001 11.4 6.90012 11.8 6.70012 11.9ZM5.20012 5.20001C5.20012 5.20001 5.70012 2.40001 6.70012 2.80001C6.70012 2.80001 6.80012 2.80001 6.80012 2.90001C6.80012 2.90001 6.90012 3.00001 6.90012 3.10001C6.90012 3.10001 6.90012 3.20001 6.90012 3.30001C7.00012 3.80001 7.20012 4.80001 6.60012 5.90001C6.60012 5.90001 6.60012 6.00001 6.50012 6.00001C6.50012 6.10001 6.40012 6.20001 6.20012 6.40001L6.10012 6.50001C6.10012 6.60001 6.00012 6.70001 5.90012 6.70001C5.70012 7.00001 5.40012 7.20001 5.40012 7.20001C5.10012 6.10001 5.20012 5.20001 5.20012 5.20001ZM7.50012 18C4.80012 18.4 4.40012 17.8 3.70012 17.2C2.40012 16.2 2.70012 14.2 3.10012 13.4C3.80012 12 5.40012 10.5 5.40012 10.5L5.60012 10.3L6.10012 12.1C4.20012 12.9 4.10012 14.5 4.10012 14.5C4.10012 16.7 5.80012 17.3 5.80012 17.3C6.40012 17.7 6.60012 17.3 6.60012 17.3C6.70012 16.9 6.20012 16.8 6.20012 16.8C4.90012 16.2 5.50012 14.8 5.50012 14.8C5.90012 14.4 6.20012 14.1 6.60012 13.9L7.50012 18ZM9.20012 16.3C9.00012 17 8.60012 17.4 8.20012 17.7L7.10012 13.8C7.70012 13.8 8.10012 14 8.10012 14C9.50012 14.6 9.20012 16.3 9.20012 16.3Z" fill="#4F67B0"/>
<path d="M23.8 12.4C23.8 12.2 23.7 12 23.6 11.9C23.4 11.8 23.3 11.7 23.1 11.8L17 13.5C16.7 13.6 16.6 13.8 16.6 14.1V21.7C16.6 22.4 16 23 15.3 23C14.6 23 14 22.4 14 21.7C14 21 14.6 20.4 15.3 20.4C15.6 20.4 15.9 20.1 15.9 19.8C15.9 19.5 15.6 19.2 15.3 19.2C13.9 19.2 12.8 20.3 12.8 21.7C12.8 23.1 13.9 24.2 15.3 24.2C16.5 24.2 17.6 23.3 17.8 22.1V17.4L21 16.6C21.3 16.5 21.5 16.2 21.4 15.9C21.3 15.6 21 15.4 20.7 15.5L17.8 16.2V14.6L22.6 13.3V20.5C22.6 20.5 22.6 20.5 22.6 20.6C22.6 21.3 22 21.9 21.3 21.9C20.6 21.9 20 21.3 20 20.6C20 19.9 20.6 19.3 21.3 19.3C21.6 19.3 21.9 19 21.9 18.7C21.9 18.4 21.6 18 21.3 18C19.9 18 18.8 19.1 18.8 20.5C18.8 21.9 19.9 23 21.3 23C22.7 23 23.8 21.9 23.8 20.5C23.8 20.5 23.8 20.5 23.8 20.4V12.4Z" fill="#7CC580"/>
<path d="M21.2001 2.60002C21.1001 2.50002 20.9001 2.40002 20.7001 2.40002L15.4001 2.60002C15.1001 2.60002 14.9001 2.80002 14.8001 3.10002L13.4001 9.30002C13.3001 9.80002 12.8001 10.2 12.2001 10C11.7001 9.90002 11.3001 9.40002 11.5001 8.80002C11.6001 8.50002 11.7001 8.30002 11.9001 8.20002C12.1001 8.10002 12.4001 8.00002 12.6001 8.10002C12.9001 8.20002 13.3001 8.00002 13.3001 7.60002C13.6001 7.40002 13.4001 7.10002 13.0001 7.00002C12.4001 6.90002 11.8001 7.00002 11.3001 7.30002C10.8001 7.60002 10.5001 8.10002 10.3001 8.70002C10.0001 9.90002 10.8001 11.1 12.0001 11.3C12.2001 11.3 12.3001 11.4 12.5001 11.4C13.4001 11.4 14.2001 10.9 14.5001 10L15.4001 6.20002L18.1001 6.10002C18.4001 6.10002 18.7001 5.80002 18.7001 5.50002C18.7001 5.20002 18.4001 4.90002 18.1001 4.90002L15.7001 5.00002L16.0001 3.90002L20.0001 3.70002L18.7001 9.50002C18.7001 9.50002 18.7001 9.50002 18.7001 9.60002C18.6001 9.90002 18.5001 10.1 18.3001 10.2C18.1001 10.3 17.8001 10.4 17.6001 10.3C17.1001 10.2 16.7001 9.70002 16.9001 9.10002C17.0001 8.60002 17.5001 8.20002 18.1001 8.40002C18.4001 8.50002 18.8001 8.30002 18.8001 7.90002C18.9001 7.60002 18.7001 7.20002 18.3001 7.20002C17.7001 7.10002 17.1001 7.20002 16.6001 7.50002C16.1001 7.80002 15.8001 8.30002 15.6001 8.90002C15.3001 10.1 16.1001 11.3 17.3001 11.5C17.5001 11.5 17.6001 11.6 17.8001 11.6C18.2001 11.6 18.6001 11.5 19.0001 11.3C19.5001 11 19.8001 10.5 20.0001 9.90002C20.0001 9.90002 20.0001 9.90002 20.0001 9.80002L21.5001 3.20002C21.4001 3.00002 21.4001 2.80002 21.2001 2.60002Z" fill="#FED110"/>
</svg>
