<svg width="44" height="47" viewBox="0 0 44 47" fill="none" xmlns="http://www.w3.org/2000/svg">
<path d="M43.6 1.8C43.6 1.5 43.5 1.2 43.2 1C43 0.8 42.7 0.7 42.4 0.8L17.5 6.2C17 6.3 16.7 6.7 16.7 7.2V33.9C16.3 33.4 15.8 33 15.2 32.7C13.3 31.5 10.9 31 8.39999 31.3C5.99999 31.6 3.79999 32.7 2.19999 34.3C0.599988 36 -0.200012 38.1 0.0999882 40.2C0.399988 42.3 1.59999 44.2 3.59999 45.4C5.19999 46.4 6.99999 46.9 8.99999 46.9C9.39999 46.9 9.89999 46.9 10.4 46.8C12.8 46.5 15 45.4 16.6 43.8C18.1 42.3 18.8 40.4 18.7 38.5V17.1L41.6 12.2V28.4C41.2 27.9 40.6 27.5 40.1 27.1C38.2 25.9 35.8 25.4 33.3 25.7C28.2 26.3 24.5 30.3 25 34.6C25.5 38.5 29.3 41.3 33.9 41.3C34.3 41.3 34.8 41.3 35.2 41.2C40 40.6 43.6 37.1 43.6 33.1V1.8ZM15.1 42.4C13.9 43.7 12.1 44.6 10.1 44.8C8.09999 45 6.19999 44.6 4.69999 43.7C3.19999 42.8 2.29999 41.4 2.09999 39.9C1.89999 38.4 2.49999 36.9 3.69999 35.6C4.89999 34.3 6.69999 33.4 8.69999 33.2C9.09999 33.2 9.49999 33.1 9.79999 33.1C11.4 33.1 12.9 33.5 14.1 34.3C15.6 35.2 16.5 36.6 16.7 38.1C16.9 39.7 16.3 41.2 15.1 42.4ZM18.7 15V8L41.6 3V10L18.7 15ZM35 39.2C31 39.7 27.4 37.5 27 34.3C26.6 31.1 29.6 28.1 33.6 27.6C34 27.6 34.4 27.5 34.7 27.5C36.3 27.5 37.8 27.9 39 28.7C40.5 29.6 41.4 31 41.6 32.5C42 35.7 39 38.7 35 39.2Z" fill="#010101"/>
</svg>
