<svg width="24" height="24" viewBox="0 0 24 24" fill="none" xmlns="http://www.w3.org/2000/svg">
<g clip-path="url(#clip0_109_17)">
<path d="M23.3 5.4V0.8C23.3 0.6 23.2 0.4 23 0.2C22.8 0.0999999 22.6 -1.52737e-07 22.4 0.0999998L9.69997 2.8C9.39997 2.9 9.09997 3.2 9.09997 3.5V8.1V16.5C8.09997 15.7 6.59997 15.3 5.09997 15.4C2.39997 15.7 0.399973 17.9 0.699973 20.2C0.799973 21.3 1.49997 22.4 2.59997 23C3.39997 23.7 4.39997 24 5.49997 24C5.69997 24 5.99997 24 6.19997 24C7.49997 23.8 8.69997 23.3 9.49997 22.4C10.3 21.6 10.7 20.6 10.7 19.5V8.7L21.9 6.3V13.7C20.9 12.9 19.4 12.5 17.9 12.6C15.2 12.9 13.2 15.1 13.5 17.4C13.6 18.5 14.3 19.6 15.4 20.2C16.2 20.7 17.2 21 18.3 21C18.5 21 18.8 21 19 21C21.5 20.7 23.5 18.8 23.5 16.7V5.4H23.3ZM8.39997 21.3C7.79997 21.9 6.99997 22.3 5.99997 22.4C5.09997 22.5 4.09997 22.3 3.39997 21.9C2.69997 21.5 2.29997 20.8 2.19997 20.1C1.99997 18.6 3.39997 17.2 5.29997 17C5.49997 17 5.69997 17 5.79997 17C7.49997 17 8.89997 18 9.09997 19.3C9.19997 20 8.99997 20.7 8.39997 21.3ZM10.6 7.2V4.1L21.8 1.7V4.8L10.6 7.2ZM18.7 19.6C17.8 19.7 16.8 19.5 16.1 19.1C15.4 18.7 15 18 14.9 17.3C14.7 15.8 16.1 14.4 18 14.2C18.2 14.2 18.4 14.2 18.5 14.2C20.2 14.2 21.6 15.2 21.8 16.5C22 17.9 20.6 19.3 18.7 19.6Z" fill="#3D3D3D"/>
</g>
<defs>
<clipPath id="clip0_109_17">
<rect width="24" height="24" fill="white"/>
</clipPath>
</defs>
</svg>
