<svg width="25" height="25" viewBox="0 0 25 25" fill="none" xmlns="http://www.w3.org/2000/svg">
<path d="M9.40007 5.10001C8.85007 4.05001 7.70007 3.35001 6.60007 3.35001C6.40007 3.35001 6.25007 3.35001 6.15007 3.40001H6.05007C5.65007 3.45001 5.05007 3.10001 4.35007 2.45001C4.05007 2.15001 3.55007 2.10001 3.15007 2.35001C2.75007 2.60001 2.60007 3.10001 2.75007 3.50001L4.90007 10.1C4.25007 10.05 3.60007 10.2 3.00007 10.45C2.15007 10.85 1.50007 11.45 1.15007 12.25C0.750069 13.1 0.750069 14 1.10007 14.75C1.45007 15.5 2.15007 16.1 3.05007 16.35C3.35007 16.45 3.65007 16.45 3.95007 16.45C4.50007 16.45 5.10007 16.3 5.60007 16.05C6.45007 15.65 7.10007 15.05 7.45007 14.25C7.80007 13.5 7.85007 12.7 7.60007 12L5.45007 5.35001C5.75007 5.40001 6.00007 5.40001 6.25007 5.40001C6.35007 5.40001 6.40007 5.40001 6.45007 5.35001C6.50007 5.35001 6.50007 5.35001 6.55007 5.35001C6.95007 5.35001 7.40007 5.65001 7.60007 6.05001C7.85007 6.55001 7.75007 7.25001 7.25007 7.75001C6.90007 8.15001 6.90007 8.80001 7.30007 9.15001C7.70007 9.50001 8.35007 9.50001 8.70007 9.10001C9.80007 8.00001 10.0501 6.40001 9.40007 5.10001ZM5.65007 13.45C5.50007 13.8 5.15007 14.1 4.75007 14.3C4.35007 14.45 3.90007 14.5 3.50007 14.4C3.30007 14.35 3.00007 14.25 2.85007 13.9C2.70007 13.6 2.80007 13.25 2.90007 13.1C3.05007 12.75 3.40007 12.45 3.80007 12.25C4.05007 12.1 4.35007 12.05 4.65007 12.05C4.80007 12.05 4.90007 12.05 5.05007 12.1C5.25007 12.15 5.55007 12.25 5.70007 12.6C5.85007 12.95 5.70007 13.25 5.65007 13.45Z" fill="#FED110"/>
<path d="M24.4 11.55C24.45 11.25 24.4 10.95 24.2 10.7C24 10.45 23.75 10.3 23.45 10.3L14.7 10.05C14.25 10.05 13.8 10.35 13.7 10.8L11.8 18.55C11.2 18.1 10.45 17.8 9.7 17.7C7.6 17.45 5.7 18.75 5.45 20.55C5.25 22.4 6.75 24.1 8.9 24.35C9.1 24.35 9.25 24.4 9.45 24.4C11.25 24.4 12.8 23.3 13.1 21.75L14.75 15.1L21.5 15.3L20.65 18.7C20.05 18.25 19.35 17.95 18.5 17.85C16.4 17.6 14.5 18.9 14.25 20.7C14.05 22.55 15.55 24.25 17.7 24.5C17.9 24.5 18.05 24.55 18.25 24.55C20 24.55 21.5 23.5 21.9 22.05V22L23.75 14.55L24.4 11.55ZM9.1 22.4C8.1 22.3 7.3 21.55 7.4 20.85C7.5 20.2 8.25 19.7 9.15 19.7C9.25 19.7 9.35 19.7 9.45 19.7C9.95 19.75 10.45 20 10.8 20.35C10.95 20.5 11.2 20.85 11.15 21.3C11 22 10.1 22.5 9.1 22.4ZM15.15 13.15L15.4 12.1L22.15 12.3L21.9 13.35L15.15 13.15ZM17.85 22.55C16.85 22.45 16.05 21.7 16.15 21C16.25 20.35 17 19.85 17.9 19.85C18 19.85 18.1 19.85 18.2 19.85C19.2 19.95 20 20.7 19.9 21.4C19.8 22.15 18.9 22.65 17.85 22.55Z" fill="#F187B7"/>
<path d="M20.2499 3.69999C20.1499 3.69999 19.9999 3.64999 19.8999 3.59999L19.2499 3.24999C18.8999 3.04999 18.7499 2.59999 18.9499 2.24999C19.1499 1.89999 19.5999 1.74999 19.9499 1.94999L20.5999 2.29999C20.9499 2.49999 21.0999 2.94999 20.8999 3.29999C20.7499 3.59999 20.4999 3.69999 20.2499 3.69999Z" fill="#A4DAD8"/>
<path d="M20.3499 5.99999C20.2499 5.99999 20.0999 5.94999 19.9999 5.89999C19.6499 5.69999 19.4999 5.24999 19.6999 4.89999L20.0499 4.24999C20.2499 3.89999 20.6999 3.74999 21.0499 3.94999C21.3999 4.14999 21.5499 4.59999 21.3499 4.94999L20.9999 5.59999C20.8499 5.84999 20.5999 5.99999 20.3499 5.99999Z" fill="#A4DAD8"/>
<path d="M22.9499 5.19999C22.8499 5.19999 22.6999 5.14999 22.5999 5.09999L21.9499 4.74999C21.5999 4.54999 21.4499 4.09999 21.6499 3.74999C21.8499 3.39999 22.2999 3.24999 22.6499 3.44999L23.2999 3.79999C23.6499 3.99999 23.7999 4.44999 23.5999 4.79999C23.4999 5.09999 23.2499 5.19999 22.9499 5.19999Z" fill="#A4DAD8"/>
<path d="M21.8499 3.24999C21.7499 3.24999 21.5999 3.19999 21.4999 3.14999C21.1499 2.94999 20.9999 2.49999 21.1999 2.14999L21.5499 1.49999C21.7499 1.14999 22.1999 0.999993 22.5499 1.19999C22.8999 1.39999 23.0499 1.84999 22.8499 2.19999L22.4999 2.84999C22.3499 3.09999 22.0999 3.24999 21.8499 3.24999Z" fill="#A4DAD8"/>
<path d="M12.1499 7.65001C11.8499 7.65001 11.5499 7.45001 11.4499 7.15001C11.2999 6.75001 11.4999 6.35001 11.8999 6.20001L12.5999 5.95001C12.9999 5.80001 13.3999 6.00001 13.5499 6.40001C13.6999 6.80001 13.4999 7.20001 13.0999 7.35001L12.3999 7.60001C12.2999 7.65001 12.1999 7.65001 12.1499 7.65001Z" fill="#A4DAD8"/>
<path d="M14.5999 8.85001C14.2999 8.85001 13.9999 8.65001 13.8999 8.35001L13.6499 7.65001C13.4999 7.25001 13.6999 6.85001 14.0999 6.70001C14.4999 6.55001 14.8999 6.75001 15.0499 7.15001L15.2999 7.85001C15.4499 8.25001 15.2499 8.65001 14.8499 8.80001C14.7499 8.80001 14.6999 8.85001 14.5999 8.85001Z" fill="#A4DAD8"/>
<path d="M15.0999 6.59999C14.7999 6.59999 14.4999 6.39999 14.3999 6.09999C14.2499 5.69999 14.4499 5.29999 14.8499 5.14999L15.5499 4.89999C15.9499 4.74999 16.3499 4.94999 16.4999 5.34999C16.6499 5.74999 16.4499 6.14999 16.0499 6.29999L15.3499 6.54999C15.2499 6.59999 15.1499 6.59999 15.0999 6.59999Z" fill="#A4DAD8"/>
<path d="M13.5501 5.9C13.2501 5.9 12.9501 5.7 12.8501 5.4L12.6001 4.7C12.4501 4.3 12.6501 3.9 13.0501 3.75C13.4501 3.6 13.8501 3.8 14.0001 4.2L14.2501 4.9C14.4001 5.3 14.2001 5.7 13.8001 5.85C13.7001 5.85 13.6501 5.9 13.5501 5.9Z" fill="#A4DAD8"/>
</svg>
