<svg width="24" height="24" viewBox="0 0 24 24" fill="none" xmlns="http://www.w3.org/2000/svg">
<path d="M14.7999 8.5C14.1999 8.5 13.7999 8.7 13.4999 9.2C13.1999 9.7 13.0999 10.4 13.0999 11.5V12C13.0999 13 13.1999 13.8 13.4999 14.3C13.7999 14.8 14.1999 15.1 14.7999 15.1C15.3999 15.1 15.7999 14.9 16.0999 14.4C16.3999 13.9 16.4999 13.2 16.4999 12.1V11.5C16.4999 9.5 15.9999 8.5 14.7999 8.5Z" fill="#5D63AD"/>
<path d="M11.9999 2.39999C6.6999 2.39999 2.3999 6.69999 2.3999 12C2.3999 17.3 6.6999 21.6 11.9999 21.6C17.2999 21.6 21.5999 17.3 21.5999 12C21.5999 6.69999 17.2999 2.39999 11.9999 2.39999ZM9.2999 16.4H7.3999V9.09999L5.8999 9.29999V8.19999L8.2999 7.09999H9.2999V16.4ZM18.4999 12C18.4999 13.6 18.1999 14.7 17.4999 15.4C16.7999 16.1 15.8999 16.5 14.7999 16.5C13.6999 16.5 12.7999 16.1 12.0999 15.4C11.3999 14.7 11.0999 13.6 11.0999 12V11.5C11.0999 10.7 11.1999 9.99999 11.3999 9.39999C11.5999 8.79999 11.8999 8.29999 12.1999 7.99999C12.5999 7.69999 12.8999 7.39999 13.3999 7.19999C13.7999 6.99999 14.2999 6.99999 14.7999 6.99999C15.8999 6.99999 16.6999 7.39999 17.3999 8.09999C18.0999 8.79999 18.3999 9.99999 18.3999 11.5V12H18.4999Z" fill="#5D63AD"/>
</svg>
