<svg width="24" height="24" viewBox="0 0 24 24" fill="none" xmlns="http://www.w3.org/2000/svg">
<path d="M11.9999 2.39999C6.6999 2.39999 2.3999 6.69999 2.3999 12C2.3999 17.3 6.6999 21.6 11.9999 21.6C17.2999 21.6 21.5999 17.3 21.5999 12C21.5999 6.69999 17.2999 2.39999 11.9999 2.39999ZM15.2999 16.4H9.2999V15.3L10.8999 13.6C11.3999 13 11.7999 12.6 12.0999 12.3C12.3999 12 12.5999 11.6 12.8999 11.2C13.0999 10.8 13.2999 10.4 13.2999 9.99999C13.2999 9.49999 13.1999 9.09999 12.8999 8.89999C12.5999 8.69999 12.1999 8.59999 11.5999 8.59999C11.0999 8.59999 10.4999 8.79999 9.7999 9.09999L9.3999 7.69999C10.1999 7.29999 11.0999 6.99999 11.9999 6.99999C12.9999 6.99999 13.7999 7.19999 14.3999 7.69999C14.8999 8.19999 15.1999 8.79999 15.1999 9.69999C15.1999 10.1 15.0999 10.5 14.9999 10.9C14.7999 11.3 14.5999 11.7 14.2999 12.1C13.9999 12.5 13.6999 12.8 13.4999 13.1C13.2999 13.3 12.9999 13.6 12.6999 14L11.7999 15H15.2999V16.4Z" fill="#5D5FEF"/>
</svg>
