<svg width="24" height="24" viewBox="0 0 24 24" fill="none" xmlns="http://www.w3.org/2000/svg">
<path d="M11.9999 2.39999C6.6999 2.39999 2.3999 6.69999 2.3999 12C2.3999 17.3 6.6999 21.6 11.9999 21.6C17.2999 21.6 21.5999 17.3 21.5999 12C21.5999 6.69999 17.2999 2.39999 11.9999 2.39999ZM14.2999 15.8C13.6999 16.3 12.8999 16.5 11.7999 16.5C11.2999 16.5 10.6999 16.4 10.1999 16.3C9.6999 16.2 9.2999 16 8.9999 15.8L9.2999 14.5C9.4999 14.6 9.8999 14.8 10.2999 14.9C10.6999 15 11.0999 15 11.4999 15C12.5999 15 13.1999 14.5 13.1999 13.6C13.1999 13.2 13.0999 12.8 12.7999 12.6C12.4999 12.4 12.0999 12.3 11.4999 12.3H10.4999V11H11.3999C11.8999 11 12.2999 10.9 12.5999 10.7C12.8999 10.5 12.9999 10.2 12.9999 9.79999C12.9999 9.39999 12.8999 9.09999 12.5999 8.89999C12.3999 8.69999 11.9999 8.59999 11.4999 8.59999C10.8999 8.59999 10.1999 8.69999 9.4999 8.99999L9.3999 7.59999C9.6999 7.39999 10.0999 7.29999 10.5999 7.19999C11.0999 7.09999 11.5999 7.09999 12.0999 7.09999C12.9999 7.09999 13.6999 7.29999 14.1999 7.69999C14.6999 8.09999 14.9999 8.69999 14.9999 9.39999C14.9999 10.5 14.4999 11.2 13.3999 11.6C14.6999 11.8 15.2999 12.6 15.2999 13.8C15.1999 14.6 14.8999 15.3 14.2999 15.8Z" fill="#5D5FEF"/>
</svg>
