<svg width="24" height="24" viewBox="0 0 24 24" fill="none" xmlns="http://www.w3.org/2000/svg">
<path d="M11.9999 2.39999C6.6999 2.39999 2.3999 6.69999 2.3999 12C2.3999 17.3 6.6999 21.6 11.9999 21.6C17.2999 21.6 21.5999 17.3 21.5999 12C21.5999 6.69999 17.2999 2.39999 11.9999 2.39999ZM14.0999 15.7C13.4999 16.3 12.6999 16.6 11.5999 16.6C10.5999 16.6 9.6999 16.4 8.9999 16L9.2999 14.6C9.9999 14.9 10.5999 15.1 11.0999 15.1C11.6999 15.1 12.1999 15 12.4999 14.7C12.7999 14.4 12.9999 14 12.9999 13.5C12.9999 12.5 12.3999 12 11.0999 12C10.8999 12 10.4999 12.1 10.1999 12.2C9.7999 12.3 9.4999 12.4 9.2999 12.5L9.5999 7.29999H14.4999V8.69999H10.9999L10.8999 10.7C11.1999 10.6 11.5999 10.5 11.9999 10.5C12.8999 10.5 13.6999 10.7 14.1999 11.2C14.6999 11.7 14.9999 12.4 14.9999 13.4C14.9999 14.3 14.6999 15.1 14.0999 15.7Z" fill="#5D5FEF"/>
</svg>
