<svg width="24" height="24" viewBox="0 0 24 24" fill="none" xmlns="http://www.w3.org/2000/svg">
<path d="M11.7 11.9C11.4 11.9 11.1 12 10.9 12.1C10.6 12.3 10.4 12.4 10.2 12.6V12.7C10.2 14.3 10.7 15.1 11.8 15.1C12.3 15.1 12.6 15 12.9 14.7C13.2 14.4 13.3 14 13.3 13.5C13.3 13 13.2 12.6 12.9 12.3C12.6 12 12.2 11.9 11.7 11.9Z" fill="#5D63AD"/>
<path d="M11.9999 2.39999C6.6999 2.39999 2.3999 6.69999 2.3999 12C2.3999 17.3 6.6999 21.6 11.9999 21.6C17.2999 21.6 21.5999 17.3 21.5999 12C21.5999 6.69999 17.2999 2.39999 11.9999 2.39999ZM14.1999 15.6C13.5999 16.2 12.7999 16.5 11.7999 16.5C10.6999 16.5 9.7999 16.1 9.1999 15.4C8.5999 14.7 8.2999 13.7 8.2999 12.4V11.8C8.2999 10.9 8.3999 10.2 8.5999 9.59999C8.8999 8.99999 9.1999 8.49999 9.5999 8.09999C9.9999 7.69999 10.3999 7.49999 10.8999 7.29999C11.3999 7.09999 11.8999 6.99999 12.4999 6.99999C13.2999 6.99999 14.0999 7.19999 14.6999 7.49999L14.2999 8.99999C13.7999 8.69999 13.1999 8.59999 12.4999 8.59999C11.7999 8.59999 11.2999 8.79999 10.8999 9.19999C10.4999 9.59999 10.2999 10.3 10.1999 11.4C10.7999 10.9 11.4999 10.7 12.2999 10.7C13.0999 10.7 13.7999 10.9 14.2999 11.4C14.7999 11.9 14.9999 12.6 14.9999 13.4C15.0999 14.3 14.7999 15 14.1999 15.6Z" fill="#5D63AD"/>
</svg>
