<svg width="24" height="24" viewBox="0 0 24 24" fill="none" xmlns="http://www.w3.org/2000/svg">
<path d="M12.3 10.9C12.7 10.8 13 10.6 13.2 10.3C13.4 10.1 13.6 9.79999 13.6 9.49999C13.6 9.19999 13.5 8.89999 13.2 8.69999C13 8.49999 12.6 8.39999 12.1 8.39999C11.7 8.39999 11.3 8.49999 11.1 8.69999C10.8 8.89999 10.7 9.19999 10.7 9.49999C10.7 10.2 11.2 10.7 12.3 10.9Z" fill="#5D63AD"/>
<path d="M11.9999 2.39999C6.6999 2.39999 2.3999 6.69999 2.3999 12C2.3999 17.3 6.6999 21.6 11.9999 21.6C17.2999 21.6 21.5999 17.3 21.5999 12C21.5999 6.69999 17.2999 2.39999 11.9999 2.39999ZM14.6999 15.8C14.0999 16.3 13.1999 16.5 12.0999 16.5C10.9999 16.5 10.0999 16.3 9.4999 15.8C8.8999 15.4 8.5999 14.8 8.5999 14C8.5999 13.5 8.7999 13 9.0999 12.6C9.3999 12.2 9.8999 11.9 10.3999 11.7C9.3999 11.2 8.7999 10.5 8.7999 9.49999C8.7999 8.79999 9.0999 8.19999 9.6999 7.69999C10.2999 7.29999 11.0999 6.99999 12.0999 6.99999C13.0999 6.99999 13.8999 7.19999 14.4999 7.59999C15.0999 7.99999 15.2999 8.59999 15.2999 9.29999C15.2999 9.79999 15.1999 10.2 14.8999 10.6C14.5999 11 14.1999 11.3 13.6999 11.5C14.9999 12 15.6999 12.7 15.6999 13.8C15.6999 14.7 15.2999 15.3 14.6999 15.8Z" fill="#5D63AD"/>
<path d="M11.7998 12.3C11.3998 12.4 10.9998 12.7 10.6998 12.9C10.3998 13.2 10.2998 13.5 10.2998 13.9C10.2998 14.3 10.4998 14.6 10.7998 14.9C11.0998 15.1 11.4998 15.3 12.0998 15.3C12.5998 15.3 13.0998 15.2 13.3998 15C13.6998 14.8 13.8998 14.5 13.8998 14.1C13.7998 13.1 13.0998 12.6 11.7998 12.3Z" fill="#5D63AD"/>
</svg>
