<svg width="24" height="24" viewBox="0 0 24 24" fill="none" xmlns="http://www.w3.org/2000/svg">
<path d="M11.9999 2.39999C6.6999 2.39999 2.3999 6.69999 2.3999 12C2.3999 17.3 6.6999 21.6 11.9999 21.6C17.2999 21.6 21.5999 17.3 21.5999 12C21.5999 6.69999 17.2999 2.39999 11.9999 2.39999ZM15.5999 11.8C15.5999 15 14.1999 16.6 11.4999 16.6C10.6999 16.6 9.8999 16.4 9.2999 16L9.5999 14.6C9.7999 14.7 10.0999 14.8 10.4999 14.9C10.8999 15 11.1999 15 11.4999 15C12.1999 15 12.7999 14.8 13.1999 14.5C13.5999 14.1 13.7999 13.4 13.7999 12.4C13.1999 12.9 12.4999 13.1 11.6999 13.1C10.8999 13.1 10.1999 12.8 9.6999 12.3C9.1999 11.8 8.9999 11.1 8.9999 10.2C8.9999 9.19999 9.2999 8.39999 9.7999 7.89999C10.1999 7.39999 10.9999 7.09999 11.9999 7.09999C13.0999 7.09999 13.9999 7.49999 14.6999 8.19999C15.2999 8.89999 15.5999 9.89999 15.5999 11.2V11.8Z" fill="#5D63AD"/>
<path d="M12.1 8.39999C11.7 8.39999 11.3 8.59999 11.1 8.89999C10.9 9.19999 10.7 9.59999 10.7 10.2C10.7 10.8 10.8 11.2 11.1 11.5C11.4 11.8 11.7 11.9 12.2 11.9C12.5 11.9 12.8 11.8 13.1 11.7C13.4 11.5 13.6 11.4 13.8 11.2V11C13.7 9.19999 13.2 8.39999 12.1 8.39999Z" fill="#5D63AD"/>
</svg>
