<svg width="24" height="24" viewBox="0 0 24 24" fill="none" xmlns="http://www.w3.org/2000/svg">
<g clip-path="url(#clip0_96_12)">
<path d="M23.2001 11C23.2001 11.4 22.9 11.7 22.5 11.7H20.5C20.1 11.7 19.8 11.4 19.8 11C19.8 10.6 20.1 10.3 20.5 10.3H22.5C22.9 10.3 23.2001 10.6 23.2001 11ZM19.8 8.69999C20 8.69999 20.1 8.59999 20.3 8.49999L21.7001 7.09999C22 6.79999 22 6.39999 21.7001 6.09999C21.4001 5.79999 21 5.79999 20.7001 6.09999L19.3 7.49999C19 7.79999 19 8.19999 19.3 8.49999C19.4 8.59999 19.6 8.69999 19.8 8.69999ZM20.2001 13.4C19.9001 13.1 19.5 13.1 19.2001 13.4C18.9001 13.7 18.9001 14.1 19.2001 14.4L20.6 15.8C20.7001 15.9 20.9 16 21.1 16C21.3001 16 21.4 15.9 21.6 15.8C21.9 15.5 21.9 15.1 21.6 14.8L20.2001 13.4ZM18.9 11C18.9 12.5 18 13.7 16.7 13.9V18.1C16.7 19.7 15.4 21 13.8 21C12.3 21 11 19.8 11 18.2H10.9L6.70005 16.6H6.30005V20.7C6.30005 22 5.20005 23.1 3.80005 23.1C2.40005 23.1 1.30005 22 1.30005 20.7V16.2C1.00005 16 0.800049 15.6 0.800049 15.2V6.69999C0.800049 5.89999 1.40005 5.29999 2.20005 5.29999H6.60005L10.8 3.79999H11C11 2.19999 12.3 0.899994 13.9 0.899994C15.5 0.899994 16.8 2.19999 16.8 3.79999V8.19999C17.9 8.29999 18.9 9.49999 18.9 11ZM2.20005 15.2L5.40005 15.3V6.69999H2.20005C2.20005 6.69999 2.10005 6.69999 2.10005 6.79999V15.2H2.20005ZM4.90005 16.6H2.70005V20.7C2.70005 21.3 3.20005 21.7 3.80005 21.7C4.40005 21.7 4.90005 21.2 4.90005 20.7V16.6ZM11 16.9V5.19999L6.90005 6.69999H6.80005V15.3H6.90005H7.00005L11 16.9ZM15.4 3.79999C15.4 2.99999 14.7 2.29999 13.9 2.29999C13.1 2.29999 12.4 2.99999 12.4 3.79999V5.19999V16.9V18.2C12.4 19 13.1 19.7 13.9 19.7C14.7 19.7 15.4 19 15.4 18.2V3.79999ZM17.5 11C17.5 10.3 17.1 9.69999 16.7 9.49999V12.6C17.2001 12.4 17.5 11.8 17.5 11Z" fill="url(#paint0_linear_96_12)"/>
</g>
<defs>
<linearGradient id="paint0_linear_96_12" x1="12" y1="0.899494" x2="12" y2="23.1005" gradientUnits="userSpaceOnUse">
<stop offset="0.1187" stop-color="#005EAD"/>
<stop offset="1" stop-color="#92278F"/>
</linearGradient>
<clipPath id="clip0_96_12">
<rect width="24" height="24" fill="white"/>
</clipPath>
</defs>
</svg>
