<svg width="25" height="25" viewBox="0 0 25 25" fill="none" xmlns="http://www.w3.org/2000/svg">
<g clip-path="url(#clip0_164_187)">
<path d="M23.8999 12.05L15.2499 8.74999C14.3499 8.39999 13.3499 8.84999 13.0499 9.74999L11.3499 14.2V14.15C9.64992 18.6 10.9499 23.2 14.1999 24.45C17.4499 25.7 21.4999 23.1 23.1999 18.65V18.7L24.8999 14.25C25.2499 13.4 24.7999 12.4 23.8999 12.05ZM15.3499 12.2C16.2999 12.3 16.9999 13.1 16.8999 14.05C16.8499 14.45 16.6999 14.8 16.4499 15.05L13.7499 14.8C13.5499 14.5 13.4499 14.1 13.4999 13.75C13.5999 12.8 14.3999 12.15 15.3499 12.2ZM19.1999 21.5C19.0999 21.8 18.9499 22.05 18.7499 22.25C18.8499 20.9 17.8499 19.95 16.3999 19.4C14.9499 18.85 13.5999 18.75 12.7499 19.85C12.7499 19.55 12.8499 19.25 12.9499 19C13.5999 17.4 15.3499 17.1 17.0499 17.8C18.7499 18.5 19.8499 19.85 19.1999 21.5ZM21.7999 16.9C21.5499 17.2 21.2499 17.45 20.8999 17.5L18.7499 15.9C18.7499 15.55 18.8499 15.15 19.0999 14.85C19.6499 14.1 20.7499 13.95 21.4999 14.5C22.1999 15.1 22.3499 16.15 21.7999 16.9Z" fill="#A4DAD8"/>
<path d="M14.3001 6.85001L13.4001 2.00001C13.2001 1.00001 12.3001 0.350009 11.3001 0.550009L1.75009 2.30001C0.800089 2.50001 0.150089 3.40001 0.300089 4.40001L1.20009 9.30001V9.25001C2.10009 14.15 5.75009 17.6 9.40009 16.95C13.0001 16.3 15.2001 11.75 14.3001 6.85001ZM3.75009 8.50001C3.40009 8.35001 3.10009 8.05001 2.90009 7.70001C2.45009 6.80001 2.80009 5.75001 3.70009 5.30001C4.60009 4.85001 5.65009 5.20001 6.10009 6.10001C6.30009 6.45001 6.35009 6.85001 6.25009 7.25001L3.75009 8.50001ZM8.90009 13.65C6.95009 14 5.25009 13.35 4.90009 11.55C4.85009 11.25 4.85009 10.9 4.85009 10.6C5.50009 11.9 6.95009 12.1 8.55009 11.8C10.1501 11.5 11.4001 10.8 11.5501 9.35001C11.7001 9.60001 11.8001 9.90001 11.8501 10.25C12.2001 12.05 10.8001 13.3 8.90009 13.65ZM11.6001 7.10001L8.80009 6.80001C8.60009 6.45001 8.50009 6.10001 8.55009 5.65001C8.65009 4.65001 9.50009 3.95001 10.5001 4.05001C11.5001 4.15001 12.2001 5.00001 12.1001 6.00001C12.0001 6.45001 11.8501 6.80001 11.6001 7.10001Z" fill="#E8A7CB"/>
</g>
<defs>
<clipPath id="clip0_164_187">
<rect width="25" height="25" fill="white"/>
</clipPath>
</defs>
</svg>
