<svg width="25" height="25" viewBox="0 0 25 25" fill="none" xmlns="http://www.w3.org/2000/svg">
<g clip-path="url(#clip0_176_367)">
<path d="M23.4001 11.9L15.0001 8.79997C14.1001 8.49997 13.2001 8.89997 12.9001 9.79997L11.3001 14C9.7001 18.3 10.9001 22.8 14.1001 24C17.3001 25.2 21.2001 22.7 22.8001 18.4L24.4001 14.1C24.7001 13.2 24.2001 12.3 23.4001 11.9ZM15.1001 12.1C16.0001 12.2 16.7001 13 16.6001 13.9C16.6001 14.3 16.4001 14.6 16.2001 14.9L13.6001 14.7C13.4001 14.4 13.3001 14 13.3001 13.7C13.4001 12.7 14.2001 12 15.1001 12.1ZM18.8001 21C18.7001 21.3 18.5001 21.5 18.4001 21.7C18.5001 20.4 17.5001 19.5 16.1001 18.9C14.7001 18.3 13.4001 18.3 12.6001 19.3C12.6001 19 12.7001 18.7 12.8001 18.5C13.4001 16.9 15.1001 16.7 16.8001 17.3C18.4001 18.1 19.5001 19.5 18.8001 21ZM21.4001 16.6C21.2001 16.9 20.9001 17.1 20.5001 17.2L18.4001 15.6C18.4001 15.2 18.5001 14.9 18.7001 14.6C19.2001 13.9 20.3001 13.7 21.0001 14.3C21.8001 14.8 21.9001 15.9 21.4001 16.6Z" fill="#A4DAD8"/>
<path d="M14.1001 6.89998L13.2001 2.19998C13.0001 1.19998 12.1001 0.599978 11.2001 0.799978L2.00009 2.49998C1.00009 2.69998 0.400088 3.59998 0.600088 4.49998L1.50009 9.19998C2.40009 13.9 5.90009 17.3 9.40009 16.6C12.8001 16 15.0001 11.6 14.1001 6.89998ZM3.90009 8.49998C3.50009 8.29998 3.30009 8.09998 3.10009 7.69998C2.70009 6.89998 3.00009 5.79998 3.90009 5.39998C4.70009 4.99998 5.80009 5.29998 6.20009 6.19998C6.40009 6.59998 6.40009 6.89998 6.30009 7.29998L3.90009 8.49998ZM8.90009 13.4C7.00009 13.7 5.40009 13.1 5.00009 11.4C4.90009 11.1 4.90009 10.8 5.00009 10.5C5.60009 11.7 7.00009 12 8.60009 11.7C10.1001 11.4 11.3001 10.7 11.5001 9.29998C11.6001 9.59998 11.7001 9.79998 11.8001 10.2C12.1001 11.9 10.7001 13.1 8.90009 13.4ZM11.5001 7.09998L8.70009 6.79998C8.50009 6.49998 8.40009 6.09998 8.50009 5.69998C8.60009 4.69998 9.40009 4.09998 10.4001 4.09998C11.4001 4.19998 12.0001 4.99998 12.0001 5.99998C11.9001 6.49998 11.7001 6.79998 11.5001 7.09998Z" fill="#E8A7CB"/>
<path d="M14.1001 6.89998L13.2001 2.19998C13.0001 1.19998 12.1001 0.599978 11.2001 0.799978L2.00009 2.49998C1.00009 2.69998 0.400088 3.59998 0.600088 4.49998L1.50009 9.19998C2.40009 13.9 5.90009 17.3 9.40009 16.6C12.8001 16 15.0001 11.6 14.1001 6.89998ZM3.90009 8.49998C3.50009 8.29998 3.30009 8.09998 3.10009 7.69998C2.70009 6.89998 3.00009 5.79998 3.90009 5.39998C4.70009 4.99998 5.80009 5.29998 6.20009 6.19998C6.40009 6.59998 6.40009 6.89998 6.30009 7.29998L3.90009 8.49998ZM8.90009 13.4C7.00009 13.7 5.40009 13.1 5.00009 11.4C4.90009 11.1 4.90009 10.8 5.00009 10.5C5.60009 11.7 7.00009 12 8.60009 11.7C10.1001 11.4 11.3001 10.7 11.5001 9.29998C11.6001 9.59998 11.7001 9.79998 11.8001 10.2C12.1001 11.9 10.7001 13.1 8.90009 13.4ZM11.5001 7.09998L8.70009 6.79998C8.50009 6.49998 8.40009 6.09998 8.50009 5.69998C8.60009 4.69998 9.40009 4.09998 10.4001 4.09998C11.4001 4.19998 12.0001 4.99998 12.0001 5.99998C11.9001 6.49998 11.7001 6.79998 11.5001 7.09998Z" fill="#E8A7CB"/>
</g>
<defs>
<clipPath id="clip0_176_367">
<rect width="25" height="25" fill="white"/>
</clipPath>
</defs>
</svg>
