<svg width="40" height="47" viewBox="0 0 40 47" fill="none" xmlns="http://www.w3.org/2000/svg">
<path d="M2.59997 25.3L0.099968 11.5C-0.100032 10.2 0.0999681 8.9 0.899968 7.8C1.59997 6.7 2.79997 6 4.09997 5.7L30.9 0.8C33.6 0.3 36.2 2.1 36.7 4.8L39.2 18.6L37.2 19L34.7 5.2C34.4 3.6 32.8 2.5 31.2 2.8L4.39997 7.7C3.59997 7.8 2.99997 8.3 2.49997 8.9C1.99997 9.6 1.89997 10.4 1.99997 11.2L4.59997 25L2.59997 25.3Z" fill="#010101"/>
<path d="M22.8 46.6C18.7 46.6 14.6 44.8 11 41.5C6.79998 37.5 3.79998 31.7 2.59998 25.3L4.59998 24.9C5.69998 31 8.49997 36.4 12.4 40.1C16.3 43.7 20.8 45.3 25.1 44.5C34.1 42.8 39.6 31.4 37.3 18.9L39.3 18.5C41.8 32 35.6 44.5 25.5 46.4C24.5 46.5 23.7 46.6 22.8 46.6Z" fill="#010101"/>
<path d="M10.5 25L10.1 24.8C8.89995 24.2 7.99995 23.3 7.49995 22.2C6.79995 20.8 6.69995 19.3 7.19995 17.8C7.69995 16.3 8.69995 15.2 10.1 14.5C11.5 13.8 13 13.7 14.5 14.2C16 14.7 17.1 15.7 17.8 17.1C18.4 18.2 18.5 19.5 18.3 20.8L18.2 21.3L10.5 25ZM12.6 15.8C12 15.8 11.5 15.9 10.9 16.2C8.99995 17.1 8.29995 19.4 9.19995 21.2C9.49995 21.8 9.99995 22.3 10.5 22.7L16.3 19.8C16.4 19.1 16.2 18.5 15.9 17.8C15.3 16.6 14 15.8 12.6 15.8Z" fill="#010101"/>
<path d="M31.6999 21.1L23.2999 20.3L22.9999 19.9C22.2999 18.8 21.9999 17.6 22.0999 16.3C22.3999 13.2 25.1999 10.8 28.3999 11.1C29.8999 11.2 31.2999 12 32.2999 13.2C33.2999 14.4 33.6999 15.9 33.5999 17.4C33.4999 18.7 32.8999 19.8 32.0999 20.8L31.6999 21.1ZM24.3999 18.4L30.7999 19C31.1999 18.5 31.3999 17.8 31.4999 17.1C31.5999 16.1 31.2999 15.1 30.6999 14.4C30.0999 13.6 29.1999 13.1 28.1999 13C26.0999 12.8 24.2999 14.3 24.0999 16.4C23.9999 17.1 24.1999 17.8 24.3999 18.4Z" fill="#010101"/>
<path d="M21.1 38.6C16.4 38.6 12.9 36.1 12.1 32C11.9 31.1 11.9 30.2 12 29.2C12.1 28.8 12.4 28.4 12.8 28.3C13.2 28.2 13.7 28.4 13.9 28.8C15.3 31.4 18.2 32.3 22.6 31.5C27 30.7 29.4 28.8 29.8 25.9C29.9 25.5 30.2 25.1 30.6 25C31 24.9 31.5 25.1 31.7 25.5C32.1 26.3 32.4 27.2 32.6 28.1C33.5 33 30 37.1 23.9 38.2C22.9 38.5 22 38.6 21.1 38.6ZM14.3 32.2C15.4 36.3 19.9 37 23.6 36.3C27.2 35.6 31.2 33.4 30.8 29.1C29.6 30.9 27.4 32.6 23.1 33.4C18.7 34.3 16 33.5 14.3 32.2Z" fill="#010101"/>
</svg>
