<svg width="24" height="24" viewBox="0 0 24 24" fill="none" xmlns="http://www.w3.org/2000/svg">
<path d="M22.1 9.3L20.8 2.3C20.7 1.6 20.3 0.899999 19.6 0.499999C19 0.0999987 18.3 -0.100001 17.5 0.0999987L3.90004 2.6C3.20004 2.7 2.50004 3.2 2.10004 3.8C1.70004 4.4 1.50004 5.1 1.70004 5.8L3.00004 12.8C3.60004 16.2 5.20004 19.2 7.40004 21.2C9.30004 23 11.4 23.9 13.6 23.9C14.1 23.9 14.5 23.9 15 23.8C20.1 22.9 23.4 16.3 22.1 9.3ZM14.6 22.4C12.5 22.8 10.2 22 8.30004 20.2C6.30004 18.3 4.90004 15.7 4.40004 12.6L3.10004 5.6C3.00004 5.3 3.10004 4.9 3.30004 4.6C3.50004 4.3 3.80004 4.1 4.10004 4L17.8 1.5C18.1 1.4 18.5 1.5 18.8 1.7C19.1 1.9 19.3 2.2 19.4 2.6L20.7 9.7C21.8 15.9 19.1 21.6 14.6 22.4Z" fill="#3D3D3D"/>
<path d="M11.4 10.5C11.5 9.8 11.4 9.1 11.1 8.5C10.3 7 8.40003 6.3 6.90003 7.1C5.30003 7.9 4.70003 9.8 5.50003 11.3C5.80003 11.9 6.30003 12.4 7.00003 12.7L7.30003 12.9L11.4 10.9V10.5ZM7.20003 11.3C7.00003 11.1 6.80003 10.9 6.70003 10.7C6.30003 9.8 6.70003 8.8 7.50003 8.4C7.80003 8.3 8.00003 8.2 8.30003 8.2C8.90003 8.2 9.50003 8.5 9.80003 9.2C9.90003 9.4 10 9.7 10 9.9L7.20003 11.3Z" fill="#3D3D3D"/>
<path d="M16.4001 5.4C14.7001 5.2 13.1001 6.5 13.0001 8.2C12.9001 8.9 13.1001 9.6 13.5001 10.2L13.7001 10.5L18.2001 10.9L18.4001 10.6C18.9001 10.1 19.2001 9.4 19.2001 8.7C19.4001 7.1 18.1001 5.5 16.4001 5.4ZM17.5001 9.4L14.5001 9.1C14.4001 8.9 14.4001 8.6 14.4001 8.3C14.5001 7.4 15.3001 6.7 16.3001 6.8C17.2001 6.9 17.9001 7.7 17.8001 8.7C17.8001 8.9 17.7001 9.2 17.5001 9.4Z" fill="#3D3D3D"/>
<path d="M18.2 12.9C18.1 12.6 17.7 12.5 17.4 12.5C17.1 12.6 16.9 12.8 16.8 13.1C16.6 14.5 15.5 15.4 13.3 15.8C11.1 16.2 9.69996 15.8 9.09996 14.5C8.99996 14.2 8.59996 14.1 8.29996 14.1C7.99996 14.2 7.79996 14.4 7.69996 14.7C7.59996 15.2 7.69996 15.7 7.69996 16.2C7.99996 17.6 8.69996 18.6 9.99996 19.2C10.7 19.5 11.6 19.7 12.5 19.7C13 19.7 13.5 19.7 14 19.6C17.3 19 19.1 16.8 18.6 14.2C18.6 13.8 18.5 13.3 18.2 12.9ZM13.9 18.3C12.7 18.5 11.6 18.4 10.8 18C10.3 17.7 9.89996 17.4 9.59996 16.9C10.5 17.4 11.8 17.6 13.7 17.2C15.6 16.9 16.7 16.2 17.4 15.4C17.2 17.1 15.5 18 13.9 18.3Z" fill="#3D3D3D"/>
</svg>
