<svg width="24" height="24" viewBox="0 0 24 24" fill="none" xmlns="http://www.w3.org/2000/svg">
<path d="M18.5001 10.7H13.3001V5.50001C13.3001 4.80001 12.7001 4.20001 11.9001 4.20001C11.1001 4.20001 10.5001 4.80001 10.5001 5.50001V10.7H5.5001C4.8001 10.7 4.1001 11.3 4.1001 12C4.1001 12.7 4.7001 13.3 5.5001 13.3H10.7001V18.5C10.7001 19.2 11.3001 19.8 12.1001 19.8C12.9001 19.8 13.5001 19.2 13.5001 18.5V13.3H18.7001C19.4001 13.3 20.1001 12.7 20.1001 12C20.1001 11.3 19.3001 10.7 18.5001 10.7Z" fill="#3D3D3D"/>
</svg>
