<svg width="46" height="45" viewBox="0 0 46 45" fill="none" xmlns="http://www.w3.org/2000/svg">
<path d="M45.4 20.4C45.4 21.1 44.8 21.7 44 21.7H40C39.3 21.7 38.6 21.1 38.6 20.4C38.6 19.7 39.3 19 40 19H44.1C44.8 19 45.4 19.6 45.4 20.4ZM38.6 15.8C38.9 15.8 39.3 15.7 39.6 15.4L42.5 12.5C43 12 43 11.1 42.5 10.6C42 10.1 41.1 10.1 40.6 10.6L37.7 13.5C37.2 14 37.2 14.9 37.7 15.4C37.9 15.7 38.2 15.8 38.6 15.8ZM39.5 25.3C39 24.8 38.1 24.8 37.6 25.3C37.1 25.8 37.1 26.7 37.6 27.2L40.5 30.1C40.8 30.4 41.1 30.5 41.5 30.5C41.9 30.5 42.2 30.4 42.5 30.1C43 29.6 43 28.7 42.5 28.2L39.5 25.3ZM36.8 20.5C36.8 23.5 34.9 26 32.5 26.4V34.8C32.5 38 29.9 40.5 26.8 40.5C23.7 40.5 21.2 38 21.1 35H20.8L12.3 31.7H11.5V40C11.5 42.6 9.29998 44.7 6.59998 44.7C3.89998 44.7 1.59998 42.6 1.59998 40V31C0.999976 30.5 0.599976 29.7 0.599976 28.9V11.9C0.599976 10.3 1.89998 9.1 3.39998 9.1H12.3L20.7 6.1H21V5.9C21 2.7 23.6 0.2 26.7 0.2C29.9 0.2 32.4 2.8 32.4 5.9V14.6C34.9 15 36.8 17.5 36.8 20.5ZM3.29998 28.9C3.29998 29 3.39998 29 3.39998 29H9.69998V11.8H3.39998C3.29998 11.8 3.29998 11.9 3.29998 11.9V28.9ZM8.79998 31.7H4.29998V40C4.29998 41.1 5.29998 42 6.49998 42C7.69998 42 8.69998 41.1 8.69998 40V31.7H8.79998ZM21 32.2V8.8L12.7 11.7H12.5V29H12.8L13.1 29.1L21 32.2ZM29.8 5.9C29.8 4.2 28.4 2.9 26.8 2.9C25.1 2.9 23.8 4.3 23.8 5.9V8.8V32.3V34.8C23.8 36.5 25.2 37.8 26.8 37.8C28.5 37.8 29.8 36.4 29.8 34.8V5.9ZM34.1 20.5C34.1 19.1 33.4 17.8 32.5 17.4V23.6C33.4 23.2 34.1 22 34.1 20.5Z" fill="url(#paint0_linear_58_414)"/>
<defs>
<linearGradient id="paint0_linear_58_414" x1="23.0062" y1="0.1908" x2="23.0062" y2="44.7299" gradientUnits="userSpaceOnUse">
<stop offset="0.1187" stop-color="#005EAD"/>
<stop offset="1" stop-color="#92278F"/>
</linearGradient>
</defs>
</svg>
