<svg width="25" height="25" viewBox="0 0 25 25" fill="none" xmlns="http://www.w3.org/2000/svg">
<path d="M17.9 0.25H8.9L2 6.55V22.75C2 23.8 2.85 24.65 3.9 24.65H17.9C18.95 24.65 19.8 23.8 19.8 22.75V2.15C19.8 1.1 18.95 0.25 17.9 0.25Z" fill="#FFE0A1"/>
<path d="M7 6.59999C8.05 6.59999 8.9 5.74999 8.9 4.69999V0.299988L2 6.59999H7Z" fill="#E2B86F"/>
<path d="M12.4001 10.35H4.1001C3.8001 10.35 3.6001 10.15 3.6001 9.85001C3.6001 9.55001 3.8001 9.35001 4.1001 9.35001H12.4001C12.7001 9.35001 12.9001 9.55001 12.9001 9.85001C12.9001 10.15 12.7001 10.35 12.4001 10.35Z" fill="#BE873D"/>
<path d="M14.3001 13.15H4.1001C3.8001 13.15 3.6001 12.95 3.6001 12.65C3.6001 12.35 3.8001 12.15 4.1001 12.15H14.3001C14.6001 12.15 14.8001 12.35 14.8001 12.65C14.8001 12.95 14.6001 13.15 14.3001 13.15Z" fill="#BE873D"/>
<path d="M10.9001 16H4.1001C3.8001 16 3.6001 15.8 3.6001 15.5C3.6001 15.2 3.8001 15 4.1001 15H10.9001C11.2001 15 11.4001 15.2 11.4001 15.5C11.4001 15.8 11.2001 16 10.9001 16Z" fill="#BE873D"/>
<path d="M13.6001 18.8H4.1001C3.8001 18.8 3.6001 18.6 3.6001 18.3C3.6001 18 3.8001 17.8 4.1001 17.8H13.6001C13.9001 17.8 14.1001 18 14.1001 18.3C14.1001 18.6 13.9001 18.8 13.6001 18.8Z" fill="#BE873D"/>
<path d="M17.1499 21.6H4.1499C3.8499 21.6 3.6499 21.4 3.6499 21.1C3.6499 20.8 3.8499 20.6 4.1499 20.6H17.1499C17.4499 20.6 17.6499 20.8 17.6499 21.1C17.6499 21.4 17.3999 21.6 17.1499 21.6Z" fill="#BE873D"/>
<path d="M19.8013 9.38166L15.3193 19.7002L18.4378 21.0547L22.9198 10.7362L19.8013 9.38166Z" fill="#FBAD2D"/>
<path d="M20.3281 8.0996L19.7305 9.4754L22.8489 10.83L23.4465 9.45416L20.3281 8.0996Z" fill="#666766"/>
<path d="M20.3501 8.10001L20.7501 7.15001C21.0501 6.45001 21.9001 6.10001 22.6001 6.40001L23.1501 6.65001C23.8501 6.95001 24.2001 7.80001 23.9001 8.50001L23.5001 9.45001" fill="#F04C23"/>
<path d="M16.4 23.05L18.45 21.05L15.3 19.7L15.25 22.5L16.4 23.05Z" fill="#FCD5C8"/>
<path d="M16.4 23.05L16.15 23.6C16.05 23.85 15.7 24 15.45 23.9L15.25 23.8C15 23.7 14.85 23.35 14.95 23.1L15.2 22.55" fill="#151515"/>
<path d="M19.7124 9.49484L15.2703 19.7216L16.2333 20.1399L20.6755 9.91316L19.7124 9.49484Z" fill="#E98E24"/>
<path d="M21.8989 10.3997L17.4568 20.6265L18.4198 21.0448L22.862 10.8181L21.8989 10.3997Z" fill="#E98E24"/>
</svg>
