<svg width="45" height="41" viewBox="0 0 45 41" fill="none" xmlns="http://www.w3.org/2000/svg">
<path d="M43.4001 19.9L39.5 17.9C38.3 17.3 36.8 17.8 36.2001 18.9L35 21.5C35 21.5 35 21.5 35 21.6L29.7001 31.8V31.9V32L29.5 39.6C29.5 40.1 29.8001 40.6 30.2001 40.8C30.4001 40.9 30.6 41 30.8 41C31.1 41 31.4 40.9 31.6 40.7L37.7001 36.2H37.8L43.3 25.5L44.5 23.2C45.1 22 44.6001 20.6 43.4001 19.9ZM32.2001 36.8L32.3 33.3L35 34.7L32.2001 36.8ZM36.6 32.5L33.2001 30.8L36.3 24.9L39.7001 26.6L36.6 32.5ZM40.9001 24.2L37.5 22.5L38.5 20.5L41.9001 22.2L40.9001 24.2ZM18.5 22.4C23 22.4 27 24.5 29.8 27.8L31.1 25.2C29 23 26.3 21.3 23.4 20.4C26.9 18.6 29.3 15 29.3 10.8C29.3 4.9 24.5 0.0999985 18.6 0.0999985C12.7001 0.0999985 7.90005 4.9 7.90005 10.8C7.90005 15 10.3 18.6 13.8 20.4C6.30005 22.6 0.800049 29.9 0.800049 38.5C0.800049 39.2 1.40005 39.8 2.20005 39.8H27.8L27.9 37.1H3.40005C4.00005 28.9 10.5 22.4 18.5 22.4ZM10.4 10.8C10.4 6.4 14 2.8 18.4 2.8C22.8 2.8 26.4 6.4 26.4 10.8C26.4 15.2 22.8 18.8 18.4 18.8C14 18.8 10.4 15.3 10.4 10.8Z" fill="url(#paint0_linear_58_396)"/>
<defs>
<linearGradient id="paint0_linear_58_396" x1="22.6868" y1="0.0949985" x2="22.6868" y2="40.9006" gradientUnits="userSpaceOnUse">
<stop offset="0.1187" stop-color="#005EAD"/>
<stop offset="1" stop-color="#92278F"/>
</linearGradient>
</defs>
</svg>
