<svg width="24" height="24" viewBox="0 0 24 24" fill="none" xmlns="http://www.w3.org/2000/svg">
<path d="M22.3 11.7L20.4 10.7C19.8 10.4 19.1 10.6 18.8 11.2L18.1 12.5L15.5 17.6L15.4 21.4C15.4 21.7 15.5 21.9 15.8 22C15.9 22.1 16 22.1 16.1 22.1C16.2 22.1 16.4 22.1 16.5 22L19.5 19.7L22.3 14.4L22.9 13.3C23.2 12.8 22.9 12 22.3 11.7ZM16.8 20.1V18.4L18.2 19.1L16.8 20.1ZM18.9 18L17.2 17.1L18.7 14.2L20.4 15.1L18.9 18ZM21.1 13.9L19.4 13L19.9 12L21.6 12.9L21.1 13.9ZM9.9 12.9C12.1 12.9 14.1 13.9 15.5 15.6L16.2 14.3C15.1 13.2 13.8 12.4 12.3 11.9C14 11 15.2 9.19999 15.2 7.09999C15.2 4.19999 12.8 1.79999 9.9 1.79999C7 1.79999 4.6 4.19999 4.6 7.09999C4.6 9.19999 5.8 11 7.5 11.9C3.7 13.1 1 16.7 1 21C1 21.4 1.3 21.7 1.7 21.7H14.5V20.4H2.4C2.7 16.2 5.9 12.9 9.9 12.9ZM5.9 7.19999C5.9 4.99999 7.7 3.19999 9.9 3.19999C12.1 3.19999 13.9 4.99999 13.9 7.19999C13.9 9.39999 12.1 11.2 9.9 11.2C7.7 11.2 5.9 9.39999 5.9 7.19999Z" fill="url(#paint0_linear_96_4)"/>
<defs>
<linearGradient id="paint0_linear_96_4" x1="12" y1="1.82999" x2="12" y2="22.17" gradientUnits="userSpaceOnUse">
<stop offset="0.1187" stop-color="#005EAD"/>
<stop offset="1" stop-color="#92278F"/>
</linearGradient>
</defs>
</svg>
