<svg width="24" height="24" viewBox="0 0 24 24" fill="none" xmlns="http://www.w3.org/2000/svg">
<g clip-path="url(#clip0_96_8)">
<path d="M22.7 7.80001L20.2999 6.30001C19.6999 5.90001 18.7999 6.10001 18.4 6.70001L17.4 8.30001C17.4 8.30001 17.4 8.30001 17.4 8.40001L17.2 8.70001V6.40001L17 6.20001L10.5 0.900012L10.3 0.700012H2.29995C1.39995 0.700012 0.699951 1.40001 0.699951 2.30001V21.7C0.699951 22.6 1.39995 23.3 2.29995 23.3H15.6C16.5 23.3 17.2 22.6 17.2 21.7V18.3L18.1 17.7L22.1 11.4L23.1 9.80001C23.5 9.10001 23.3 8.20001 22.7 7.80001ZM14.6 6.00001H11C10.9 6.00001 10.7 5.90001 10.7 5.70001V2.80001L14.6 6.00001ZM15.8 21.7C15.8 21.8 15.7 22 15.5 22H2.29995C2.19995 22 1.99995 21.9 1.99995 21.7V2.30001C1.99995 2.20001 2.09995 2.00001 2.29995 2.00001H9.29995V5.70001C9.29995 6.60001 9.99995 7.30001 10.9 7.30001H15.8V10.7L13.3 14.6L12.8 19.7C12.8 20 12.9 20.2 13.1 20.3C13.2 20.4 13.3 20.4 13.5 20.4C13.7 20.4 13.7 20.4 13.9 20.3L15.9 19V21.7H15.8ZM14.6 15.5L15.8 16.3L16.7999 16.9L15.8 17.5L14.2 18.5L14.6 15.5ZM17.7 15.8L17.2 15.5L15.9 14.7L15.3 14.3L15.9 13.3L17.2 11.2L17.7999 10.3L20.2999 11.9L17.7 15.8ZM19.5 7.40001L21.9 8.90001C21.9 8.90001 21.9 8.90001 21.9 9.00001L20.9 10.6L18.5 9.00001L19.5 7.40001ZM11.9 11.1C11.9 11.5 11.6 11.8 11.2 11.8H4.09995C3.69995 11.8 3.39995 11.5 3.39995 11.1C3.39995 10.7 3.69995 10.4 4.09995 10.4H11.3C11.6 10.4 11.9 10.7 11.9 11.1ZM3.39995 14.7C3.39995 14.3 3.69995 14 4.09995 14H7.69995C8.09995 14 8.39995 14.3 8.39995 14.7C8.39995 15.1 7.99995 15.4 7.69995 15.4H4.09995C3.69995 15.4 3.39995 15.1 3.39995 14.7ZM10.6 18.4C10.6 18.8 10.3 19.1 9.89995 19.1H4.09995C3.69995 19.1 3.39995 18.8 3.39995 18.4C3.39995 18 3.69995 17.7 4.09995 17.7H9.89995C10.3 17.7 10.6 18 10.6 18.4Z" fill="url(#paint0_linear_96_8)"/>
</g>
<defs>
<linearGradient id="paint0_linear_96_8" x1="12" y1="0.760012" x2="12" y2="23.3757" gradientUnits="userSpaceOnUse">
<stop offset="0.1187" stop-color="#005EAD"/>
<stop offset="1" stop-color="#92278F"/>
</linearGradient>
<clipPath id="clip0_96_8">
<rect width="24" height="24" fill="white"/>
</clipPath>
</defs>
</svg>
