<svg width="25" height="25" viewBox="0 0 25 25" fill="none" xmlns="http://www.w3.org/2000/svg">
<path d="M17.3 0.599976H8.50005L1.80005 6.69998V22.6C1.80005 23.6 2.60005 24.5 3.70005 24.5H17.4C18.4 24.5 19.3 23.7 19.3 22.6V2.39998C19.2 1.39998 18.3 0.599976 17.3 0.599976Z" fill="#FFE0A1"/>
<path d="M6.60005 6.79998C7.60005 6.79998 8.50005 5.99998 8.50005 4.89998V0.599976L1.80005 6.79998H6.60005Z" fill="#E2B86F"/>
<path d="M11.9 10.4H3.80005C3.50005 10.4 3.30005 10.2 3.30005 9.89996C3.30005 9.59996 3.50005 9.39996 3.80005 9.39996H11.9C12.2 9.39996 12.4 9.59996 12.4 9.89996C12.4 10.2 12.2 10.4 11.9 10.4Z" fill="#BE873D"/>
<path d="M11.9 10.6H3.79995C3.49995 10.6 3.19995 10.3 3.19995 9.99996C3.19995 9.69996 3.49995 9.39996 3.79995 9.39996H11.9C12.2 9.39996 12.5 9.69996 12.5 9.99996C12.5 10.3 12.2 10.6 11.9 10.6ZM3.79995 9.59996C3.59995 9.59996 3.39995 9.79996 3.39995 9.99996C3.39995 10.2 3.59995 10.4 3.79995 10.4H11.9C12.1 10.4 12.3 10.2 12.3 9.99996C12.3 9.79996 12.1 9.59996 11.9 9.59996H3.79995Z" fill="#BE873D"/>
<path d="M13.8 14.1H3.80005C3.50005 14.1 3.30005 13.9 3.30005 13.6C3.30005 13.3 3.50005 13.1 3.80005 13.1H13.8C14.1 13.1 14.3 13.3 14.3 13.6C14.3 13.9 14 14.1 13.8 14.1Z" fill="#BE873D"/>
<path d="M13.8 14.2H3.79995C3.49995 14.2 3.19995 13.9 3.19995 13.6C3.19995 13.3 3.49995 13 3.79995 13H13.8C14.1 13 14.4 13.3 14.4 13.6C14.4 13.9 14.1 14.2 13.8 14.2ZM3.79995 13.2C3.59995 13.2 3.39995 13.4 3.39995 13.6C3.39995 13.8 3.59995 14 3.79995 14H13.8C14 14 14.2 13.8 14.2 13.6C14.2 13.4 14 13.2 13.8 13.2H3.79995Z" fill="#BE873D"/>
<path d="M10.5 17.8H3.80005C3.50005 17.8 3.30005 17.6 3.30005 17.3C3.30005 17 3.50005 16.8 3.80005 16.8H10.5C10.8 16.8 11 17 11 17.3C11 17.6 10.7 17.8 10.5 17.8Z" fill="#BE873D"/>
<path d="M10.5 17.9H3.79995C3.49995 17.9 3.19995 17.6 3.19995 17.3C3.19995 17 3.49995 16.7 3.79995 16.7H10.5C10.8 16.7 11.1 17 11.1 17.3C11.1 17.6 10.8 17.9 10.5 17.9ZM3.79995 16.9C3.59995 16.9 3.39995 17.1 3.39995 17.3C3.39995 17.5 3.59995 17.7 3.79995 17.7H10.5C10.7 17.7 10.9 17.5 10.9 17.3C10.9 17.1 10.7 16.9 10.5 16.9H3.79995Z" fill="#BE873D"/>
<path d="M16.5 21.4H3.80005C3.50005 21.4 3.30005 21.2 3.30005 20.9C3.30005 20.6 3.50005 20.4 3.80005 20.4H16.5C16.8 20.4 17 20.6 17 20.9C17 21.2 16.8 21.4 16.5 21.4Z" fill="#BE873D"/>
<path d="M16.5 21.5H3.79995C3.49995 21.5 3.19995 21.2 3.19995 20.9C3.19995 20.6 3.49995 20.3 3.79995 20.3H16.5C16.8 20.3 17.1 20.6 17.1 20.9C17.2 21.3 16.9 21.5 16.5 21.5ZM3.79995 20.6C3.59995 20.6 3.39995 20.8 3.39995 21C3.39995 21.2 3.59995 21.4 3.79995 21.4H16.5C16.7 21.4 16.9 21.2 16.9 21C16.9 20.8 16.7 20.6 16.5 20.6H3.79995Z" fill="#BE873D"/>
<path d="M19.0987 9.43796L14.7163 19.5272L17.7431 20.8419L22.1255 10.7527L19.0987 9.43796Z" fill="#FBAD2D"/>
<path d="M19.6579 8.26164L19.1001 9.54572L22.1269 10.8604L22.6846 9.57636L19.6579 8.26164Z" fill="#666766"/>
<path d="M19.7 8.19997L20.1 7.29997C20.4 6.59997 21.1999 6.29997 21.9 6.59997L22.4 6.79997C23.1 7.09997 23.4 7.89997 23.1 8.59997L22.7 9.49997" fill="#F04C23"/>
<path d="M15.8 22.8L17.8 20.9L14.7 19.6V22.3L15.8 22.8Z" fill="#FCD5C8"/>
<path d="M15.8 22.8L15.6 23.3C15.5 23.6 15.2 23.7 14.9 23.6L14.7 23.5C14.4 23.4 14.3 23.1 14.4 22.8L14.6 22.3" fill="#151515"/>
<path d="M19.107 9.61913L14.7644 19.6166L15.6816 20.015L20.0242 10.0175L19.107 9.61913Z" fill="#E98E24"/>
<path d="M21.198 10.5394L16.8555 20.5369L17.7727 20.9353L22.1152 10.9378L21.198 10.5394Z" fill="#E98E24"/>
</svg>
