<svg width="46" height="46" viewBox="0 0 46 46" fill="none" xmlns="http://www.w3.org/2000/svg">
<path d="M44.5 14.7L39.6 11.6C38.3 10.8 36.6 11.2 35.8 12.5L33.8 15.7C33.8 15.7 33.8 15.8 33.7 15.8L33.4 16.3V11.9L33 11.4L20 0.8L19.6 0.5H3.60002C1.80002 0.5 0.400024 2 0.400024 3.7V42.5C0.400024 44.3 1.90002 45.7 3.60002 45.7H30.2C32 45.7 33.4 44.2 33.4 42.5V35.7L35.3 34.5V34.4L43.3 21.7C43.3 21.7 43.3 21.7 43.4 21.6L45.4 18.4C46.2 17.2 45.8 15.5 44.5 14.7ZM28.4 11.1H21.1C20.8 11.1 20.6 10.9 20.6 10.6V4.7L28.4 11.1ZM30.8 42.5C30.8 42.8 30.6 43 30.3 43H3.70002C3.40002 43 3.20002 42.8 3.20002 42.5V3.7C3.20002 3.4 3.40002 3.2 3.70002 3.2H17.8V10.6C17.8 12.4 19.3 13.8 21 13.8H30.7V20.6L25.7 28.5H25.6L24.5 38.7C24.4 39.2 24.7 39.7 25.1 40C25.3 40.1 25.6 40.2 25.8 40.2C26 40.2 26.3 40.1 26.5 40L30.6 37.5V42.5H30.8ZM28.3 30.1L30.8 31.7L32.9 33L30.8 34.3L27.7 36.3L28.3 30.1ZM34.5 30.8L33.5 30.2L30.8 28.5L29.6 27.7L30.8 25.7L33.5 21.4L34.7 19.5L39.7 22.6L34.5 30.8ZM38.2 13.9L43 16.9V17L41 20.3L36.1 17.2L38.2 13.9ZM23 21.3C23 22 22.4 22.6 21.6 22.6H7.20002C6.50002 22.6 5.80002 22 5.80002 21.3C5.80002 20.6 6.40002 20 7.20002 20H21.6C22.4 19.9 23 20.5 23 21.3ZM5.80002 28.6C5.80002 27.9 6.40002 27.3 7.20002 27.3H14.4C15.1 27.3 15.8 27.9 15.8 28.6C15.8 29.3 15.2 29.9 14.4 29.9H7.20002C6.40002 29.9 5.80002 29.3 5.80002 28.6ZM20.2 35.9C20.2 36.6 19.6 37.2 18.8 37.2H7.20002C6.50002 37.2 5.80002 36.6 5.80002 35.9C5.80002 35.2 6.40002 34.6 7.20002 34.6H18.9C19.6 34.6 20.2 35.2 20.2 35.9Z" fill="url(#paint0_linear_58_400)"/>
<defs>
<linearGradient id="paint0_linear_58_400" x1="23.1299" y1="0.5768" x2="23.1299" y2="45.948" gradientUnits="userSpaceOnUse">
<stop offset="0.1187" stop-color="#005EAD"/>
<stop offset="1" stop-color="#92278F"/>
</linearGradient>
</defs>
</svg>
