<svg width="24" height="24" viewBox="0 0 24 24" fill="none" xmlns="http://www.w3.org/2000/svg">
<g clip-path="url(#clip0_96_140)">
<path d="M19.6 18.4V13.5C19.6 9.4 16.2 6 12.1 6C7.99995 6 4.59995 9.4 4.59995 13.5V18.4C3.49995 18.6 2.69995 19.5 2.69995 20.6V21C2.69995 22.2 3.69995 23.3 4.99995 23.3H19.2999C20.4999 23.3 21.6 22.3 21.6 21V20.6C21.6 19.5 20.7 18.6 19.6 18.4ZM12.1 7.8C15.3 7.8 17.9 10.4 17.9 13.6V18.4H6.29995V13.6C6.29995 10.4 8.89995 7.8 12.1 7.8ZM19.9 21C19.9 21.3 19.5999 21.6 19.2999 21.6H4.99995C4.69995 21.6 4.39995 21.3 4.39995 21V20.6C4.39995 20.3 4.69995 20 4.99995 20H19.2999C19.5999 20 19.9 20.3 19.9 20.6V21Z" fill="#FF5959"/>
<path d="M3.3 11.2C3.3 10.7 2.9 10.3 2.4 10.3H0.9C0.4 10.3 0 10.7 0 11.2C0 11.7 0.4 12 0.9 12H2.5C2.9 12 3.3 11.6 3.3 11.2Z" fill="#FF5959"/>
<path d="M4.7 5.80002C4.8 5.90002 5.1 6.00002 5.3 6.00002C5.5 6.00002 5.7 5.90002 5.9 5.80002C6.2 5.50002 6.2 4.90002 5.9 4.60002L4.8 3.50002C4.5 3.20002 3.9 3.20002 3.6 3.50002C3.3 3.80002 3.3 4.40002 3.6 4.70002L4.7 5.80002Z" fill="#FF5959"/>
<path d="M23.1001 10.3H21.5001C21.0001 10.3 20.6001 10.7 20.6001 11.2C20.6001 11.7 21.0001 12.1 21.5001 12.1H23.1001C23.6001 12.1 24.0001 11.7 24.0001 11.2C24.0001 10.7 23.6001 10.3 23.1001 10.3Z" fill="#FF5959"/>
<path d="M18.7 6.00002C18.9 6.00002 19.1 5.90002 19.3 5.80002L20.4 4.70002C20.7 4.40002 20.7 3.80002 20.4 3.50002C20.1 3.20002 19.5 3.20002 19.2 3.50002L18.1 4.60002C17.8 4.90002 17.8 5.50002 18.1 5.80002C18.3 5.90002 18.5 6.00002 18.7 6.00002Z" fill="#FF5959"/>
<path d="M12.1 4.10001C12.6 4.10001 13 3.70001 13 3.20001V1.60001C13 1.10001 12.6 0.700012 12.1 0.700012C11.6 0.700012 11.2 1.10001 11.2 1.60001V3.30001C11.3 3.70001 11.7 4.10001 12.1 4.10001Z" fill="#FF5959"/>
</g>
<defs>
<clipPath id="clip0_96_140">
<rect width="24" height="24" fill="white"/>
</clipPath>
</defs>
</svg>
