<svg width="43" height="40" viewBox="0 0 43 40" fill="none" xmlns="http://www.w3.org/2000/svg">
<path d="M33.4 35.9C33.4 36.3 33.4 36.7 33.5 37.1H3.39995C3.99995 28.8 10.6 22.3 18.5 22.3C20.7999 22.3 23.1 22.9 25 23.9C25.7999 24.3 26.6 24.8 27.4 25.4C27.6 24.5 27.9999 23.6 28.5999 22.9C27.8999 22.4 27.0999 21.9 26.2999 21.5C25.4 21 24.4 20.6 23.2999 20.3C26.7999 18.5 29.2 14.9 29.2 10.7C29.2 4.8 24.4 0 18.5 0C12.6 0 7.79995 4.8 7.79995 10.7C7.79995 14.9 10.2 18.5 13.7 20.3C6.19995 22.5 0.699951 29.8 0.699951 38.4C0.699951 39.1 1.29995 39.7 2.09995 39.7H35C35.7 39.7 36.4 39.1 36.4 38.4C36.4 37.4 36.2999 36.4 36.2 35.4C35.2 35.8 34.3 35.9 33.4 35.9ZM10.4 10.8C10.4 6.4 14 2.8 18.4 2.8C22.8 2.8 26.4 6.4 26.4 10.8C26.4 15.2 22.8 18.8 18.4 18.8C14 18.8 10.4 15.3 10.4 10.8ZM41.7999 34.3L39.2999 31.7C39.8999 30.7 40.2999 29.5 40.2999 28.3C40.2999 24.8 37.5 22 34 22C30.5 22 27.7 24.8 27.7 28.3C27.7 31.8 30.5 34.6 34 34.6C35.2 34.6 36.3999 34.2 37.2999 33.6L39.7999 36.2C40.0999 36.5 40.3999 36.6 40.7999 36.6C41.0999 36.6 41.5 36.5 41.7 36.2C42.2999 35.7 42.2999 34.8 41.7999 34.3ZM34 31.9C32 31.9 30.4 30.3 30.4 28.3C30.4 26.3 32 24.7 34 24.7C36 24.7 37.5999 26.3 37.5999 28.3C37.5999 30.3 35.9 31.9 34 31.9Z" fill="url(#paint0_linear_58_394)"/>
<defs>
<linearGradient id="paint0_linear_58_394" x1="21.3817" y1="0.095" x2="21.3817" y2="39.8391" gradientUnits="userSpaceOnUse">
<stop offset="0.1187" stop-color="#005EAD"/>
<stop offset="1" stop-color="#92278F"/>
</linearGradient>
</defs>
</svg>
