<svg width="25" height="25" viewBox="0 0 25 25" fill="none" xmlns="http://www.w3.org/2000/svg">
<path d="M11.2999 12.6C13.3433 12.6 14.9999 10.8987 14.9999 8.8C14.9999 6.70132 13.3433 5 11.2999 5C9.2564 5 7.59985 6.70132 7.59985 8.8C7.59985 10.8987 9.2564 12.6 11.2999 12.6Z" fill="#A4DAD8"/>
<path d="M17.7998 19.3C17.7998 15.4 14.8998 12.2 11.2998 12.2C7.6998 12.2 4.7998 15.4 4.7998 19.3C4.7998 19.3 10.6998 23.1 17.7998 19.3Z" fill="#A4DAD8"/>
<path d="M23.1999 22.7L19.0999 18.4C20.7999 16.5 21.7999 14 21.7999 11.3C21.7999 5.4 16.9999 0.5 10.9999 0.5C4.9999 0.5 0.399902 5.4 0.399902 11.3C0.399902 17.2 5.1999 22.1 11.1999 22.1C13.6999 22.1 15.8999 21.3 17.6999 19.9L21.7999 24.2C21.9999 24.4 22.2999 24.5 22.4999 24.5C22.7999 24.5 22.9999 24.4 23.1999 24.2C23.5999 23.8 23.5999 23.1 23.1999 22.7ZM2.3999 11.3C2.3999 6.5 6.2999 2.6 11.0999 2.6C15.8999 2.6 19.7999 6.5 19.7999 11.3C19.7999 16.1 15.8999 20 11.0999 20C6.2999 20 2.3999 16.1 2.3999 11.3Z" fill="#4F67B0"/>
</svg>
