<svg width="25" height="25" viewBox="0 0 25 25" fill="none" xmlns="http://www.w3.org/2000/svg">
<g clip-path="url(#clip0_164_243)">
<path d="M11.9 13.9C13.9158 13.9 15.55 12.2211 15.55 10.15C15.55 8.07893 13.9158 6.39999 11.9 6.39999C9.88416 6.39999 8.25 8.07893 8.25 10.15C8.25 12.2211 9.88416 13.9 11.9 13.9Z" fill="#A4DAD8"/>
<path d="M5.5 20.45C5.5 16.6 8.35 13.5 11.85 13.5C15.35 13.5 18.2 16.6 18.2 20.45H5.5Z" fill="#A4DAD8"/>
<path d="M24 21.9L20.95 18.6C22.35 16.65 23.2 14.25 23.2 11.65C23.2 5.85 19.05 1 13.65 0.15C13.05 0.05 12.45 0 11.85 0C11.25 0 10.65 0.05 10.05 0.15C4.65 1.05 0.5 5.9 0.5 11.7C0.5 17.5 4.65 22.35 10.05 23.2C10.65 23.3 11.2 23.35 11.85 23.35C12.45 23.35 13.05 23.3 13.6 23.2C15.35 22.9 17 22.2 18.4 21.2L18.2 21C17.7 20.45 17.55 19.65 17.85 19C17.6 19.65 17.7 20.45 18.2 20.95L18.4 21.15L21.4 24.4C21.75 24.75 22.2 24.95 22.65 24.95C23.1 24.95 23.55 24.8 23.9 24.45C24.65 23.75 24.65 22.6 24 21.9ZM13.65 19.5C13.05 19.65 12.45 19.7 11.85 19.7C11.25 19.7 10.65 19.6 10.05 19.5C6.6 18.65 4.05 15.5 4.05 11.7C4.05 7.9 6.6 4.75 10.05 3.9C10.65 3.75 11.2 3.7 11.85 3.7C12.45 3.7 13.05 3.8 13.6 3.9C17.05 4.75 19.6 7.9 19.6 11.7C19.65 15.5 17.05 18.65 13.65 19.5Z" fill="#4F67B0"/>
</g>
<defs>
<clipPath id="clip0_164_243">
<rect width="25" height="25" fill="white"/>
</clipPath>
</defs>
</svg>
