<svg width="24" height="24" viewBox="0 0 24 24" fill="none" xmlns="http://www.w3.org/2000/svg">
<path d="M18.0001 19.9C18.0001 20.1 18.0001 20.3 18.0001 20.5H3.0001C3.3001 16.4 6.6001 13.1 10.5001 13.1C11.7001 13.1 12.8001 13.4 13.8001 13.9C14.2001 14.1 14.6001 14.4 15.0001 14.7C15.1001 14.2 15.3001 13.8 15.6001 13.5C15.2001 13.2 14.8001 13 14.4001 12.8C13.9001 12.6 13.4001 12.4 12.9001 12.2C14.6001 11.3 15.8001 9.50001 15.8001 7.40001C15.8001 4.50001 13.4001 2.10001 10.5001 2.10001C7.6001 2.10001 5.2001 4.50001 5.2001 7.40001C5.2001 9.50001 6.4001 11.3 8.1001 12.2C4.4001 13.3 1.6001 16.9 1.6001 21.2C1.6001 21.6 1.9001 21.9 2.3001 21.9H18.7001C19.1001 21.9 19.4001 21.6 19.4001 21.2C19.4001 20.7 19.4001 20.2 19.3001 19.7C18.9001 19.9 18.5001 19.9 18.0001 19.9ZM6.5001 7.40001C6.5001 5.20001 8.3001 3.40001 10.5001 3.40001C12.7001 3.40001 14.5001 5.20001 14.5001 7.40001C14.5001 9.60001 12.7001 11.4 10.5001 11.4C8.3001 11.4 6.5001 9.70001 6.5001 7.40001ZM22.2001 19.1L20.9001 17.8C21.2001 17.3 21.4001 16.7 21.4001 16.1C21.4001 14.4 20.0001 13 18.3001 13C16.6001 13 15.2001 14.4 15.2001 16.1C15.2001 17.8 16.6001 19.2 18.3001 19.2C18.9001 19.2 19.5001 19 20.0001 18.7L21.3001 20C21.4001 20.1 21.6001 20.2 21.8001 20.2C22.0001 20.2 22.1001 20.1 22.3001 20C22.4001 19.8 22.4001 19.4 22.2001 19.1ZM18.3001 17.9C17.3001 17.9 16.5001 17.1 16.5001 16.1C16.5001 15.1 17.3001 14.3 18.3001 14.3C19.3001 14.3 20.1001 15.1 20.1001 16.1C20.1001 17.1 19.3001 17.9 18.3001 17.9Z" fill="url(#paint0_linear_96_2)"/>
<defs>
<linearGradient id="paint0_linear_96_2" x1="12.0001" y1="2.09461" x2="12.0001" y2="21.9055" gradientUnits="userSpaceOnUse">
<stop offset="0.1187" stop-color="#005EAD"/>
<stop offset="1" stop-color="#92278F"/>
</linearGradient>
</defs>
</svg>
