<svg width="24" height="24" viewBox="0 0 24 24" fill="none" xmlns="http://www.w3.org/2000/svg">
<path d="M22.5 11.1L3.49997 1.20002C3.19997 1.10002 2.79997 1.10002 2.49997 1.30002C2.29997 1.50002 2.19997 1.90002 2.29997 2.20002L5.19997 11.8L2.29997 21.4C2.19997 21.7 2.29997 22.1 2.59997 22.3C2.79997 22.4 2.89997 22.5 3.09997 22.5C3.19997 22.5 3.39997 22.5 3.49997 22.4L22.6 12.5C22.9 12.4 23.1 12.1 23.1 11.7C23.1 11.3 22.8 11.3 22.5 11.1ZM4.49997 20.1L6.69997 12.7H13C13.5 12.7 13.9 12.3 13.9 11.8C13.9 11.3 13.4 11 13 11H6.69997L4.49997 3.70002L20.3 11.9L4.49997 20.1Z" fill="#3D3D3D"/>
</svg>
