<svg width="24" height="24" viewBox="0 0 24 24" fill="none" xmlns="http://www.w3.org/2000/svg">
<g clip-path="url(#clip0_96_150)">
<path fill-rule="evenodd" clip-rule="evenodd" d="M12.1 16.9C14.8 16.9 17 14.7 17 12C17 9.19999 14.8 7.09999 12.1 7.09999C9.30005 7.09999 7.10005 9.19999 7.10005 12C7.10005 14.7 9.30005 16.9 12.1 16.9ZM0.800049 9.99999L3.60005 9.49999C3.80005 8.89999 4.10005 8.39999 4.30005 7.89999L2.70005 5.49999C2.50005 5.29999 2.60005 4.89999 2.80005 4.69999L4.80005 2.69999C5.00005 2.49999 5.30005 2.49999 5.40005 2.59999L7.80005 4.19999C8.40005 3.99999 8.90005 3.69999 9.60005 3.49999L10 0.799988C10.1 0.499988 10.4 0.299988 10.7 0.299988H13.5C13.7 0.299988 14 0.499988 14.1 0.799988L14.6 3.69999C15.2 3.79999 15.8 4.09999 16.3 4.29999L18.7001 2.69999C18.9001 2.49999 19.2 2.49999 19.4 2.69999L21.4 4.69999C21.5 4.89999 21.6 5.29999 21.4 5.39999L19.8 7.79999C20.1 8.29999 20.3 8.79999 20.5 9.39999L23.3 9.89999C23.6 9.99999 23.8 10.3 23.8 10.5V13.3C23.8 13.6 23.6 13.8 23.3 13.9L20.5 14.4C20.3 15 20 15.5 19.8 16.1L21.4 18.4C21.5 18.7 21.5 19.1 21.3 19.2L19.3 21.1C19.1 21.3 18.8001 21.4 18.6 21.2L16.3 19.6C15.8 19.9 15.3 20.1 14.6 20.2L14.1 23C14 23.2 13.7 23.5 13.5 23.5H10.7C10.4 23.5 10.1 23.2 10 23L9.50005 20.2C8.90005 20 8.30005 19.8 7.80005 19.6L5.40005 21.3C5.10005 21.4 4.90005 21.4 4.70005 21.2L2.70005 19.2C2.50005 19 2.50005 18.6 2.60005 18.5L4.20005 16.1C3.90005 15.6 3.70005 15 3.50005 14.4L0.800049 14C0.500049 13.9 0.300049 13.6 0.300049 13.4V10.6C0.300049 10.3 0.600049 10.1 0.800049 9.99999ZM10 12C10 10.9 10.8 9.99999 12 9.99999C13.1 9.99999 14 10.9 14 12C14 13.1 13.1 14 12 14C10.9 14 10 13.1 10 12Z" fill="white"/>
</g>
<defs>
<clipPath id="clip0_96_150">
<rect width="24" height="24" fill="white"/>
</clipPath>
</defs>
</svg>
