<svg width="24" height="24" viewBox="0 0 24 24" fill="none" xmlns="http://www.w3.org/2000/svg">
<path d="M19.2001 17C18.3001 17 17.5 17.4 17 17.9L7.90005 12.8C8.00005 12.5 8.00005 12.3 8.00005 12C8.00005 11.8 8.00005 11.6 7.90005 11.4L17.1 6.19999C17.6 6.69999 18.4001 6.99999 19.2001 6.99999C20.9001 6.99999 22.3 5.59999 22.3 3.89999C22.3 2.19999 20.9001 0.799988 19.2001 0.799988C17.5001 0.799988 16.1 2.19999 16.1 3.89999C16.1 4.19999 16.1 4.49999 16.2 4.69999L7.10005 9.89999C6.50005 9.29999 5.80005 8.89999 4.90005 8.89999C3.20005 8.89999 1.80005 10.3 1.80005 12C1.80005 13.7 3.20005 15.1 4.90005 15.1C5.70005 15.1 6.40005 14.8 7.00005 14.3L16.2 19.5C16.2 19.7 16.1 19.9 16.1 20.1C16.1 21.8 17.5001 23.2 19.2001 23.2C20.9001 23.2 22.3 21.8 22.3 20.1C22.2 18.4 20.8001 17 19.2001 17ZM19.2001 2.59999C20 2.59999 20.6 3.19999 20.6 3.99999C20.6 4.79999 20 5.39999 19.2001 5.39999C18.8001 5.39999 18.4 5.19999 18.1 4.79999C18.1 4.79999 18.1 4.79999 18.1 4.69999L18 4.59999C17.9 4.39999 17.8 4.19999 17.8 3.99999C17.8 3.19999 18.4001 2.59999 19.2001 2.59999ZM4.80005 13.4C4.00005 13.4 3.40005 12.8 3.40005 12C3.40005 11.2 4.00005 10.6 4.80005 10.6C5.60005 10.6 6.20005 11.2 6.20005 12C6.20005 12.8 5.60005 13.4 4.80005 13.4ZM19.2001 21.4C18.4001 21.4 17.8 20.8 17.8 20C17.8 19.9 17.8 19.8 17.8 19.7C17.9 19.5 18 19.3 18.1 19.1C18.4 18.8 18.7001 18.6 19.1 18.6C19.9 18.6 20.5 19.2 20.5 20C20.5 20.8 19.9001 21.4 19.2001 21.4Z" fill="#3D3D3D"/>
</svg>
