<?xml version="1.0" encoding="utf-8"?>
<!-- Generator: Adobe Illustrator 28.0.0, SVG Export Plug-In . SVG Version: 6.00 Build 0)  -->
<svg version="1.1" id="Layer_1" xmlns="http://www.w3.org/2000/svg" xmlns:xlink="http://www.w3.org/1999/xlink" x="0px" y="0px"
	 viewBox="0 0 168 168" style="enable-background:new 0 0 168 168;" xml:space="preserve">
<style type="text/css">
	.st0{fill:#5D63AD;}
	.st1{clip-path:url(#SVGID_00000123411558924576089930000006682114235403853473_);}
	.st2{clip-path:url(#SVGID_00000030475970577076320290000010568785000987071891_);}
	.st3{fill:#FBAD2D;}
	.st4{fill:#666766;}
	.st5{fill:#F04C23;}
	.st6{fill:#FCD5C8;}
	.st7{fill:#151515;}
	.st8{fill:none;}
	.st9{fill:#3D3D3D;}
	.st10{fill:none;stroke:#EF4040;stroke-width:2.8;stroke-linecap:round;stroke-linejoin:round;stroke-miterlimit:10;}
	.st11{fill:#3E3E3E;}
	.st12{clip-path:url(#SVGID_00000128456707199688742000000008480530520075628678_);}
	.st13{clip-path:url(#SVGID_00000130618349228940010220000004951894747329909671_);}
	.st14{fill:#020202;}
	.st15{clip-path:url(#SVGID_00000070841497933885762280000012692919162964882109_);}
	.st16{fill:#231F20;}
	.st17{fill:none;stroke:#231F20;stroke-width:2.8;stroke-miterlimit:10;}
	.st18{fill:none;stroke:#231F20;stroke-width:2.8;stroke-linejoin:round;stroke-miterlimit:10;}
	.st19{fill:none;stroke:#010101;stroke-width:2.8;stroke-miterlimit:10;}
	.st20{fill:none;stroke:#010101;stroke-width:5.6693;stroke-linecap:round;stroke-miterlimit:10;}
	.st21{fill:none;stroke:#010101;stroke-width:5.6;stroke-linecap:round;stroke-miterlimit:10;}
	.st22{fill:none;stroke:#010101;stroke-width:2.8;stroke-linecap:round;stroke-miterlimit:10;}
	.st23{fill:none;stroke:#010101;stroke-width:2.8;stroke-linejoin:round;stroke-miterlimit:10;}
	.st24{fill:#010101;}
	.st25{fill:none;stroke:#010101;stroke-width:3.5;stroke-linecap:round;stroke-linejoin:round;stroke-miterlimit:10;}
	.st26{fill:none;stroke:#010101;stroke-width:3.5;stroke-miterlimit:10;}
	.st27{fill:#C0787C;}
	.st28{fill:none;stroke:#000000;stroke-width:3.5;stroke-linecap:round;stroke-miterlimit:10;}
	.st29{fill:none;stroke:#010101;stroke-width:3.5;stroke-miterlimit:9.9994;}
	.st30{fill:none;stroke:#010101;stroke-width:3.5;stroke-linejoin:round;stroke-miterlimit:10;}
	.st31{fill:none;stroke:#010101;stroke-width:3.5;stroke-linecap:round;stroke-miterlimit:10;}
	.st32{fill:none;stroke:#000000;stroke-width:3.5;stroke-miterlimit:10;}
	.st33{fill:#EE2726;}
	.st34{fill:#FFFFFF;stroke:#000000;stroke-width:3.5;stroke-linecap:round;stroke-linejoin:round;stroke-miterlimit:10;}
	.st35{fill:none;stroke:#000000;stroke-width:3.5;stroke-linejoin:round;stroke-miterlimit:10;}
	.st36{fill:#7C7C7C;}
	.st37{fill:none;stroke:#3D3D3D;stroke-width:3.5;stroke-linejoin:round;stroke-miterlimit:10;}
	.st38{fill:#FFFFFF;}
	.st39{fill:#705D5A;}
	.st40{fill:#A4DAD8;}
	.st41{fill:#FCD7CC;}
	.st42{clip-path:url(#SVGID_00000067925180481838210970000005086482053205553589_);fill:#F187B7;}
	.st43{fill:#E8A7CB;}
	.st44{fill:#ECB985;}
	.st45{fill:#4EB748;}
	.st46{fill:#4571B7;}
	.st47{fill:#FED110;}
	.st48{fill:#ED2324;}
	.st49{fill:none;stroke:#010101;stroke-width:4;stroke-linecap:round;stroke-linejoin:round;stroke-miterlimit:10;}
	.st50{fill:#F187B7;}
	.st51{fill:none;stroke:#010101;stroke-width:2;stroke-linecap:round;stroke-linejoin:round;stroke-miterlimit:10;}
	.st52{fill:#EAA0C6;}
	.st53{fill:none;stroke:#010101;stroke-width:3;stroke-linecap:round;stroke-linejoin:round;stroke-miterlimit:10;}
	.st54{fill:#7CC580;}
	.st55{fill:none;stroke:#010101;stroke-width:2.8346;stroke-miterlimit:10;}
	.st56{fill:none;stroke:#010101;stroke-width:2.8346;stroke-linejoin:round;stroke-miterlimit:10;}
	.st57{fill:#4F67B0;}
	.st58{fill:#E98E24;}
	.st59{fill:#FFE0A1;}
	.st60{fill:#E2B86F;}
	.st61{fill:#BE873D;stroke:#BE873D;stroke-width:0.5;stroke-miterlimit:10;}
	.st62{fill:none;stroke:#545554;stroke-width:2;stroke-linecap:round;stroke-miterlimit:10;}
	.st63{fill:none;stroke:#4F67B0;stroke-width:3.5;stroke-linejoin:round;stroke-miterlimit:10;}
	.st64{fill:none;stroke:#4F67B0;stroke-width:3.5;stroke-linecap:round;stroke-linejoin:round;stroke-miterlimit:10;}
	.st65{clip-path:url(#SVGID_00000016796802733082234860000004930915591599554228_);}
	.st66{clip-path:url(#SVGID_00000164488236863189514000000006036791843418053543_);}
	.st67{clip-path:url(#SVGID_00000101784228199854301750000000093422313735379112_);}
	.st68{clip-path:url(#SVGID_00000128475984677061475220000001876441996949505699_);}
	.st69{fill:#9F51A0;}
	.st70{fill:#D2D2D1;}
	.st71{fill:#C68141;}
	.st72{fill:#B66943;}
	.st73{clip-path:url(#SVGID_00000077317987142442693450000003741098126649414838_);fill:#ED2324;}
	.st74{clip-path:url(#SVGID_00000166665179529656875530000010187335296198203806_);}
	.st75{fill:#63C2EE;}
	.st76{fill:#A5DDEF;}
	.st77{fill:none;stroke:#E4F5FD;stroke-width:2;stroke-miterlimit:10;}
	.st78{fill:#71C1D3;}
	.st79{fill:#BEE2D1;}
	.st80{clip-path:url(#SVGID_00000173161519410972576050000013952121189971662729_);}
	.st81{fill:none;stroke:#A5D3BC;stroke-miterlimit:10;}
	.st82{clip-path:url(#SVGID_00000013887776283701199780000003054254940237020577_);}
	.st83{fill:#D1E9F2;}
	.st84{fill:#E4F5FD;}
	.st85{fill:#536367;}
	.st86{fill:none;stroke:#098EB2;stroke-miterlimit:10;}
	.st87{fill:#82D4F6;}
	.st88{fill:#088EB2;}
	.st89{fill:#098EB2;}
	.st90{fill:#83D4F5;stroke:#098EB2;stroke-miterlimit:10;}
	.st91{clip-path:url(#SVGID_00000127746016040723119090000011692802962963819192_);}
	.st92{fill:none;stroke:#088EB2;stroke-miterlimit:10;}
	.st93{clip-path:url(#SVGID_00000109722249274649544970000015511771297271458710_);}
	.st94{fill:#83D4F5;stroke:#088EB2;stroke-miterlimit:10;}
	.st95{fill:#BEC1E2;}
	.st96{fill:#EFF0F8;}
	.st97{clip-path:url(#SVGID_00000125568184672830062810000015350776703485013690_);}
	.st98{clip-path:url(#SVGID_00000013158968246559645800000000825386067873078448_);}
	.st99{clip-path:url(#SVGID_00000178890609407483019540000008240616627687188105_);}
	.st100{clip-path:url(#SVGID_00000152955393448383089080000009730813792909415576_);}
	.st101{clip-path:url(#SVGID_00000182494037584417564960000003225198983229929882_);}
	.st102{clip-path:url(#SVGID_00000037683968576487814570000012604707952822402177_);}
	.st103{clip-path:url(#SVGID_00000150783107468663679410000016091821690254275767_);}
	.st104{clip-path:url(#SVGID_00000180357949970370444380000007478947671974181505_);}
	.st105{clip-path:url(#SVGID_00000029044559202396115860000006582091424907535007_);}
	.st106{clip-path:url(#SVGID_00000120544957544564995580000006151741647018860219_);}
	.st107{clip-path:url(#SVGID_00000003075170892987505770000011589689875022708623_);}
	.st108{clip-path:url(#SVGID_00000009556666253838724210000002915740687086574738_);}
	.st109{clip-path:url(#SVGID_00000065069391494332559350000016979027566864385214_);}
	.st110{clip-path:url(#SVGID_00000172438064993207479460000014492994753598850961_);}
	.st111{clip-path:url(#SVGID_00000132769677731106283340000009645705321494881465_);}
</style>
<path d="M64.8744-17.7552c0-4.161-2.6129-7.5947-5.9501-8.0084c-0.4205-0.4716-0.9359-0.854-1.5294-1.0972v-2.6497
	c0-9.5552-7.7734-17.3286-17.3291-17.3286s-17.3291,7.7734-17.3291,17.3286v2.7844c-0.4753,0.2388-0.896,0.5614-1.2466,0.9548
	c-3.3378,0.4139-5.9506,3.8475-5.9506,8.0084c0,4.1611,2.613,7.5949,5.9511,8.0085c0.7661,0.8591,1.8686,1.4114,3.1075,1.4114
	c2.3047,0,4.1797-1.875,4.1797-4.1797v-10.481c0-1.7231-1.0488-3.2048-2.541-3.8435v-2.6633c0-7.625,6.2041-13.8286,13.8291-13.8286
	s13.8291,6.2036,13.8291,13.8286v2.8256c-1.3348,0.6987-2.2578,2.0814-2.2578,3.6896v10.481c0,1.6779,0.9998,3.1183,2.4297,3.783
	v0.4866c0,1.0259-0.835,1.8608-1.8613,1.8608h-5.6127c-0.7486-1.7697-2.5023-3.0146-4.5416-3.0146h-3.6875
	c-2.7178,0-4.9297,2.2109-4.9297,4.9287s2.2119,4.9287,4.9297,4.9287h3.6875c2.1599,0,3.9794-1.4054,4.6437-3.3428h5.5106
	c2.9561,0,5.3613-2.4048,5.3613-5.3608v-0.4866c0.5219-0.2426,0.9794-0.5906,1.358-1.0153
	C62.2618-10.1609,64.8744-13.5944,64.8744-17.7552z M20.4184-21.5064v7.4867c-0.8253-0.8292-1.3789-2.2115-1.3789-3.7433
	S19.5931-20.6772,20.4184-21.5064z M25.2778-12.5228c0,0.375-0.3047,0.6797-0.6797,0.6797s-0.6797-0.3047-0.6797-0.6797v-10.481
	c0-0.375,0.3047-0.6797,0.6797-0.6797s0.6797,0.3047,0.6797,0.6797V-12.5228z M42.0512-3.0413h-3.6875
	c-0.7881,0-1.4297-0.6411-1.4297-1.4287s0.6416-1.4287,1.4297-1.4287h3.6875c0.7881,0,1.4287,0.6411,1.4287,1.4287
	S42.8393-3.0413,42.0512-3.0413z M55.1371-22.9954c0-0.375,0.3047-0.6797,0.6797-0.6797s0.6797,0.3047,0.6797,0.6797v10.481
	c0,0.375-0.3047,0.6797-0.6797,0.6797s-0.6797-0.3047-0.6797-0.6797V-22.9954z M59.9965-14.0128v-7.4847
	c0.8245,0.8292,1.3779,2.2111,1.3779,3.7424S60.821-14.8421,59.9965-14.0128z"/>
<g>
	<circle class="st0" cx="87.0073" cy="84" r="80.0012"/>
	<g>
		
			<image style="overflow:visible;" width="689" height="580" xlink:href="7B86725A.png"  transform="matrix(0.24 0 0 0.24 1.1211 17.6899)">
		</image>
	</g>
	<path class="st96" d="M131.8491,57.4728l-5.1188-5.1188c-2.418-2.418-6.3384-2.418-8.7562,0L78.5299,91.7982L55.7286,68.9968
		c-2.0016-2.0016-5.247-2.0016-7.2485,0l-6.6267,6.6265c-2.0016,2.0016-2.0016,5.247,0,7.2486L74.94,115.9583
		c2.0016,2.0016,5.2468,2.0016,7.2484,0l6.6267-6.6267c0.1164-0.1164,0.2029-0.25,0.3059-0.3744l42.7282-42.7282
		C134.2669,63.811,134.2669,59.8908,131.8491,57.4728z"/>
	<g>
		<defs>
			<circle id="SVGID_00000148626501869757778580000015557519818977025671_" cx="87.0073" cy="84" r="80.0012"/>
		</defs>
		<clipPath id="SVGID_00000055703257695970871750000008657951672269070769_">
			<use xlink:href="#SVGID_00000148626501869757778580000015557519818977025671_"  style="overflow:visible;"/>
		</clipPath>
		<g style="clip-path:url(#SVGID_00000055703257695970871750000008657951672269070769_);">
			
				<image style="overflow:visible;" width="1326" height="1222" xlink:href="7B86725D.png"  transform="matrix(0.24 0 0 0.24 -69.1989 -53.8301)">
			</image>
		</g>
	</g>
</g>
</svg>
