<svg width="24" height="24" viewBox="0 0 24 24" fill="none" xmlns="http://www.w3.org/2000/svg">
<g clip-path="url(#clip0_96_48)">
<path d="M12 0.700012C5.69995 0.700012 0.699951 5.70001 0.699951 12C0.699951 18.3 5.79995 23.3 12 23.3C18.2 23.3 23.2999 18.3 23.2999 12C23.2999 5.70001 18.3 0.700012 12 0.700012ZM7.29995 19.9C7.49995 17.3 9.49995 15.2 12 15.2C14.5 15.2 16.5 17.2 16.7 19.8C15.3 20.7 13.6 21.2 11.9 21.2C10.3 21.2 8.69995 20.7 7.29995 19.9ZM12.1 12.7C10.9 12.7 9.79995 11.7 9.79995 10.4C9.79995 9.10001 10.8 8.10001 12.1 8.10001C13.4 8.10001 14.4 9.10001 14.4 10.4C14.4 11.7 13.3 12.7 12.1 12.7ZM18.7 18.3C18.1 16.3 16.8 14.7 15 13.8C15.9 13 16.4 11.8 16.4 10.5C16.4 8.10001 14.4 6.10001 12 6.10001C9.59995 6.10001 7.59995 8.10001 7.59995 10.5C7.59995 11.8 8.19995 12.9 8.99995 13.8C7.19995 14.7 5.79995 16.4 5.29995 18.5C3.69995 16.8 2.69995 14.6 2.69995 12.1C2.69995 7.00001 6.79995 2.90001 11.9 2.90001C17 2.90001 21.1 7.00001 21.1 12.1C21.2 14.4 20.2 16.6 18.7 18.3Z" fill="#8B8B8B"/>
</g>
<defs>
<clipPath id="clip0_96_48">
<rect width="24" height="24" fill="white"/>
</clipPath>
</defs>
</svg>
