<svg width="24" height="24" viewBox="0 0 24 24" fill="none" xmlns="http://www.w3.org/2000/svg">
<path d="M22.4 21L17.7 16.1L17.6 16C18.9 14.4 19.6 12.4 19.6 10.3C19.6 5.20001 15.5 1.10001 10.4 1.10001C5.29995 1.10001 1.19995 5.20001 1.19995 10.3C1.19995 15.4 5.29995 19.5 10.4 19.5C12.5 19.5 14.5 18.8 16 17.6L16.1 17.7L20.7999 22.6C20.9999 22.8 21.3 22.9 21.6 22.9C21.9 22.9 22.1 22.8 22.4 22.6C22.8 22.1 22.8 21.4 22.4 21ZM10.4 17.3C6.49995 17.3 3.39995 14.2 3.39995 10.3C3.39995 6.40001 6.49995 3.30001 10.4 3.30001C14.3 3.30001 17.4 6.40001 17.4 10.3C17.4 14.2 14.3 17.3 10.4 17.3Z" fill="white"/>
</svg>
