<svg width="24" height="24" viewBox="0 0 24 24" fill="none" xmlns="http://www.w3.org/2000/svg">
<path d="M22 8.1C21.7 7.9 21.3 7.6 20.9 7.2L14.3 2C13 1 11 1 9.70003 2L3.20003 7.2C2.70003 7.6 2.30003 7.9 2.00003 8.1C1.40003 8.5 1.00003 8.9 1.10003 9.5C1.10003 9.7 1.10003 10.4 1.10003 11.4V19.3C1.10003 21.2 2.60003 22.7 4.50003 22.7H19.2C21.1 22.7 22.6 21.2 22.6 19.3V11.4C22.6 10.4 22.6 9.8 22.6 9.5C22.9 8.9 22.5 8.5 22 8.1ZM13.8 20.6H9.90003V15.6C9.90003 14.5 10.8 13.7 11.8 13.7C12.9 13.7 13.7 14.6 13.7 15.6V20.6H13.8ZM20.7 9.9C20.7 10.3 20.7 10.8 20.7 11.3V19.2C20.7 19.9 20.1 20.5 19.4 20.5H15.9V15.5C15.9 13.2 14.1 11.4 11.8 11.4C9.50003 11.4 7.70003 13.2 7.70003 15.5V20.5H4.60003C3.90003 20.5 3.30003 19.9 3.30003 19.2V11.3C3.30003 10.7 3.30003 10.2 3.30003 9.9V9.8C3.60003 9.6 4.00003 9.3 4.50003 8.9L11.1 3.7C11.6 3.3 12.5 3.3 12.9 3.7L19.5 8.9C20 9.3 20.4 9.6 20.7 9.9Z" fill="white"/>
</svg>
