<svg width="24" height="24" viewBox="0 0 24 24" fill="none" xmlns="http://www.w3.org/2000/svg">
<path d="M20.0999 14V8.1C20.0999 5.4 17.7999 3.1 14.4999 2.3C14.3999 1 13.2999 0 11.9999 0C10.6999 0 9.5999 1 9.4999 2.2C6.2999 3.1 3.8999 5.4 3.8999 8.1V14C2.6999 14.5 1.8999 15.8 1.8999 17.3C1.8999 19.2 3.2999 20.8 4.9999 20.8H7.9999C8.1999 22.5 9.9999 23.9 11.9999 23.9C13.9999 23.9 15.7999 22.5 15.9999 20.8H18.9999C20.6999 20.8 22.0999 19.2 22.0999 17.3C22.0999 15.8 21.1999 14.5 20.0999 14ZM11.9999 21.7C11.1999 21.7 10.3999 21.3 10.1999 20.7H13.7999C13.5999 21.3 12.7999 21.7 11.9999 21.7ZM18.9999 18.6H4.9999C4.4999 18.6 4.0999 18 4.0999 17.2C4.0999 16.4 4.5999 15.8 4.9999 15.8C5.5999 15.8 6.0999 15.3 6.0999 14.7V8C6.0999 6 8.7999 4.2 11.9999 4.2C15.1999 4.2 17.8999 6 17.8999 8.1V14.6V14.8C17.8999 15.4 18.3999 15.9 18.9999 15.9C19.4999 15.9 19.8999 16.5 19.8999 17.3C19.8999 18.1 19.3999 18.6 18.9999 18.6Z" fill="white"/>
</svg>
