<svg width="24" height="24" viewBox="0 0 24 24" fill="none" xmlns="http://www.w3.org/2000/svg">
<path d="M17.5001 8.99999H6.4001C5.8001 8.99999 5.3001 8.49999 5.3001 7.89999C5.3001 7.29999 5.8001 6.79999 6.4001 6.79999H17.5001C18.1001 6.79999 18.6001 7.29999 18.6001 7.89999C18.6001 8.49999 18.1001 8.99999 17.5001 8.99999ZM15.4001 12.7C15.4001 12.1 14.9001 11.6 14.3001 11.6H6.1001C5.5001 11.6 5.0001 12.1 5.0001 12.7C5.0001 13.3 5.5001 13.8 6.1001 13.8H14.3001C15.0001 13.8 15.4001 13.3 15.4001 12.7ZM3.3001 22.4L7.8001 18.9H17.9001C20.4001 18.9 22.4001 16.9 22.4001 14.4V5.89999C22.4001 3.39999 20.4001 1.39999 17.9001 1.39999H6.1001C3.6001 1.39999 1.6001 3.39999 1.6001 5.89999V21.6C1.6001 22 1.8001 22.4 2.2001 22.6C2.4001 22.7 2.5001 22.7 2.7001 22.7C2.9001 22.7 3.1001 22.6 3.3001 22.4ZM17.9001 3.49999C19.2001 3.49999 20.3001 4.59999 20.3001 5.89999V14.5C20.3001 15.8 19.2001 16.9 17.9001 16.9H7.4001C7.2001 16.9 6.9001 17 6.7001 17.1L3.6001 19.5V5.89999C3.6001 4.59999 4.7001 3.49999 6.0001 3.49999H17.9001Z" fill="white"/>
</svg>
