<svg width="24" height="24" viewBox="0 0 24 24" fill="none" xmlns="http://www.w3.org/2000/svg">
<path d="M14.5 4C14.2 3.4 13.7 3 13.1 2.8C12.5 2.6 11.8 2.6 11.2 2.9C10.2 3.4 9.70001 4.5 9.90001 5.5L5.00001 9.5L2.80001 10.6C1.70001 11.2 0.90001 12.1 0.50001 13.3C0.10001 14.5 0.20001 15.8 0.80001 16.9C1.70001 18.7 3.60001 19.6 5.50001 19.5C5.70001 19.5 5.90001 19.4 6.10001 19.4L7.70001 22.6C8.00001 23.1 8.40001 23.5 9.00001 23.7C9.30001 23.8 9.60001 23.8 9.90001 23.8C10.2 23.8 10.4 23.7 10.7 23.6C11.8 23 12.3 21.7 11.7 20.6L10.3 17.7L15.4 16.4L15.5 16.6C16 17.5 17 18 17.9 17.9C18.2 17.9 18.5 17.8 18.7 17.7C19.3 17.4 19.7 16.9 19.9 16.3C20.1 15.7 20.1 15 19.8 14.4L14.5 4ZM2.20001 16.1C1.80001 15.4 1.80001 14.6 2.00001 13.8C2.30001 13 2.80001 12.4 3.50001 12.1L5.00001 11.3L7.70001 16.6L6.20001 17.4C4.70001 18.2 2.90001 17.6 2.20001 16.1ZM9.80001 22C9.70001 22.1 9.50001 22.1 9.40001 22C9.30001 22 9.10001 21.9 9.10001 21.7L7.60001 18.6L8.60001 18.1L10.1 21.2C10.2 21.5 10.1 21.8 9.80001 22ZM9.30001 16L6.50001 10.4L10.4 7.2L14.2 14.8L9.30001 16ZM18.2 15.6C18.1 15.8 18 15.9 17.8 16C17.6 16.1 17.4 16.1 17.2 16C17 15.9 16.9 15.8 16.8 15.6L11.6 5.4C11.4 5 11.6 4.6 11.9 4.4C12 4.4 12.1 4.3 12.2 4.3C12.5 4.3 12.8 4.4 12.9 4.7L18.1 15C18.2 15.2 18.2 15.4 18.2 15.6Z" fill="#3D3D3D"/>
<path d="M22.7001 5.3C21.3001 2.8 18.5001 1.4 16.4001 2.2C16.0001 2.4 15.7001 2.9 15.9001 3.3C16.0001 3.7 16.5001 3.9 17.0001 3.8C18.3001 3.3 20.3001 4.4 21.3001 6.1C22.2001 7.8 22.0001 10.1 20.9001 10.9C20.5001 11.2 20.4001 11.7 20.7001 12.1C20.9001 12.4 21.2001 12.5 21.5001 12.4C21.6001 12.4 21.8001 12.3 21.9001 12.2C23.7001 11 24.1001 7.8 22.7001 5.3Z" fill="#3D3D3D"/>
<path d="M20.2 6.6C19.5 5.3 18.1 4.8 17 5.1C16.5 5.2 16.3 5.7 16.4 6.1C16.5 6.6 17 6.8 17.4 6.7C17.7 6.6 18.4 6.8 18.7 7.4C19 8 18.8 8.7 18.6 8.9C18.3 9.2 18.2 9.8 18.6 10.1C18.8 10.3 19 10.4 19.3 10.4C19.5 10.4 19.7 10.3 19.8 10.2C20.5 9.4 20.9 8 20.2 6.6Z" fill="#3D3D3D"/>
</svg>
