<svg width="24" height="24" viewBox="0 0 24 24" fill="none" xmlns="http://www.w3.org/2000/svg">
<g clip-path="url(#clip0_177_719)">
<path d="M21.2001 6.1H21.1001V3C21.1001 2.2 20.8001 1.5 20.3001 0.9C19.8001 0.3 19.1001 0 18.3001 0C17.6001 0 16.9001 0.3 16.3001 0.9C15.8001 1.5 15.5001 2.2 15.5001 3V3.1L8.6001 4.8H5.6001C2.6001 4.8 0.100098 7.4 0.100098 10.7C0.100098 13.5 2.0001 15.9 4.5001 16.5V21.3C4.5001 22 4.8001 22.7 5.2001 23.2C5.6001 23.7 6.3001 24 7.0001 24C8.4001 24 9.5001 22.8 9.5001 21.3V16.8L15.5001 18.3C15.5001 19 15.8001 19.7 16.3001 20.2C16.8001 20.8 17.5001 21.1 18.3001 21.1C19.0001 21.1 19.7001 20.8 20.3001 20.2C20.8001 19.6 21.1001 18.9 21.1001 18.1V14C21.1001 14 21.1001 14 21.2001 14C21.3001 14 21.4001 14 21.4001 14C22.7001 13.6 24.0001 12.1 24.0001 10C23.9001 7.9 22.5001 6.5 21.2001 6.1ZM1.7001 10.6C1.7001 8.3 3.4001 6.5 5.5001 6.5H7.8001V14.7H5.5001C3.4001 14.8 1.7001 12.9 1.7001 10.6ZM7.0001 22.2C6.8001 22.2 6.5001 22.1 6.4001 21.9C6.2001 21.7 6.1001 21.5 6.1001 21.2V16.5H7.8001V21.2C7.8001 21.8 7.4001 22.2 7.0001 22.2ZM9.5001 6.4L15.5001 4.9V16.5L9.5001 15V6.4ZM19.4001 18.1C19.4001 18.4 19.3001 18.7 19.1001 18.9C18.9001 19.1 18.6001 19.2 18.3001 19.2C18.0001 19.2 17.7001 19.1 17.5001 18.8C17.3001 18.6 17.2001 18.3 17.2001 18V2.9C17.2001 2.6 17.3001 2.3 17.5001 2.1C17.7001 1.9 18.0001 1.8 18.3001 1.8C18.6001 1.8 18.9001 1.9 19.1001 2.2C19.3001 2.4 19.4001 2.7 19.4001 3V18.1ZM21.1001 12.1V7.9C21.7001 8.2 22.3001 9 22.3001 9.9C22.3001 11 21.7001 11.8 21.1001 12.1Z" fill="#3D3D3D"/>
</g>
<defs>
<clipPath id="clip0_177_719">
<rect width="24" height="24" fill="white"/>
</clipPath>
</defs>
</svg>
