<svg width="24" height="24" viewBox="0 0 24 24" fill="none" xmlns="http://www.w3.org/2000/svg">
<path d="M6.6001 9.9H14.7001C15.2001 9.9 15.6001 9.5 15.6001 9C15.6001 8.5 15.2001 8.1 14.7001 8.1H6.6001C6.1001 8.1 5.6001 8.5 5.6001 9C5.6001 9.5 6.1001 9.9 6.6001 9.9Z" fill="#3D3D3D"/>
<path d="M6.59995 14.6H12.3C12.8 14.6 13.2 14.2 13.2 13.7C13.2 13.2 12.8 12.8 12.3 12.8H6.59995C6.09995 12.8 5.69995 13.2 5.69995 13.7C5.69995 14.2 6.09995 14.6 6.59995 14.6Z" fill="#3D3D3D"/>
<path d="M6.59995 17.3C6.09995 17.3 5.69995 17.7 5.69995 18.2C5.69995 18.7 6.09995 19.1 6.59995 19.1H15.5C16 19.1 16.4 18.7 16.4 18.2C16.4 17.7 16 17.3 15.5 17.3H6.59995Z" fill="#3D3D3D"/>
<path d="M23.4 4.3C23.3 1.9 21.4 0.1 19.1 0.1H6.60005C4.20005 0.1 2.30005 2.1 2.30005 4.5C2.30005 4.6 2.30005 4.6 2.30005 4.7V21C2.30005 22.6 3.60005 23.9 5.20005 23.9H16.7C18.3 23.9 19.6 22.6 19.6 21V5.5H22.2001C22.8001 5.5 23.2 5 23.3 4.5C23.4 4.4 23.4 4.3 23.4 4.3ZM17.9 21C17.9 21.6 17.4 22.1 16.8 22.1H5.30005C4.70005 22.1 4.20005 21.6 4.20005 21V4.8V4.5C4.20005 3.1 5.30005 1.9 6.60005 1.9C7.70005 1.9 8.60005 2.6 8.90005 3.7C9.00005 3.9 9.00005 4.2 9.10005 4.5V4.6C9.20005 5.1 9.60005 5.5 10.1 5.5H15.8H18V21H17.9ZM19.5 3.6H15.7H10.8C10.7 3 10.4 2.4 10.1 1.9C10.1 1.9 10.1 1.9 10.1 1.8H16.7H16.8H16.9L19 1.9H19.1C20.1 1.9 21 2.6 21.4 3.6H19.5Z" fill="#3D3D3D"/>
</svg>
