<svg width="24" height="24" viewBox="0 0 24 24" fill="none" xmlns="http://www.w3.org/2000/svg">
<g clip-path="url(#clip0_149_19)">
<path d="M24 14.6C24 12.6 22.7 10.9 21.1 10.7C20.9 10.5 20.6 10.3 20.4 10.2V8.9C20.4 4.3 16.6 0.5 12 0.5C7.4 0.5 3.5 4.3 3.5 8.9V10.2C3.3 10.3 3.1 10.5 2.9 10.7C1.3 10.9 0 12.6 0 14.6C0 16.6 1.3 18.3 2.9 18.5C3.3 18.9 3.8 19.2 4.4 19.2C5.5 19.2 6.4 18.3 6.4 17.2V12.1C6.4 11.3 5.9 10.5 5.2 10.2V8.9C5.2 5.2 8.2 2.2 11.9 2.2C15.6 2.2 18.6 5.2 18.6 8.9V10.3C18 10.6 17.5 11.3 17.5 12.1V17.2C17.5 18 18 18.7 18.7 19V19.2C18.7 19.7 18.3 20.1 17.8 20.1H15.1C14.7 19.2 13.9 18.6 12.9 18.6H11.1C9.8 18.6 8.7 19.7 8.7 21C8.7 22.3 9.8 23.4 11.1 23.4H12.9C13.9 23.4 14.8 22.7 15.1 21.8H17.8C19.2 21.8 20.4 20.6 20.4 19.2V19C20.7 18.9 20.9 18.7 21.1 18.5C22.7 18.3 24 16.6 24 14.6ZM2.4 12.8V16.4C2 16 1.7 15.4 1.7 14.6C1.7 13.8 2 13.2 2.4 12.8ZM4.8 17.2C4.8 17.4 4.7 17.5 4.5 17.5C4.3 17.5 4.2 17.4 4.2 17.2V12.1C4.2 11.9 4.3 11.8 4.5 11.8C4.7 11.8 4.8 11.9 4.8 12.1V17.2ZM12.9 21.8H11.1C10.7 21.8 10.4 21.5 10.4 21.1C10.4 20.7 10.7 20.4 11.1 20.4H12.9C13.3 20.4 13.6 20.7 13.6 21.1C13.6 21.5 13.3 21.8 12.9 21.8ZM19.2 12.1C19.2 11.9 19.3 11.8 19.5 11.8C19.7 11.8 19.8 11.9 19.8 12.1V17.2C19.8 17.4 19.7 17.5 19.5 17.5C19.3 17.5 19.2 17.4 19.2 17.2V12.1ZM21.6 16.4V12.8C22 13.2 22.3 13.9 22.3 14.6C22.3 15.3 22 16 21.6 16.4Z" fill="#3D3D3D"/>
</g>
<defs>
<clipPath id="clip0_149_19">
<rect width="24" height="24" fill="white"/>
</clipPath>
</defs>
</svg>
