<svg width="24" height="24" viewBox="0 0 24 24" fill="none" xmlns="http://www.w3.org/2000/svg">
<g clip-path="url(#clip0_149_23)">
<path d="M4.20005 9.1H19C19.5 9.1 19.9 8.7 19.9 8.2C19.9 7.7 19.5 7.3 19 7.3H4.20005C3.70005 7.3 3.30005 7.7 3.30005 8.2C3.30005 8.7 3.70005 9.1 4.20005 9.1Z" fill="#3D3D3D"/>
<path d="M5.9 10.9H4.1C3.8 10.9 3.5 11.2 3.5 11.5V12.9C3.5 13.2 3.8 13.5 4.1 13.5H5.9C6.2 13.5 6.5 13.2 6.5 12.9V11.5C6.5 11.2 6.2 10.9 5.9 10.9Z" fill="#3D3D3D"/>
<path d="M10.3001 10.9H8.50015C8.20015 10.9 7.90015 11.2 7.90015 11.5V12.9C7.90015 13.2 8.20015 13.5 8.50015 13.5H10.3001C10.6001 13.5 10.9001 13.2 10.9001 12.9V11.5C10.9001 11.2 10.6001 10.9 10.3001 10.9Z" fill="#3D3D3D"/>
<path d="M5.9 15H4.1C3.8 15 3.5 15.3 3.5 15.6V17C3.5 17.3 3.8 17.6 4.1 17.6H5.9C6.2 17.6 6.5 17.3 6.5 17V15.6C6.5 15.3 6.2 15 5.9 15Z" fill="#3D3D3D"/>
<path d="M10.3001 15H8.50015C8.20015 15 7.90015 15.3 7.90015 15.6V17C7.90015 17.3 8.20015 17.6 8.50015 17.6H10.3001C10.6001 17.6 10.9001 17.3 10.9001 17V15.6C10.9001 15.3 10.6001 15 10.3001 15Z" fill="#3D3D3D"/>
<path d="M23 14.8V4.4C23 2.9 21.8 1.7 20.3 1.7H19V0.9C19 0.4 18.6 0 18.1 0C17.6 0 17.2001 0.4 17.2001 0.9V1.7H6.00005V0.9C6.00005 0.4 5.60005 0 5.10005 0C4.60005 0 4.30005 0.4 4.30005 0.9V1.7H2.90005C1.50005 1.8 0.300049 3 0.300049 4.4V19.1C0.300049 20.6 1.50005 21.8 3.00005 21.8H11.5V21.9C11.5 23 12.4 23.9 13.5 23.9C14.6 23.9 15.5 23 15.5 21.9V21.8H17.6C18 22.6 18.8 23.1 19.8 23.1C21.1 23.1 22.2001 22.1 22.2001 20.9V18.8C22.5 18.7 22.7 18.6 22.9 18.4C23.4 18 23.7001 17.3 23.7001 16.6C23.7001 15.9 23.4 15.2 23 14.8ZM13 14.4H14V18.7H13V14.4ZM17.4 13.7V19.5L15.7 18.9V14.4L17.4 13.7ZM19.2001 20.2V13V12.1C19.2001 11.9 19.5 11.7 19.9 11.7C20.3 11.7 20.6 11.9 20.6 12.1V20V20.9C20.6 21.1 20.3 21.3 19.9 21.3C19.5 21.3 19.2001 21.1 19.2001 20.9V20.2ZM2.90005 20.1C2.40005 20.1 2.00005 19.7 2.00005 19.2V4.4C2.00005 3.9 2.40005 3.5 2.90005 3.5H4.20005V4.3C4.20005 4.8 4.60005 5.2 5.10005 5.2C5.60005 5.2 6.00005 4.7 6.00005 4.3V3.5H17.2001V4.3C17.2001 4.8 17.6 5.2 18.1 5.2C18.6 5.2 19 4.8 19 4.3V3.5H20.3C20.8 3.5 21.2001 3.9 21.2001 4.4V10.4C20.8001 10.1 20.3 10 19.8 10C18.6 10 17.6 10.8 17.4 11.9L15.2 12.7V11.6C15.2 11.3 14.9 11 14.6 11H12.8C12.5 11 12.2 11.3 12.2 11.6V12.7C11.6 12.8 11.2 13.4 11.2 14V19.2C11.2 19.5 11.3 19.8 11.5 20V20.2H2.90005V20.1ZM13.2 21.8V20.4H13.7V21.8H13.2Z" fill="#3D3D3D"/>
</g>
<defs>
<clipPath id="clip0_149_23">
<rect width="24" height="24" fill="white"/>
</clipPath>
</defs>
</svg>
