<svg width="24" height="24" viewBox="0 0 24 24" fill="none" xmlns="http://www.w3.org/2000/svg">
<g clip-path="url(#clip0_177_684)">
<path d="M4.20005 10H12.2C12.7 10 13.1 9.60001 13.1 9.10001C13.1 8.60001 12.7 8.20001 12.2 8.20001H4.20005C3.70005 8.20001 3.30005 8.60001 3.30005 9.10001C3.30005 9.60001 3.70005 10 4.20005 10Z" fill="#3D3D3D"/>
<path d="M21.4001 8.99999H21.3001L17.1001 9.99999V5.59999H19.6001C20.2001 5.59999 20.6001 5.19999 20.6001 4.59999C20.6001 4.49999 20.6001 4.49999 20.6001 4.39999C20.5001 2.09999 18.6001 0.299988 16.4001 0.299988H4.3001C2.0001 0.299988 0.100098 2.29999 0.100098 4.69999C0.100098 4.79999 0.100098 4.79999 0.100098 4.89999V20.8C0.100098 22.4 1.4001 23.7 3.0001 23.7H14.3001C14.6001 23.7 14.8001 23.7 15.1001 23.6C15.3001 23.7 15.6001 23.7 15.9001 23.7H16.5001C17.8001 23.7 18.8001 22.7 18.8001 21.4V20.2L21.5001 20.9H21.6001C23.0001 20.9 24.1001 19.8 24.1001 18.4V11.4C23.9001 10.1 22.8001 8.99999 21.4001 8.99999ZM14.3001 1.99999C14.5001 1.99999 14.7001 1.99999 14.9001 2.09999H16.6001C17.6001 2.09999 18.5001 2.79999 18.8001 3.79999H16.9001H13.2001H8.4001C8.3001 3.09999 8.0001 2.59999 7.7001 2.09999C7.7001 2.09999 7.7001 2.09999 7.7001 1.99999H14.3001ZM2.9001 21.9C2.3001 21.9 1.8001 21.4 1.8001 20.8V4.89999V4.59999C1.8001 3.19999 2.9001 1.99999 4.2001 1.99999C5.2001 1.99999 6.1001 2.69999 6.5001 3.79999C6.6001 3.99999 6.6001 4.29999 6.6001 4.59999C6.6001 4.59999 6.6001 4.59999 6.6001 4.69999C6.7001 5.19999 7.1001 5.59999 7.6001 5.59999H13.1001H15.2001V10.5L14.6001 10.6C13.8001 10.6 13.2001 11 12.8001 11.6H11.6001C10.7001 11.6 9.9001 12.1 9.5001 12.7H4.2001C3.7001 12.7 3.3001 13.1 3.3001 13.6C3.3001 14.1 3.7001 14.5 4.2001 14.5H9.3001V16.3C9.3001 16.6 9.4001 16.9 9.6001 17.2H4.2001C3.7001 17.2 3.3001 17.6 3.3001 18.1C3.3001 18.6 3.7001 19 4.2001 19H13.0001C13.2001 19 13.3001 19 13.5001 18.9H13.6001V21.4C13.6001 21.5 13.6001 21.7 13.6001 21.8H2.9001V21.9ZM12.4001 13.4V16.6H11.8001C11.4001 16.6 11.2001 16.4 11.2001 16.3V13.6C11.2001 13.5 11.4001 13.3 11.8001 13.3H12.4001V13.4ZM16.8001 21.5C16.8001 21.8 16.6001 22 16.3001 22H15.7001C15.4001 22 15.2001 21.8 15.2001 21.5V19.5L16.7001 19.9V21.5H16.8001ZM22.1001 18.5C22.1001 18.9 21.8001 19.2 21.5001 19.2L17.1001 18.1L15.3001 17.7L15.0001 17.6H14.9001C14.5001 17.6 14.2001 17.3 14.2001 16.9V13.1C14.2001 12.7 14.5001 12.4 14.9001 12.4H15.0001L15.3001 12.3L17.1001 11.9L21.5001 10.8C21.8001 10.8 22.1001 11.1 22.1001 11.5V18.5Z" fill="#3D3D3D"/>
</g>
<defs>
<clipPath id="clip0_177_684">
<rect width="24" height="24" fill="white"/>
</clipPath>
</defs>
</svg>
