<svg width="24" height="24" viewBox="0 0 24 24" fill="none" xmlns="http://www.w3.org/2000/svg">
<path d="M11.9 22.5C11.6 22.5 11.3 22.4 11.1 22.1L2.79995 13.3C2.59995 13.1 2.29995 12.8 2.09995 12.6C1.59995 12 1.19995 11.3 0.899951 10.5C0.799951 9.8 0.699951 9.1 0.699951 8.2C0.699951 4.5 3.49995 1.5 6.99995 1.5C8.99995 1.5 10.8 2.5 12 4.1C13.2 2.5 15 1.5 17 1.5C20.5 1.5 23.2999 4.5 23.2999 8.2C23.2999 9 23.1999 9.7 22.9 10.4C22.6 11.3 22.1 12.1 21.5 12.8L12.9 22C12.5 22.3 12.2 22.5 11.9 22.5ZM6.89995 3.4C4.39995 3.4 2.29995 5.6 2.29995 8.4C2.29995 9 2.39995 9.5 2.59995 10.1C2.79995 10.7 3.09995 11.2 3.49995 11.7C3.69995 11.9 3.79995 12.1 3.99995 12.2L11.9 20.6L20 11.9C20.5 11.4 20.9 10.8 21.1 10.1C21.3 9.6 21.4 9 21.4 8.4C21.4 5.7 19.2999 3.4 16.7999 3.4C14.9999 3.4 13.4 4.5 12.6 6.3C12.5 6.6 12.2 6.8 11.8 6.8C11.5 6.8 11.1 6.6 11 6.3C10.4 4.5 8.69995 3.4 6.89995 3.4Z" fill="#3D3D3D"/>
</svg>
