<svg width="24" height="24" viewBox="0 0 24 24" fill="none" xmlns="http://www.w3.org/2000/svg">
<path d="M21.7001 22.2H5.6001L10.7001 19.6C10.8001 19.5 10.9001 19.5 11.0001 19.4L15.2001 13.8L20.4001 6.9C20.9001 6.3 21.0001 5.5 20.9001 4.7C20.8001 3.9 20.4001 3.3 19.7001 2.8L16.9001 0.7C16.3001 0.2 15.5001 -1.93715e-07 14.7001 0.0999998C13.9001 0.2 13.2001 0.6 12.8001 1.2L7.6001 8L3.4001 13.6C3.3001 13.7 3.3001 13.8 3.3001 14L1.6001 22.8C1.6001 22.9 1.6001 23 1.6001 23.1C1.6001 23.6 2.0001 24 2.5001 24H21.9001C22.4001 24 22.8001 23.6 22.8001 23.1C22.6001 22.6 22.2001 22.2 21.7001 22.2ZM15.2001 6.6L8.0001 16.1L7.3001 15.6L14.4001 6.1L15.2001 6.6ZM8.6001 18.7L5.2001 20.5L3.8001 19.5L4.5001 15.8L8.6001 18.7ZM10.1001 17.7L9.4001 17.2L16.5001 7.7L17.2001 8.2L13.8001 12.7L10.1001 17.7ZM14.9001 1.8C15.2001 1.8 15.6001 1.9 15.8001 2.1L18.6001 4.2C19.0001 4.4 19.1001 4.7 19.2001 5C19.3001 5.3 19.2001 5.6 19.0001 5.8L18.3001 6.8L13.5001 3.2L14.2001 2.2C14.3001 2 14.6001 1.8 14.9001 1.8ZM9.0001 9.1L12.4001 4.6L13.1001 5.1L6.0001 14.5L5.2001 14L9.0001 9.1Z" fill="#3D3D3D"/>
</svg>
