<svg width="24" height="24" viewBox="0 0 24 24" fill="none" xmlns="http://www.w3.org/2000/svg">
<g clip-path="url(#clip0_149_14)">
<path d="M12 0.5C5.4 0.5 0 5 0 10.6C0 13.1 1.1 15.4 2.8 17.1L2 22.5C1.9 22.8 2.1 23.1 2.3 23.3C2.5 23.4 2.7 23.5 2.9 23.5C3 23.5 3.1 23.5 3.2 23.5L12 20.7C12 20.7 12 20.7 12.1 20.7C18.7 20.7 24 16.2 24 10.6C24 5 18.6 0.5 12 0.5ZM12 19C11.9 19 11.7 19 11.6 19H11.5L8 20.2L4 21.5L4.4 18.5L4.7 16.5C3 15 1.9 13 1.9 10.7C1.8 6 6.4 2.2 12 2.2C17.6 2.2 22.2 6 22.2 10.6C22.2 15.2 17.6 19 12 19Z" fill="#3D3D3D"/>
<path d="M11.7999 14.2C11.3999 14.2 11.0999 14.3 10.7999 14.6C10.4999 14.9 10.3999 15.2 10.3999 15.6C10.3999 16 10.4999 16.3 10.7999 16.6C11.0999 16.9 11.3999 17 11.7999 17C12.1999 17 12.4999 16.9 12.7999 16.6C13.0999 16.3 13.1999 16 13.1999 15.6C13.1999 15.2 13.0999 14.9 12.7999 14.6C12.4999 14.3 12.1999 14.2 11.7999 14.2Z" fill="#3D3D3D"/>
<path d="M14.8001 5.9C14.5001 5.6 14.1001 5.3 13.6001 5.1C13.1001 4.9 12.6001 4.8 12.0001 4.8C11.2001 4.8 10.4001 5 9.70012 5.4C9.00012 5.8 8.50012 6.4 8.20012 7.1C8.10012 7.5 8.20012 7.7 8.40012 7.9L9.70012 8.7C10.0001 8.8 10.2001 8.8 10.4001 8.4C10.5001 8.3 10.6001 8.1 10.7001 8C10.8001 7.9 11.0001 7.8 11.1001 7.7C11.2001 7.6 11.4001 7.5 11.6001 7.5C11.8001 7.4 11.9001 7.4 12.1001 7.4C12.5001 7.4 12.8001 7.5 13.0001 7.7C13.2001 7.9 13.4001 8.2 13.4001 8.6C13.4001 8.8 13.4001 8.9 13.3001 9.1C13.2001 9.3 13.1001 9.4 13.0001 9.5C12.9001 9.6 12.7001 9.8 12.5001 9.9C12.3001 10 12.2001 10.1 12.0001 10.3C11.2001 11 10.7001 11.7 10.7001 12.6C10.7001 12.8 10.7001 13 10.8001 13.1C10.9001 13.2 11.0001 13.2 11.2001 13.2H12.7001C12.8001 13.2 13.0001 13.2 13.0001 13.1C13.1001 13 13.1001 12.9 13.1001 12.7C13.1001 12.4 13.2001 12.2 13.5001 12C13.7001 11.8 13.9001 11.6 14.2001 11.4C14.7001 11.1 15.1001 10.6 15.4001 10.1C15.7001 9.6 15.9001 9 15.9001 8.4C15.9001 7.9 15.8001 7.4 15.7001 7C15.4001 6.6 15.2001 6.2 14.8001 5.9Z" fill="#3D3D3D"/>
</g>
<defs>
<clipPath id="clip0_149_14">
<rect width="24" height="24" fill="white"/>
</clipPath>
</defs>
</svg>
