<svg width="24" height="24" viewBox="0 0 24 24" fill="none" xmlns="http://www.w3.org/2000/svg">
<g clip-path="url(#clip0_177_704)">
<path d="M4.30005 9.89997H12.4C12.9 9.89997 13.3 9.49998 13.3 8.99998C13.3 8.49998 12.9 8.09998 12.4 8.09998H4.30005C3.70005 8.09998 3.30005 8.49998 3.30005 8.99998C3.30005 9.49998 3.70005 9.89997 4.30005 9.89997Z" fill="#3D3D3D"/>
<path d="M4.30008 14.6H10.0001C10.5001 14.6 10.9001 14.2 10.9001 13.7C10.9001 13.2 10.5001 12.8 10.0001 12.8H4.30008C3.80008 12.8 3.40008 13.2 3.40008 13.7C3.30008 14.2 3.70008 14.6 4.30008 14.6Z" fill="#3D3D3D"/>
<path d="M20 16.8C20.8 16 21.2 15 21.2 13.8C21.2 11.6 19.5 9.79999 17.4 9.69999V5.49999H20C20.6 5.49999 21 4.99999 21.1 4.49999V4.39999C21 1.99999 19.1 0.199988 16.8 0.199988H4.3C2 -1.18762e-05 0 1.99999 0 4.49999C0 4.59999 0 4.59999 0 4.69999V21C0 22.6 1.3 24 3 24H11.2H14.5H23.1C23.6 24 24 23.6 24 23.1C24 20.3 22.4 17.9 20 16.8ZM19.4 13.9C19.4 15.1 18.5 16 17.4 16.2C17.3 16.2 17.2 16.2 17.1 16.2C16.5 16.2 16 16 15.6 15.6C15.1 15.2 14.8 14.6 14.8 13.9C14.8 13.2 15.1 12.6 15.6 12.2C16 11.8 16.5 11.6 17.1 11.6C17.2 11.6 17.3 11.6 17.4 11.6C18.6 11.7 19.4 12.7 19.4 13.9ZM14.5 1.79999C14.7 1.79999 14.9 1.79999 15.1 1.89999H16.8C17.8 1.89999 18.7 2.59999 19.1 3.59999H17.2H13.4H8.5C8.4 2.99999 8.1 2.39999 7.8 1.89999C7.8 1.89999 7.8 1.89999 7.8 1.79999H14.5ZM10.3 22.1H3C2.4 22.1 1.9 21.6 1.9 21V4.79999V4.49999C1.9 3.09999 3 1.89999 4.3 1.89999C5.4 1.89999 6.3 2.59999 6.6 3.69999C6.7 3.89999 6.7 4.19999 6.7 4.49999V4.59999C6.8 5.09999 7.2 5.49999 7.7 5.49999H13.4H15.6V9.99999C14.1 10.6 13 12.1 13 13.9C13 15.1 13.5 16.1 14.2 16.9C13.9 17.1 13.5 17.2 13.2 17.4C13.2 17.4 13.2 17.4 13.1 17.4H4.3C3.8 17.4 3.4 17.8 3.4 18.3C3.4 18.8 3.8 19.2 4.3 19.2H11.5C10.8 20 10.5 21 10.3 22.1ZM17.2 22.1H14.5H12.2C12.5 20.3 13.9 18.8 15.6 18.2C16.1 18 16.6 18 17.1 18C17.2 18 17.3 18 17.4 18C19.7 18.1 21.6 19.9 22 22.1H17.2Z" fill="#3D3D3D"/>
</g>
<defs>
<clipPath id="clip0_177_704">
<rect width="24" height="24" fill="white"/>
</clipPath>
</defs>
</svg>
