<svg width="24" height="24" viewBox="0 0 24 24" fill="none" xmlns="http://www.w3.org/2000/svg">
<g clip-path="url(#clip0_120_126)">
<path d="M4.30005 9.9H12.4C12.9 9.9 13.3 9.5 13.3 9C13.3 8.5 12.9 8.1 12.4 8.1H4.30005C3.70005 8.1 3.30005 8.5 3.30005 9C3.30005 9.5 3.70005 9.9 4.30005 9.9Z" fill="#3D3D3D"/>
<path d="M4.2999 14.6H9.9999C10.4999 14.6 10.8999 14.2 10.8999 13.7C10.8999 13.2 10.4999 12.8 9.9999 12.8H4.2999C3.7999 12.8 3.3999 13.2 3.3999 13.7C3.3999 14.2 3.6999 14.6 4.2999 14.6Z" fill="#3D3D3D"/>
<path d="M20 16.8C20.8 16 21.2 15 21.2 13.8C21.2 11.6 19.5 9.8 17.4 9.7V5.5H20C20.6 5.5 21 5 21.1 4.5V4.4C21 2 19.1 0.2 16.8 0.2H4.3C2 0.1 0 2 0 4.5C0 4.6 0 4.6 0 4.7V21C0 22.6 1.3 24 3 24H11.2H14.5H23.1C23.6 24 24 23.6 24 23.1C24 20.3 22.4 17.9 20 16.8ZM19.4 13.9C19.4 15.1 18.5 16 17.4 16.2C17.3 16.2 17.2 16.2 17.1 16.2C16.5 16.2 16 16 15.6 15.6C15.1 15.2 14.8 14.6 14.8 13.9C14.8 13.2 15.1 12.6 15.6 12.2C16 11.8 16.5 11.6 17.1 11.6C17.2 11.6 17.3 11.6 17.4 11.6C18.6 11.7 19.4 12.7 19.4 13.9ZM14.5 1.8C14.7 1.8 14.9 1.8 15.1 1.9H16.8C17.8 1.9 18.7 2.6 19.1 3.6H17.2H13.4H8.5C8.4 3 8.1 2.4 7.8 1.9C7.8 1.9 7.8 1.9 7.8 1.8H14.5ZM1.9 21V4.8L2 4.6L1.9 4.5C1.9 3.1 3 1.9 4.3 1.9C5.4 1.9 6.3 2.6 6.6 3.7C6.7 3.9 6.7 4.2 6.7 4.5V4.6C6.8 5.1 7.2 5.5 7.7 5.5H13.4H15.6V10C14.1 10.6 13 12.1 13 13.9C13 15.1 13.5 16.1 14.2 16.9C13.9 17.1 13.5 17.2 13.2 17.4C13.2 17.4 13.2 17.4 13.1 17.4H4.3C3.8 17.4 3.4 17.8 3.4 18.3C3.4 18.8 3.8 19.2 4.3 19.2H11.5C10.9 20.1 10.5 21 10.4 22.1H3C2.3 22.1 1.9 21.6 1.9 21ZM17.2 22.1H14.5H12.2C12.5 20.3 13.9 18.8 15.6 18.2C16.1 18 16.6 18 17.1 18C17.2 18 17.3 18 17.4 18C19.7 18.1 21.6 19.9 22 22.1H17.2Z" fill="#3D3D3D"/>
</g>
<defs>
<clipPath id="clip0_120_126">
<rect width="24" height="24" fill="white"/>
</clipPath>
</defs>
</svg>
