<svg width="24" height="24" viewBox="0 0 24 24" fill="none" xmlns="http://www.w3.org/2000/svg">
<g clip-path="url(#clip0_149_33)">
<path d="M23.7001 9.8C23.6001 9.2 23.3001 8.7 22.6001 8.4L22.8001 8.2C23.4001 7.8 23.7001 7.2 23.6001 6.6C23.5001 6 23.1001 5.5 22.5001 5.2L12.5001 0.400002C11.4001 -0.0999985 9.90005 1.54972e-06 9.00005 0.700002L1.20005 6.2C0.600054 6.6 0.300054 7.2 0.400054 7.8C0.500054 8.4 0.800054 8.9 1.50005 9.2L1.20005 9.4C0.600054 9.8 0.300054 10.4 0.400054 11C0.500054 11.6 0.800054 12.1 1.50005 12.4L1.30005 12.6C0.700053 13 0.400054 13.6 0.500054 14.2C0.600054 14.8 0.900054 15.3 1.60005 15.6L1.40005 15.8C0.800053 16.2 0.500054 16.8 0.600054 17.4C0.700054 18 1.10005 18.5 1.70005 18.8L11.7001 23.6C12.1001 23.8 12.6001 23.9 13.2001 23.9C13.9001 23.9 14.7001 23.7 15.2001 23.3L23.1001 17.7C23.7001 17.3 24.0001 16.7 23.9001 16.1C23.8001 15.5 23.5001 15 22.8001 14.7L23.0001 14.5C23.6001 14.1 23.9001 13.5 23.8001 12.9C23.7001 12.3 23.4001 11.8 22.7001 11.5L22.9001 11.3C23.4001 11 23.7001 10.4 23.7001 9.8ZM2.20005 7.7L10.0001 2.1C10.4001 1.8 11.2001 1.7 11.7001 2L21.8001 6.8L20.7001 7.5L19.0001 8.7L18.0001 9.4L16.3001 10.6L15.2001 11.3L13.8001 12.3C13.7001 12.4 13.6001 12.4 13.5001 12.4C13.1001 12.6 12.4001 12.6 12.0001 12.4L10.1001 11.5L8.20005 10.6L7.30005 10.2L5.70005 9.4L4.90005 8.9L3.00005 8.1L2.20005 7.7ZM2.20005 10.8L3.20005 10.1L4.10005 10.5L5.90005 11.4L6.80005 11.8L8.60005 12.7L11.4001 14.1C11.8001 14.3 12.3001 14.4 12.9001 14.4C13.6001 14.4 14.4001 14.2 14.9001 13.8L15.5001 13.4L17.2001 12.2L18.3001 11.5L20.0001 10.3L21.1001 9.6L22.0001 10L20.9001 10.7L19.2001 11.9L18.0001 12.6L16.3001 13.8L13.8001 15.6C13.4001 15.9 12.6001 16 12.1001 15.7L7.50005 13.5L5.70005 12.6L4.80005 12.2L3.00005 11.3L2.20005 10.8ZM21.8001 16.3L13.9001 21.9C13.5001 22.2 12.7001 22.3 12.2001 22L2.20005 17.2L3.20005 16.5L11.4001 20.4C11.8001 20.6 12.3001 20.7 12.9001 20.7C13.6001 20.7 14.4001 20.5 14.9001 20.1L20.9001 15.9L21.8001 16.3ZM21.8001 13.1L20.7001 13.8L19.1001 15L13.9001 18.7C13.5001 19 12.7001 19.1 12.2001 18.8L4.90005 15.3L3.00005 14.5L2.20005 14L3.20005 13.3L4.10005 13.7L5.90005 14.6L11.4001 17.3C11.8001 17.5 12.3001 17.6 12.9001 17.6C13.6001 17.6 14.4001 17.4 14.9001 17L18.2001 14.7L19.9001 13.5L21.0001 12.8L21.8001 13.1Z" fill="#3D3D3D"/>
</g>
<defs>
<clipPath id="clip0_149_33">
<rect width="24" height="24" fill="white"/>
</clipPath>
</defs>
</svg>
